<svg width="40" height="40" viewBox="0 0 40 40" fill="none" xmlns="http://www.w3.org/2000/svg">
<rect width="40" height="40" rx="20" fill="#F6E75A"/>
<path d="M27.1382 12.1245C26.8094 11.1118 25.9283 10.8882 25.4811 10.3095C25.0734 9.70455 25.126 8.79708 24.2712 8.17895C23.4163 7.56082 22.5614 7.87646 21.8644 7.67919C21.1674 7.48191 20.6939 6.6665 19.6286 6.6665C18.5633 6.6665 18.0767 7.4293 17.3928 7.67919C16.7089 7.92907 15.8541 7.54767 14.986 8.17895C14.118 8.81023 14.1838 9.70455 13.7761 10.3095C13.3289 10.8882 12.4609 11.1118 12.119 12.1245C11.777 13.1371 12.3952 13.8342 12.3952 14.5575C12.3952 15.2809 11.7376 15.9779 12.119 16.9906C12.5004 18.0033 13.3289 18.2269 13.7761 18.8055C14.1838 19.4105 14.1312 20.318 14.986 20.9361C15.8409 21.5542 16.6958 21.2386 17.3928 21.4359C18.0899 21.6332 18.5633 22.4486 19.6286 22.4486C20.6939 22.4486 21.1805 21.6858 21.8644 21.4359C22.5483 21.186 23.4031 21.5674 24.2712 20.9361C25.1392 20.3048 25.0734 19.4105 25.4811 18.8055C25.9283 18.2269 26.7963 18.0033 27.1382 16.9906C27.4802 15.9779 26.862 15.2809 26.862 14.5575C26.862 13.8342 27.5196 13.1371 27.1382 12.1245ZM19.6286 19.8182C18.5881 19.8182 17.571 19.5097 16.7059 18.9316C15.8408 18.3536 15.1665 17.532 14.7684 16.5707C14.3702 15.6094 14.266 14.5517 14.469 13.5312C14.672 12.5108 15.173 11.5734 15.9087 10.8377C16.6445 10.1019 17.5818 9.60091 18.6023 9.39793C19.6228 9.19494 20.6805 9.29912 21.6418 9.69729C22.603 10.0955 23.4247 10.7697 24.0027 11.6349C24.5808 12.5 24.8893 13.5171 24.8893 14.5575C24.8893 15.9528 24.335 17.2908 23.3485 18.2774C22.3619 19.264 21.0238 19.8182 19.6286 19.8182ZM22.2589 14.5575C22.2589 15.0778 22.1047 15.5863 21.8157 16.0189C21.5266 16.4514 21.1158 16.7886 20.6352 16.9877C20.1546 17.1867 19.6257 17.2388 19.1154 17.1373C18.6052 17.0358 18.1365 16.7853 17.7687 16.4175C17.4008 16.0496 17.1503 15.5809 17.0488 15.0707C16.9473 14.5605 16.9994 14.0316 17.1985 13.5509C17.3976 13.0703 17.7347 12.6595 18.1673 12.3705C18.5998 12.0815 19.1084 11.9272 19.6286 11.9272C20.3262 11.9272 20.9952 12.2043 21.4885 12.6976C21.9818 13.1909 22.2589 13.8599 22.2589 14.5575ZM21.8775 24.5002L21.049 29.2348L20.0889 34.6665L16.6563 31.3917L12.3162 33.2987L14.0654 23.4349C14.8363 23.8198 15.6898 24.0095 16.5511 23.9873C17.0792 24.3902 17.6765 24.6932 18.3134 24.8816C18.7392 25.0142 19.1827 25.0807 19.6286 25.0789C20.4154 25.0814 21.1897 24.8822 21.8775 24.5002ZM27.4144 28.7351L24.0213 27.5251L24.692 23.6585C25.0923 23.5187 25.4692 23.3192 25.8099 23.0667L25.9677 22.9352L27.4144 28.7351Z" fill="#272727"/>
</svg>
