<svg width="74" height="93" viewBox="0 0 74 93" fill="none" xmlns="http://www.w3.org/2000/svg">
<g filter="url(#filter0_d_1270_8536)">
<circle cx="36.7374" cy="45.7374" r="30.7373" fill="#00838D"/>
<circle cx="36.7374" cy="45.7374" r="29.7373" stroke="#F7E75A" stroke-width="2"/>
</g>
<path d="M35.9665 0.0377216C35.1628 0.214249 34.6425 0.929649 34.7308 1.74261C34.7679 2.10495 34.9166 2.41155 35.1907 2.67634L35.4137 2.89932L33.4068 6.23012C32.3012 8.06507 31.3768 9.59343 31.3442 9.62595C31.3024 9.6724 30.9076 9.46336 29.4024 8.58072L27.5164 7.4751L27.5443 7.14063C27.5768 6.73647 27.5117 6.45775 27.298 6.11863C26.6523 5.09663 25.0589 5.20812 24.5572 6.30909C24.1113 7.28928 24.743 8.41348 25.8161 8.54356L26.0531 8.57608L27.0983 12.3668L28.1482 16.1621H36.2917H44.4351L45.485 12.3668L46.5302 8.57608L46.7672 8.54356C47.8403 8.41348 48.472 7.28928 48.0261 6.30909C47.6312 5.44968 46.5117 5.14308 45.7219 5.67731C45.2342 6.00714 44.9833 6.54601 45.0391 7.15921L45.0716 7.4751L43.1809 8.58072C41.4202 9.61201 41.2855 9.68169 41.2251 9.60272C41.1926 9.55627 40.2635 8.02791 39.1672 6.20689L37.1696 2.89468L37.3694 2.71351C37.6388 2.48123 37.8293 2.08172 37.8618 1.70544C37.9454 0.650922 36.9885 -0.189905 35.9665 0.0377216Z" fill="#F6E75A"/>
<path d="M37.9998 89.5121L41.6048 91.7825L40.6482 87.5034L43.8332 84.6242L39.639 84.2469L37.9998 80.2173L36.3607 84.2469L32.1665 84.6242L35.3457 87.5034L34.3948 91.7825L37.9998 89.5121Z" fill="#F6E75A"/>
<path d="M49.9998 86.5121L53.6048 88.7825L52.6482 84.5034L55.8332 81.6242L51.639 81.2469L49.9998 77.2173L48.3607 81.2469L44.1665 81.6242L47.3457 84.5034L46.3948 88.7825L49.9998 86.5121Z" fill="#F6E75A"/>
<path d="M24.9998 86.5121L28.6048 88.7825L27.6482 84.5034L30.8332 81.6242L26.639 81.2469L24.9998 77.2173L23.3607 81.2469L19.1665 81.6242L22.3457 84.5034L21.3948 88.7825L24.9998 86.5121Z" fill="#F6E75A"/>
<defs>
<filter id="filter0_d_1270_8536" x="0" y="11" width="73.4746" height="73.4746" filterUnits="userSpaceOnUse" color-interpolation-filters="sRGB">
<feFlood flood-opacity="0" result="BackgroundImageFix"/>
<feColorMatrix in="SourceAlpha" type="matrix" values="0 0 0 0 0 0 0 0 0 0 0 0 0 0 0 0 0 0 127 0" result="hardAlpha"/>
<feOffset dy="2"/>
<feGaussianBlur stdDeviation="3"/>
<feComposite in2="hardAlpha" operator="out"/>
<feColorMatrix type="matrix" values="0 0 0 0 0 0 0 0 0 0 0 0 0 0 0 0 0 0 0.06 0"/>
<feBlend mode="normal" in2="BackgroundImageFix" result="effect1_dropShadow_1270_8536"/>
<feBlend mode="normal" in="SourceGraphic" in2="effect1_dropShadow_1270_8536" result="shape"/>
</filter>
</defs>
</svg>
