<svg width="19" height="20" viewBox="0 0 19 20" fill="none" xmlns="http://www.w3.org/2000/svg">
<path d="M7.41427 6.48749H9.26784V12.0482H7.41427V6.48749ZM11.1214 0H5.5607V1.85357H11.1214V0ZM8.34106 17.6089C4.7544 17.6089 1.85357 14.7081 1.85357 11.1214C1.85357 7.53475 4.7544 4.63392 8.34106 4.63392C11.9277 4.63392 14.8285 7.53475 14.8285 11.1214C15.4773 11.1214 16.089 11.2419 16.6821 11.4458C16.6821 11.3346 16.6821 11.2326 16.6821 11.1214C16.6821 9.15663 15.9963 7.3494 14.8563 5.92215L16.1724 4.60612C15.7553 4.13346 15.3383 3.70714 14.8656 3.29935L13.5496 4.63392C12.1131 3.46617 10.3058 2.78035 8.34106 2.78035C3.73494 2.78035 0 6.51529 0 11.1214C0 15.7275 3.73494 19.4625 8.34106 19.4625C8.88786 19.4625 9.41613 19.4069 9.92586 19.3049C9.63855 18.7674 9.43466 18.165 9.34198 17.5255C9.00834 17.5718 8.68397 17.6089 8.34106 17.6089ZM18.5357 15.6534L15.8573 15.4217L14.8285 12.975L13.7813 15.4217L11.1214 15.6534L13.1418 17.3957L12.5116 20L14.8285 18.6191L17.0992 20L16.4968 17.3957L18.5357 15.6534Z" fill="#1F1F1F"/>
</svg>
