<svg xmlns="http://www.w3.org/2000/svg" width="24" height="24" viewBox="0 0 24 24" fill="none">
<g clip-path="url(#clip0_2512_397)">
<mask id="mask0_2512_397" style="mask-type:alpha" maskUnits="userSpaceOnUse" x="0" y="0" width="24" height="24">
<rect width="24" height="24" fill="#D9D9D9"/>
</mask>
<g mask="url(#mask0_2512_397)">
<path d="M18.5857 9.14943L14.4708 13.2414C13.9344 13.7778 13.283 14.046 12.5168 14.046C11.7505 14.046 11.0991 13.7778 10.5627 13.2414L9.48228 12.1609C9.31369 11.9923 9.09913 11.908 8.8386 11.908C8.57806 11.908 8.3635 11.9923 8.19492 12.1609L3.96503 16.3908C3.79645 16.5594 3.58189 16.6437 3.32136 16.6437C3.06082 16.6437 2.84626 16.5594 2.67768 16.3908C2.5091 16.2222 2.4248 16.0077 2.4248 15.7471C2.4248 15.4866 2.5091 15.272 2.67768 15.1034L6.90756 10.8736C7.44396 10.3372 8.0953 10.069 8.86159 10.069C9.62787 10.069 10.2792 10.3372 10.8156 10.8736L11.8731 11.931C12.057 12.1149 12.2754 12.2069 12.5283 12.2069C12.7811 12.2069 12.9995 12.1149 13.1834 11.931L17.2754 7.83908H15.8271C15.5666 7.83908 15.3482 7.75096 15.1719 7.57471C14.9957 7.39847 14.9076 7.18008 14.9076 6.91954C14.9076 6.659 14.9957 6.44061 15.1719 6.26437C15.3482 6.08812 15.5666 6 15.8271 6H19.5053C19.7658 6 19.9842 6.08812 20.1604 6.26437C20.3367 6.44061 20.4248 6.659 20.4248 6.91954V10.5977C20.4248 10.8582 20.3367 11.0766 20.1604 11.2529C19.9842 11.4291 19.7658 11.5172 19.5053 11.5172C19.2447 11.5172 19.0263 11.4291 18.8501 11.2529C18.6738 11.0766 18.5857 10.8582 18.5857 10.5977V9.14943Z" fill="#2B2B2B"/>
</g>
</g>
<defs>
<clipPath id="clip0_2512_397">
<rect width="24" height="24" fill="white"/>
</clipPath>
</defs>
</svg>
