<svg width="20" height="20" viewBox="0 0 20 20" fill="none" xmlns="http://www.w3.org/2000/svg">
<g id="Icons ">
<path id="Vector" d="M10.0001 1.66699C5.40008 1.66699 1.66675 5.40033 1.66675 10.0003C1.66675 14.6003 5.40008 18.3337 10.0001 18.3337C14.6001 18.3337 18.3334 14.6003 18.3334 10.0003C18.3334 5.40033 14.6001 1.66699 10.0001 1.66699ZM10.0001 16.667C6.32508 16.667 3.33341 13.6753 3.33341 10.0003C3.33341 6.32533 6.32508 3.33366 10.0001 3.33366C13.6751 3.33366 16.6667 6.32533 16.6667 10.0003C16.6667 13.6753 13.6751 16.667 10.0001 16.667ZM13.2334 6.90866L8.33342 11.8087L6.76675 10.242C6.44175 9.91699 5.91675 9.91699 5.59175 10.242C5.26675 10.567 5.26675 11.092 5.59175 11.417L7.75008 13.5753C8.07508 13.9003 8.60008 13.9003 8.92508 13.5753L14.4167 8.08366C14.7417 7.75866 14.7417 7.23366 14.4167 6.90866C14.0917 6.58366 13.5584 6.58366 13.2334 6.90866Z" fill="#59975C"/>
</g>
</svg>
