<svg width="20" height="20" viewBox="0 0 20 20" fill="none" xmlns="http://www.w3.org/2000/svg">
<mask id="path-1-inside-1_838_15018" fill="white">
<path d="M16.4286 11.0714H11.0714V16.4286C11.0714 17.0179 10.5893 17.5 10 17.5C9.41071 17.5 8.92857 17.0179 8.92857 16.4286V11.0714H3.57143C2.98214 11.0714 2.5 10.5893 2.5 10C2.5 9.41071 2.98214 8.92857 3.57143 8.92857H8.92857V3.57143C8.92857 2.98214 9.41071 2.5 10 2.5C10.5893 2.5 11.0714 2.98214 11.0714 3.57143V8.92857H16.4286C17.0179 8.92857 17.5 9.41071 17.5 10C17.5 10.5893 17.0179 11.0714 16.4286 11.0714Z"/>
</mask>
<path d="M16.4286 11.0714H11.0714V16.4286C11.0714 17.0179 10.5893 17.5 10 17.5C9.41071 17.5 8.92857 17.0179 8.92857 16.4286V11.0714H3.57143C2.98214 11.0714 2.5 10.5893 2.5 10C2.5 9.41071 2.98214 8.92857 3.57143 8.92857H8.92857V3.57143C8.92857 2.98214 9.41071 2.5 10 2.5C10.5893 2.5 11.0714 2.98214 11.0714 3.57143V8.92857H16.4286C17.0179 8.92857 17.5 9.41071 17.5 10C17.5 10.5893 17.0179 11.0714 16.4286 11.0714Z" fill="#1F1F1F"/>
<path d="M11.0714 11.0714V7.7381H7.7381V11.0714H11.0714ZM8.92857 11.0714H12.2619V7.7381H8.92857V11.0714ZM8.92857 8.92857V12.2619H12.2619V8.92857H8.92857ZM11.0714 8.92857H7.7381V12.2619H11.0714V8.92857ZM16.4286 7.7381H11.0714V14.4048H16.4286V7.7381ZM7.7381 11.0714V16.4286H14.4048V11.0714H7.7381ZM7.7381 16.4286C7.7381 15.1769 8.74834 14.1667 10 14.1667V20.8333C12.4302 20.8333 14.4048 18.8588 14.4048 16.4286H7.7381ZM10 14.1667C11.2517 14.1667 12.2619 15.1769 12.2619 16.4286H5.59524C5.59524 18.8588 7.56977 20.8333 10 20.8333V14.1667ZM12.2619 16.4286V11.0714H5.59524V16.4286H12.2619ZM8.92857 7.7381H3.57143V14.4048H8.92857V7.7381ZM3.57143 7.7381C4.82309 7.7381 5.83333 8.74834 5.83333 10H-0.833333C-0.833333 12.4302 1.14119 14.4048 3.57143 14.4048V7.7381ZM5.83333 10C5.83333 11.2517 4.82309 12.2619 3.57143 12.2619V5.59524C1.14119 5.59524 -0.833333 7.56977 -0.833333 10H5.83333ZM3.57143 12.2619H8.92857V5.59524H3.57143V12.2619ZM12.2619 8.92857V3.57143H5.59524V8.92857H12.2619ZM12.2619 3.57143C12.2619 4.82309 11.2517 5.83333 10 5.83333V-0.833333C7.56977 -0.833333 5.59524 1.14119 5.59524 3.57143H12.2619ZM10 5.83333C8.74834 5.83333 7.7381 4.82309 7.7381 3.57143H14.4048C14.4048 1.14119 12.4302 -0.833333 10 -0.833333V5.83333ZM7.7381 3.57143V8.92857H14.4048V3.57143H7.7381ZM11.0714 12.2619H16.4286V5.59524H11.0714V12.2619ZM16.4286 12.2619C15.1769 12.2619 14.1667 11.2517 14.1667 10H20.8333C20.8333 7.56977 18.8588 5.59524 16.4286 5.59524V12.2619ZM14.1667 10C14.1667 8.74834 15.1769 7.7381 16.4286 7.7381V14.4048C18.8588 14.4048 20.8333 12.4302 20.8333 10H14.1667Z" fill="#1F1F1F" mask="url(#path-1-inside-1_838_15018)"/>
</svg>
