<svg xmlns="http://www.w3.org/2000/svg" width="40.475" height="40.475" viewBox="0 0 44.475 44.475">
  <path id="Icon_awesome-check-circle" data-name="Icon awesome-check-circle" d="M45.037,22.8A22.237,22.237,0,1,1,22.8.562,22.237,22.237,0,0,1,45.037,22.8ZM20.228,34.574l16.5-16.5a1.435,1.435,0,0,0,0-2.029L34.7,14.018a1.435,1.435,0,0,0-2.029,0L19.213,27.473l-6.282-6.282a1.435,1.435,0,0,0-2.029,0L8.873,23.22a1.435,1.435,0,0,0,0,2.029L18.2,34.574A1.435,1.435,0,0,0,20.228,34.574Z" transform="translate(-0.563 -0.563)" fill="#335E76"/>
</svg>
