<svg width="24" height="24" viewBox="0 0 24 24" fill="none" xmlns="http://www.w3.org/2000/svg">
<path d="M12.9724 5.31376L13.1331 6.11765H13.9529H18.8235C18.8366 6.11765 18.8505 6.12209 18.8642 6.13578C18.8779 6.14948 18.8824 6.16341 18.8824 6.17647V14.6471C18.8824 14.6601 18.8779 14.6741 18.8642 14.6877C18.8505 14.7014 18.8366 14.7059 18.8235 14.7059H13.3388C13.3163 14.7059 13.303 14.6988 13.296 14.693C13.2922 14.69 13.2897 14.6869 13.2881 14.6842C13.2866 14.6818 13.2847 14.6779 13.2833 14.6708L13.2834 14.6707L13.2818 14.6627L13.0276 13.3921L12.8669 12.5882H12.0471H6.11765H5.11765V13.5882V19.9412C5.11765 19.9542 5.1132 19.9682 5.09951 19.9819C5.08582 19.9956 5.07189 20 5.05882 20C5.04576 20 5.03183 19.9956 5.01814 19.9819C5.00444 19.9682 5 19.9542 5 19.9412V4.05882C5 4.04576 5.00444 4.03183 5.01814 4.01814C5.03183 4.00444 5.04576 4 5.05882 4H12.6612C12.6762 4 12.6894 4.00483 12.7007 4.0141C12.7124 4.02373 12.7163 4.03319 12.7174 4.03907L12.7174 4.03907L12.7182 4.04317L12.9724 5.31376Z" stroke="#9D9D9D" stroke-width="2"/>
</svg>
