<svg width="274" height="284" viewBox="0 0 274 284" fill="none" xmlns="http://www.w3.org/2000/svg">
<path d="M225.902 16.6373C225.902 16.6373 195.498 -8.19486 155.954 2.8159C116.41 13.8267 99.8638 47.8893 77.1777 71.307C65.3012 83.5737 47.7547 88.0975 33.6468 97.5231C-11.4388 127.72 -4.78722 195.584 30.0192 221.19C60.1373 243.352 97.7726 245.669 146.742 229.323C195.711 212.978 230.761 203.156 261.136 156.339C291.51 109.522 263.355 50.3341 225.902 16.6373Z" fill="#0F0742"/>
<path opacity="0.7" d="M225.902 16.6373C225.902 16.6373 195.498 -8.19486 155.954 2.8159C116.41 13.8267 99.8638 47.8893 77.1777 71.307C65.3012 83.5737 47.7547 88.0975 33.6468 97.5231C-11.4388 127.72 -4.78722 195.584 30.0192 221.19C60.1373 243.352 97.7726 245.669 146.742 229.323C195.711 212.978 230.761 203.156 261.136 156.339C291.51 109.522 263.355 50.3341 225.902 16.6373Z" fill="white"/>
<mask id="mask0_1504_69" style="mask-type:luminance" maskUnits="userSpaceOnUse" x="3" y="72" width="63" height="102">
<path d="M21.4835 173.196V151.37C21.4835 151.37 24.1966 142.597 28.3607 141.688L32.5187 140.786L65.5875 140.926V72.9531H3.72363V173.958L21.4835 173.196Z" fill="white"/>
</mask>
<g mask="url(#mask0_1504_69)">
<path d="M45.2614 86.7875C45.2614 86.7875 45.2614 84.0805 41.4692 80.2944C37.677 76.5083 35.2505 74.3379 35.2505 74.3379C35.2505 74.3379 33.3544 80.5627 36.8722 84.3549C39.4597 87.0232 42.2659 89.4705 45.2614 91.671V86.7875Z" fill="#0F0742"/>
<path d="M39.7316 103.688C39.7316 103.688 39.7316 100.981 35.9455 97.1948C32.1594 93.4087 29.7207 91.2383 29.7207 91.2383C29.7207 91.2383 27.8246 97.4631 31.3425 101.249C33.9291 103.918 36.7354 106.366 39.7316 108.565V103.688Z" fill="#0F0742"/>
<path d="M44.993 91.3959C44.993 91.3959 45.2796 88.7072 49.4437 85.3357C53.6078 81.9642 56.2355 80.0742 56.2355 80.0742C56.2355 80.0742 57.4548 86.4636 53.5651 89.8595C50.7013 92.2385 47.6421 94.3718 44.4199 96.2368L44.993 91.3959Z" fill="#0F0742"/>
<path d="M38.3472 111.351C38.3472 111.351 38.9142 108.705 43.4137 105.797C47.9131 102.889 50.7298 101.279 50.7298 101.279C50.7298 101.279 51.2785 107.76 47.0717 110.729C43.9774 112.795 40.7142 114.596 37.3169 116.113L38.3472 111.351Z" fill="#0F0742"/>
<path d="M39.5972 133.111C39.5972 133.111 39.5972 130.405 43.3894 126.618C47.1815 122.832 49.6081 120.668 49.6081 120.668C49.6081 120.668 51.5042 126.887 47.9863 130.679C45.3988 133.347 42.5927 135.794 39.5972 137.995V133.111Z" fill="#0F0742"/>
<path d="M39.5364 138.422C39.5364 138.422 39.9205 135.745 36.7075 131.459C33.4945 127.173 31.3972 124.68 31.3972 124.68C31.3972 124.68 28.6354 130.569 31.5801 134.819C33.7624 137.824 36.1912 140.642 38.8414 143.244L39.5364 138.422Z" fill="#0F0742"/>
<path d="M35.7993 154.162C35.7993 154.162 35.7993 151.456 39.5854 147.669C43.3715 143.883 45.8102 141.713 45.8102 141.713C45.8102 141.713 47.7063 147.938 44.1885 151.724C41.6018 154.393 38.7956 156.84 35.7993 159.04V154.162Z" fill="#0F0742"/>
<path d="M38.3295 168.43C38.3295 168.43 37.6466 165.814 40.3475 161.193C43.0484 156.572 44.8652 153.877 44.8652 153.877C44.8652 153.877 48.2733 159.413 45.8285 163.973C43.9997 167.206 41.9032 170.279 39.561 173.161L38.3295 168.43Z" fill="#0F0742"/>
<path d="M45.5722 86.0918C45.3822 88.9092 45.0362 91.714 44.5357 94.4931C43.0359 102.23 39.2925 107.223 37.8293 114.21C36.3661 121.197 40.6277 130.202 39.4754 139.176C38.3231 148.151 34.8297 153.144 35.8173 159.131C36.805 165.118 42.2129 181.683 42.2129 181.683" stroke="#263238" stroke-linecap="round" stroke-linejoin="round"/>
<path d="M44.9565 93.1943L49.0353 90.0605" stroke="#263238" stroke-linecap="round" stroke-linejoin="round"/>
<path d="M45.1453 89.585L43.4321 86.5488" stroke="#263238" stroke-linecap="round" stroke-linejoin="round"/>
<path d="M38.0244 113.887C38.0244 113.887 41.4386 111.32 44.9564 108.76" stroke="#263238" stroke-linecap="round" stroke-linejoin="round"/>
<path d="M39.7313 108.56C39.7313 108.56 36.8841 102.975 33.6772 99.2559" stroke="#263238" stroke-linecap="round" stroke-linejoin="round"/>
<path d="M39.7314 136.958C41.6858 133.37 44.1501 130.084 47.0476 127.203" stroke="#263238" stroke-linecap="round" stroke-linejoin="round"/>
<path d="M39.0671 140.756C38.0303 138.317 36.7925 135.967 35.3664 133.733C33.3727 130.788 33.0679 130.41 33.0679 130.41" stroke="#263238" stroke-linecap="round" stroke-linejoin="round"/>
<path d="M35.7993 159.131C36.6563 156.984 37.6754 154.905 38.8477 152.912C40.0298 151.063 41.3635 149.316 42.835 147.688" stroke="#263238" stroke-linecap="round" stroke-linejoin="round"/>
<path d="M39.5606 173.142C39.3653 171.089 39.7188 169.021 40.5849 167.149C42.0115 164.399 43.6333 160.79 44.2917 159.363" stroke="#263238" stroke-linecap="round" stroke-linejoin="round"/>
<path d="M14.3143 122.936C14.3143 122.936 14.0216 121.241 15.9848 118.455C17.9479 115.669 19.2405 114.047 19.2405 114.047C19.2405 114.047 21.1061 117.742 19.3136 120.497C17.9778 122.446 16.4831 124.282 14.8447 125.984L14.3143 122.936Z" fill="#0F0742"/>
<path d="M19.5999 132.934C19.5999 132.934 19.3073 131.239 21.2704 128.453C23.2336 125.667 24.5322 124.045 24.5322 124.045C24.5322 124.045 26.3612 127.74 24.5993 130.495C23.2674 132.447 21.7724 134.283 20.1303 135.982L19.5999 132.934Z" fill="#0F0742"/>
<path d="M14.9663 125.801C14.9663 125.801 14.4969 124.143 11.5156 122.484C8.53425 120.826 6.66864 119.924 6.66864 119.924C6.66864 119.924 6.59547 124.064 9.40608 125.771C11.4544 126.951 13.5978 127.959 15.8138 128.782L14.9663 125.801Z" fill="#0F0742"/>
<path d="M21.2949 137.592C21.2949 137.592 20.6852 135.995 17.5149 134.659C14.3446 133.324 12.4302 132.623 12.4302 132.623C12.4302 132.623 12.7899 136.744 15.7651 138.147C17.9315 139.108 20.1749 139.885 22.4716 140.47L21.2949 137.592Z" fill="#0F0742"/>
<path d="M22.8737 151.371C22.8737 151.371 22.581 149.676 19.7948 147.712C17.0086 145.749 15.2466 144.664 15.2466 144.664C15.2466 144.664 14.7345 148.773 17.35 150.761C19.2631 152.146 21.2881 153.37 23.4041 154.419L22.8737 151.371Z" fill="#0F0742"/>
<path d="M23.4895 154.694C23.4895 154.694 22.9591 153.06 24.5077 150.024C26.0563 146.988 27.1049 145.195 27.1049 145.195C27.1049 145.195 29.4765 148.591 28.0926 151.573C27.0479 153.705 25.8241 155.744 24.4345 157.669L23.4895 154.694Z" fill="#0F0742"/>
<path d="M28.2447 168.381C28.2447 168.381 28.4459 166.674 31.1102 164.553C33.7745 162.431 35.506 161.242 35.506 161.242C35.506 161.242 36.2498 165.315 33.7501 167.455C31.9211 168.951 29.9693 170.291 27.9155 171.46L28.2447 168.381Z" fill="#0F0742"/>
<path d="M27.5439 164.162C27.5439 164.162 27.2512 162.467 24.4955 160.503C21.7397 158.54 19.9473 157.455 19.9473 157.455C19.9473 157.455 19.4352 161.564 22.0507 163.552C23.9628 164.938 25.988 166.162 28.1048 167.21L27.5439 164.162Z" fill="#0F0742"/>
<path d="M27.5073 173.387C27.5073 173.387 27.6536 171.668 25.4527 169.064C23.2518 166.461 21.8251 164.955 21.8251 164.955C21.8251 164.955 20.2888 168.796 22.319 171.387C23.8157 173.217 25.4635 174.918 27.2452 176.472L27.5073 173.387Z" fill="#0F0742"/>
<path d="M14.0273 122.539C14.4521 124.284 14.9732 126.004 15.5881 127.691C17.3684 132.385 20.2582 135.105 21.9531 139.323C23.648 143.542 21.9531 149.688 23.6298 155.175C25.3064 160.662 28.056 163.424 28.0804 167.289C28.1048 171.155 26.6903 181.611 26.6903 181.611" stroke="#263238" stroke-linecap="round" stroke-linejoin="round"/>
<path d="M15.1858 126.922L12.2837 125.404" stroke="#263238" stroke-linecap="round" stroke-linejoin="round"/>
<path d="M14.6738 124.679L15.4176 122.588" stroke="#263238" stroke-linecap="round" stroke-linejoin="round"/>
<path d="M21.7763 139.146C21.7763 139.146 19.3376 137.926 16.8989 136.707" stroke="#263238" stroke-linecap="round" stroke-linejoin="round"/>
<path d="M20.1245 135.989C20.8369 133.739 21.7766 131.567 22.929 129.508" stroke="#263238" stroke-linecap="round" stroke-linejoin="round"/>
<path d="M23.2091 153.804C21.5964 151.759 19.6946 149.96 17.5635 148.463" stroke="#263238" stroke-linecap="round" stroke-linejoin="round"/>
<path d="M24.0386 156.108C24.4239 154.466 24.946 152.859 25.5993 151.304C26.5261 149.243 26.6663 148.975 26.6663 148.975" stroke="#263238" stroke-linecap="round" stroke-linejoin="round"/>
<path d="M27.9521 170.21C28.8936 169.042 29.9361 167.958 31.0676 166.973C31.7906 166.441 32.4695 165.852 33.0978 165.211" stroke="#263238" stroke-linecap="round" stroke-linejoin="round"/>
<path d="M28.0804 167.277C27.3053 166.023 26.4349 164.831 25.4771 163.71C24.5408 162.681 23.5212 161.731 22.4287 160.869" stroke="#263238" stroke-linecap="round" stroke-linejoin="round"/>
<path d="M27.2451 176.471C27.1466 175.159 26.7005 173.896 25.9525 172.813C24.7332 171.24 23.3553 169.155 22.7822 168.332" stroke="#263238" stroke-linecap="round" stroke-linejoin="round"/>
</g>
<path d="M263.519 49.127H220.385V105.614H263.519V49.127Z" stroke="#263238" stroke-linecap="round" stroke-linejoin="round"/>
<path d="M256.855 57.8516H227.054V96.877H256.855V57.8516Z" stroke="#263238" stroke-linecap="round" stroke-linejoin="round"/>
<path d="M198.649 28.5879H164.928V72.7468H198.649V28.5879Z" stroke="#263238" stroke-linecap="round" stroke-linejoin="round"/>
<path d="M193.443 35.4102H170.141V65.9184H193.443V35.4102Z" stroke="#263238" stroke-linecap="round" stroke-linejoin="round"/>
<path opacity="0.37" d="M29.5554 247.588L27.5801 253.703H244.625L243.235 247.905L29.5554 247.588Z" fill="black"/>
<path d="M248.759 176.311C248.893 165.697 249.033 160.368 249.033 155.979C249.033 142.346 236.84 140.785 236.84 140.785H32.5126C32.5126 140.785 21.8067 139.615 21.8067 155.296C21.8067 160.917 21.3982 167.636 21.6421 176.634" stroke="#263238" stroke-linecap="round" stroke-linejoin="round"/>
<path d="M46.1323 194.943H224.621" stroke="#263238" stroke-linecap="round" stroke-linejoin="round"/>
<path d="M21.8066 210.05V222.5C21.8066 223.632 22.2563 224.717 23.0566 225.517C23.857 226.318 24.9425 226.767 26.0744 226.767H97.1627V208.721C97.1627 202.35 97.6322 194.875 97.6322 194.875V148.113C97.6322 148.113 96.9066 144.022 98.2418 141.297" stroke="#263238" stroke-linecap="round" stroke-linejoin="round"/>
<path d="M97.1929 226.792H181.078L181.609 194.943V148.479C181.609 148.479 181.469 144.047 179.78 140.98" stroke="#263238" stroke-linecap="round" stroke-linejoin="round"/>
<path d="M181.079 226.792H244.991C246.016 226.793 247.002 226.394 247.738 225.68C248.474 224.967 248.904 223.995 248.936 222.97C249.088 217.659 249.35 212.215 249.35 210.355" stroke="#263238" stroke-linecap="round" stroke-linejoin="round"/>
<path d="M6.42432 206.234L12.893 247.589H258.763L265.232 205.68" stroke="#263238" stroke-linecap="round" stroke-linejoin="round"/>
<path d="M18.0205 247.905L21.2213 256.879H26.0317L29.5556 247.588L18.0205 247.905Z" fill="#263238" stroke="#263238" stroke-linecap="round" stroke-linejoin="round"/>
<path d="M243.235 247.905L246.436 256.879H251.246L254.77 247.588L243.235 247.905Z" fill="#263238" stroke="#263238" stroke-linecap="round" stroke-linejoin="round"/>
<path d="M28.7995 208.045C26.6907 209.157 24.3821 209.838 22.0077 210.051C17.3302 210.356 12.6599 209.357 8.51559 207.167C5.27211 205.484 0.589791 203.326 1.02876 198.949C1.46773 194.571 4.68682 189.956 7.44866 186.658C10.3966 183.064 14.0455 180.108 18.1729 177.97C23.1966 175.464 29.3787 173.8 34.4025 175.885C37.3117 177.173 39.9591 178.985 42.2124 181.232C44.9621 183.878 48.5104 188.011 47.4435 192.157C46.4497 196.016 41.9137 198.662 38.9629 200.948C35.7925 203.393 32.4576 206.192 28.7995 208.045Z" stroke="#263238" stroke-linecap="round" stroke-linejoin="round"/>
<path d="M241.814 208.045C243.924 209.156 246.232 209.837 248.606 210.051C253.288 210.356 257.962 209.358 262.11 207.167C265.348 205.484 270.036 203.326 269.591 198.949C269.146 194.571 265.933 189.956 263.171 186.658C260.223 183.064 256.575 180.108 252.447 177.97C247.423 175.464 241.241 173.8 236.218 175.885C233.309 177.181 230.663 179.002 228.414 181.256C225.664 183.902 222.116 188.036 223.183 192.181C224.176 196.041 228.712 198.687 231.669 200.973C234.827 203.393 238.15 206.192 241.814 208.045Z" stroke="#263238" stroke-linecap="round" stroke-linejoin="round"/>
<path d="M248.606 210.052H183.249C183.249 210.052 181.334 210.588 181.334 205.309C181.334 205.309 181.2 210.021 177.798 210.021H98.2658C98.2658 210.021 96.955 210.156 97.0831 207.138C97.2111 204.12 96.955 209.497 96.0344 210.021C95.1138 210.546 22.7939 210.021 22.7939 210.021" stroke="#263238" stroke-linecap="round" stroke-linejoin="round"/>
<path opacity="0.37" d="M136.712 283.784C151.417 283.784 163.337 278.871 163.337 272.81C163.337 266.749 151.417 261.836 136.712 261.836C122.008 261.836 110.088 266.749 110.088 272.81C110.088 278.871 122.008 283.784 136.712 283.784Z" fill="black"/>
<path d="M118.075 76.0866C118.075 76.0866 117.179 71.8555 114.228 71.8555C111.277 71.8555 110.503 75.1172 112.362 78.8424C114.222 82.5675 119.508 84.9026 119.819 82.726C120.129 80.5495 118.075 76.0866 118.075 76.0866Z" fill="white" stroke="#263238" stroke-linecap="round" stroke-linejoin="round"/>
<path d="M164.27 59.2109C164.27 59.2109 165.557 63.5092 164.27 67.5879C163.574 69.9055 162.483 72.0856 161.045 74.0322V61.7899L164.27 59.2109Z" fill="#263238" stroke="#263238" stroke-linecap="round" stroke-linejoin="round"/>
<path d="M125.129 261.093C125.129 261.093 120.483 268.3 116.063 271.787C111.643 275.274 112.344 276.896 115.6 277.597C118.855 278.298 123.733 277.366 126.757 274.342C128.565 272.54 130.129 270.508 131.409 268.3L131.287 269.982C131.285 270.022 131.295 270.061 131.315 270.095C131.336 270.129 131.366 270.156 131.402 270.173C131.437 270.19 131.477 270.196 131.517 270.19C131.556 270.185 131.592 270.167 131.622 270.141L135.128 266.904C135.847 264.964 135.929 262.845 135.359 260.856C134.433 257.374 128.854 256.905 125.129 261.093Z" fill="white" stroke="#263238" stroke-linecap="round" stroke-linejoin="round"/>
<path d="M119.502 276.42C115.386 276.639 113.716 275.743 113.063 275.158C112.649 276.426 113.673 277.182 115.606 277.596C118.861 278.291 123.739 277.365 126.763 274.341C128.571 272.539 130.135 270.508 131.415 268.299L131.293 269.982C131.291 270.021 131.301 270.06 131.321 270.094C131.342 270.128 131.372 270.155 131.408 270.172C131.444 270.189 131.484 270.195 131.523 270.189C131.562 270.184 131.599 270.167 131.628 270.14L135.134 266.903C135.604 265.669 135.799 264.348 135.707 263.031C134.359 264.33 132.049 266.573 130.445 268.171C128.068 270.573 125.531 276.103 119.502 276.42Z" fill="white" stroke="#263238" stroke-linecap="round" stroke-linejoin="round"/>
<path d="M149.662 261.092C149.662 261.092 154.314 268.298 158.728 271.786C163.142 275.273 162.447 276.895 159.198 277.596C155.948 278.297 151.059 277.364 148.035 274.34C146.229 272.537 144.667 270.506 143.389 268.298L143.505 269.981C143.506 270.021 143.496 270.06 143.476 270.094C143.455 270.128 143.425 270.155 143.39 270.172C143.354 270.189 143.314 270.195 143.275 270.189C143.235 270.183 143.199 270.166 143.169 270.14L139.67 266.914C138.946 264.975 138.865 262.855 139.438 260.866C140.371 257.373 145.943 256.903 149.662 261.092Z" fill="white" stroke="#263238" stroke-linecap="round" stroke-linejoin="round"/>
<path d="M155.192 276.578C149.796 274.993 147.577 271.499 145.992 269.439C144.596 267.61 140.133 264.165 139.078 263.342C139.038 264.554 139.245 265.761 139.688 266.89L143.187 270.127C143.217 270.154 143.253 270.171 143.293 270.177C143.332 270.183 143.372 270.177 143.408 270.16C143.443 270.143 143.473 270.116 143.494 270.082C143.514 270.048 143.524 270.009 143.523 269.969L143.407 268.286C144.685 270.494 146.247 272.525 148.053 274.328C151.101 277.377 155.978 278.279 159.216 277.584C161.276 277.139 162.301 276.322 161.654 274.901C160.857 275.779 159.821 276.405 158.673 276.703C157.525 277.001 156.315 276.957 155.192 276.578Z" fill="white" stroke="#263238" stroke-linecap="round" stroke-linejoin="round"/>
<path d="M137.322 168.055L111.637 165.549L112.1 166.939C112.1 166.939 115.148 193.674 117.679 206.459C120.209 219.244 122.099 224.59 122.099 224.59C121.989 227.335 122.302 230.08 123.025 232.73C124.19 236.449 124.422 245.533 125.348 250.166C126.275 254.8 125.818 257.373 125.818 257.373C125.818 257.373 123.257 260.159 123.489 260.854C123.638 261.384 123.716 261.931 123.721 262.482C123.721 262.482 125.117 266.201 128.836 266.201C132.555 266.201 135.81 263.183 135.81 263.183L136.737 186.083L137.347 186.041L137.926 186.083L138.859 263.183C138.859 263.183 142.114 266.201 145.833 266.201C149.553 266.201 150.943 262.482 150.943 262.482C150.947 261.931 151.027 261.383 151.18 260.854C151.412 260.159 148.851 257.373 148.851 257.373C148.851 257.373 148.388 254.812 149.321 250.166C150.254 245.521 150.479 236.449 151.644 232.73C152.365 230.08 152.676 227.335 152.564 224.59C152.564 224.59 154.424 219.244 156.984 206.459C159.545 193.674 162.563 166.927 162.563 166.927L163.026 165.537L137.322 168.055Z" fill="#263238"/>
<mask id="mask1_1504_69" style="mask-type:luminance" maskUnits="userSpaceOnUse" x="111" y="165" width="53" height="102">
<path d="M137.322 168.055L111.637 165.549L112.1 166.939C112.1 166.939 115.148 193.674 117.679 206.459C120.209 219.244 122.099 224.59 122.099 224.59C121.989 227.335 122.302 230.08 123.025 232.73C124.19 236.449 124.422 245.533 125.348 250.166C126.275 254.8 125.818 257.373 125.818 257.373C125.818 257.373 123.257 260.159 123.489 260.854C123.638 261.384 123.716 261.931 123.721 262.482C123.721 262.482 125.117 266.201 128.836 266.201C132.555 266.201 135.81 263.183 135.81 263.183L136.737 186.083L137.347 186.041L137.926 186.083L138.859 263.183C138.859 263.183 142.114 266.201 145.833 266.201C149.553 266.201 150.943 262.482 150.943 262.482C150.947 261.931 151.027 261.383 151.18 260.854C151.412 260.159 148.851 257.373 148.851 257.373C148.851 257.373 148.388 254.812 149.321 250.166C150.254 245.521 150.479 236.449 151.644 232.73C152.365 230.08 152.676 227.335 152.564 224.59C152.564 224.59 154.424 219.244 156.984 206.459C159.545 193.674 162.563 166.927 162.563 166.927L163.026 165.537L137.322 168.055Z" fill="white"/>
</mask>
<g mask="url(#mask1_1504_69)">
<path d="M148.394 235.82C145.26 241.198 141.279 247.557 137.847 251.599" stroke="#7D7D7D" stroke-linecap="round" stroke-linejoin="round"/>
<path d="M153.887 225.932C153.887 225.932 152.619 228.37 150.662 231.858" stroke="#7D7D7D" stroke-linecap="round" stroke-linejoin="round"/>
<path d="M156.606 231.113C156.606 231.113 150.68 247.648 137.603 255.549" stroke="#7D7D7D" stroke-linecap="round" stroke-linejoin="round"/>
<path d="M143.522 233.088C143.522 233.088 138.34 243.452 137.603 244.672" stroke="#7D7D7D" stroke-linecap="round" stroke-linejoin="round"/>
<path d="M119.087 225.193C119.087 225.193 127.013 240.246 137.603 241.728" stroke="#7D7D7D" stroke-linecap="round" stroke-linejoin="round"/>
<path d="M121.806 240.74C121.806 240.74 130.951 246.416 137.847 247.404" stroke="#7D7D7D" stroke-linecap="round" stroke-linejoin="round"/>
<path d="M131.226 260.029C133.27 260.78 135.447 261.102 137.621 260.974" stroke="#7D7D7D" stroke-linecap="round" stroke-linejoin="round"/>
<path d="M125.836 257.371C126.702 257.948 127.606 258.466 128.543 258.92" stroke="#7D7D7D" stroke-linecap="round" stroke-linejoin="round"/>
<path d="M131.677 254.311C133.206 255.876 135.194 256.914 137.353 257.274" stroke="#7D7D7D" stroke-linecap="round" stroke-linejoin="round"/>
<path d="M151.668 255.33C151.668 255.33 145.992 260.268 143.029 261.5" stroke="#7D7D7D" stroke-linecap="round" stroke-linejoin="round"/>
</g>
<path d="M137.322 168.055L111.637 165.549L112.1 166.939C112.1 166.939 115.148 193.674 117.679 206.459C120.209 219.244 122.099 224.59 122.099 224.59C121.989 227.335 122.302 230.08 123.025 232.73C124.19 236.449 124.422 245.533 125.348 250.166C126.275 254.8 125.818 257.373 125.818 257.373C125.818 257.373 123.257 260.159 123.489 260.854C123.638 261.384 123.716 261.931 123.721 262.482C123.721 262.482 125.117 266.201 128.836 266.201C132.555 266.201 135.81 263.183 135.81 263.183L136.737 186.083L137.347 186.041L137.926 186.083L138.859 263.183C138.859 263.183 142.114 266.201 145.833 266.201C149.553 266.201 150.943 262.482 150.943 262.482C150.947 261.931 151.027 261.383 151.18 260.854C151.412 260.159 148.851 257.373 148.851 257.373C148.851 257.373 148.388 254.812 149.321 250.166C150.254 245.521 150.479 236.449 151.644 232.73C152.365 230.08 152.676 227.335 152.564 224.59C152.564 224.59 154.424 219.244 156.984 206.459C159.545 193.674 162.563 166.927 162.563 166.927L163.026 165.537L137.322 168.055Z" stroke="#263238" stroke-linecap="round" stroke-linejoin="round"/>
<path d="M156.521 89.3043C156.521 89.3043 145.358 87.207 138.621 87.207C131.884 87.207 120.94 90.9261 120.94 90.9261L128.177 169.977C128.177 169.977 132.36 171.806 139.798 171.806C147.236 171.806 154.211 168.318 154.211 168.318L156.521 89.3043Z" fill="white" stroke="#263238" stroke-linecap="round" stroke-linejoin="round"/>
<path d="M140.322 117.947C148.386 117.947 154.924 111.503 154.924 103.553C154.924 95.6028 148.386 89.1582 140.322 89.1582C132.258 89.1582 125.72 95.6028 125.72 103.553C125.72 111.503 132.258 117.947 140.322 117.947Z" fill="white" stroke="#263238" stroke-linecap="round" stroke-linejoin="round"/>
<path d="M140.322 114.423C146.413 114.423 151.351 109.556 151.351 103.552C151.351 97.5485 146.413 92.6816 140.322 92.6816C134.231 92.6816 129.293 97.5485 129.293 103.552C129.293 109.556 134.231 114.423 140.322 114.423Z" fill="white" stroke="#263238" stroke-linecap="round" stroke-linejoin="round"/>
<path opacity="0.3" d="M122.459 94.1999C122.459 94.1999 121.184 120.599 138.676 125.367C156.168 130.134 163.801 103.741 161.575 95.7912C159.35 87.841 128.818 83.4025 122.459 94.1999Z" fill="black"/>
<path d="M140.322 107.679C147.817 107.679 153.893 102.812 153.893 96.808C153.893 90.8044 147.817 85.9375 140.322 85.9375C132.827 85.9375 126.75 90.8044 126.75 96.808C126.75 102.812 132.827 107.679 140.322 107.679Z" fill="#263238" stroke="#263238" stroke-linecap="round" stroke-linejoin="round"/>
<path d="M178.17 122.19C178.17 122.19 226.475 138.358 232.523 128.774C235.785 123.598 222.494 115.02 214.099 112.222C205.703 109.423 182.395 98.4062 182.395 98.4062" fill="#0F0742"/>
<mask id="mask2_1504_69" style="mask-type:luminance" maskUnits="userSpaceOnUse" x="178" y="98" width="56" height="34">
<path d="M178.17 122.19C178.17 122.19 226.475 138.358 232.523 128.774C235.785 123.598 222.494 115.02 214.099 112.222C205.703 109.423 182.395 98.4062 182.395 98.4062" fill="white"/>
</mask>
<g mask="url(#mask2_1504_69)">
<path opacity="0.3" d="M218.751 125.213C211.94 125.213 185.462 119.024 179.012 117.494L178.183 122.189C178.183 122.189 226.487 138.357 232.535 128.773C232.718 128.481 232.854 128.162 232.938 127.828C228.38 126.201 223.589 125.318 218.751 125.213Z" fill="black"/>
<path d="M186.754 113.318L180.81 123.451L186.754 117.824" stroke="#263238" stroke-linecap="round" stroke-linejoin="round"/>
</g>
<path d="M178.17 122.19C178.17 122.19 226.475 138.358 232.523 128.774C235.785 123.598 222.494 115.02 214.099 112.222C205.703 109.423 182.395 98.4062 182.395 98.4062" stroke="#263238" stroke-linecap="round" stroke-linejoin="round"/>
<path d="M182.578 115.045L169.068 176.244L148.564 181.371L150.272 136.17L153.375 95.6324L154.594 88.0176C154.594 88.0176 182.243 97.492 184.261 98.8942C186.279 100.296 185.48 108.039 185.48 108.039" fill="#0F0742"/>
<mask id="mask3_1504_69" style="mask-type:luminance" maskUnits="userSpaceOnUse" x="148" y="88" width="38" height="94">
<path d="M182.578 115.045L169.068 176.244L148.564 181.371L150.272 136.17L153.375 95.6324L154.594 88.0176C154.594 88.0176 182.243 97.492 184.261 98.8942C186.279 100.296 185.48 108.039 185.48 108.039" fill="white"/>
</mask>
<g mask="url(#mask3_1504_69)">
<path opacity="0.3" d="M180.829 122.971L158.588 165.227C158.588 165.227 163.191 147.955 162.904 145.943C162.739 144.773 155.588 149.022 149.644 152.802L148.564 181.372L169.068 176.244L180.829 122.971Z" fill="black"/>
<path opacity="0.3" d="M158.874 90.1089C158.874 90.1089 166.074 95.2851 165.208 106.802C164.343 118.319 161.751 116.593 161.751 116.593C161.751 116.593 163.483 119.178 161.751 119.471C160.02 119.764 156.874 114.289 156.264 115.728C155.655 117.166 152.234 118.892 152.234 118.892L153.356 95.6448C153.356 95.6448 154.271 89.4993 158.874 90.1089Z" fill="black"/>
<path d="M165.208 98.5293C165.208 98.5293 167.647 104.626 166.172 113.32" stroke="#263238" stroke-linecap="round" stroke-linejoin="round"/>
<path d="M167.946 107.857C167.946 107.857 169.068 110.266 165.208 119.917" stroke="#263238" stroke-linecap="round" stroke-linejoin="round"/>
<path d="M173.092 144.035C173.092 144.035 164.245 161.24 154.759 168.477" stroke="#263238" stroke-linecap="round" stroke-linejoin="round"/>
<path d="M162.477 153.039C162.477 153.039 161.35 154.972 156.222 159.002" stroke="#263238" stroke-linecap="round" stroke-linejoin="round"/>
</g>
<path d="M182.578 115.045L169.068 176.244L148.564 181.371L150.272 136.17L153.375 95.6324L154.594 88.0176C154.594 88.0176 182.243 97.492 184.261 98.8942C186.279 100.296 185.48 108.039 185.48 108.039" stroke="#263238" stroke-linecap="round" stroke-linejoin="round"/>
<path d="M157.259 87.5533C158.295 89.6328 158.878 91.908 158.972 94.2293C158.972 97.6496 159.124 106.039 159.899 109.922C160.673 113.806 163.161 118.305 162.386 118.153C161.612 118.001 160.679 115.976 158.661 113.647C156.643 111.319 156.021 107.587 154.93 108.368C153.839 109.148 151.827 115.824 151.827 115.824C151.827 115.824 152.138 101.844 152.601 96.5643C153.064 91.2845 154.156 84.2915 157.259 87.5533Z" fill="#0F0742"/>
<mask id="mask4_1504_69" style="mask-type:luminance" maskUnits="userSpaceOnUse" x="151" y="86" width="12" height="33">
<path d="M157.259 87.5533C158.295 89.6328 158.878 91.908 158.972 94.2293C158.972 97.6496 159.124 106.039 159.899 109.922C160.673 113.806 163.161 118.305 162.386 118.153C161.612 118.001 160.679 115.976 158.661 113.647C156.643 111.319 156.021 107.587 154.93 108.368C153.839 109.148 151.827 115.824 151.827 115.824C151.827 115.824 152.138 101.844 152.601 96.5643C153.064 91.2845 154.156 84.2915 157.259 87.5533Z" fill="white"/>
</mask>
<g mask="url(#mask4_1504_69)">
<path opacity="0.3" d="M157.259 87.5533C158.295 89.6328 158.878 91.908 158.972 94.2293C158.972 97.6496 159.124 106.039 159.899 109.922C160.673 113.806 163.161 118.305 162.386 118.153C161.612 118.001 160.679 115.976 158.661 113.647C156.643 111.319 156.021 107.587 154.93 108.368C153.839 109.148 151.827 115.824 151.827 115.824C151.827 115.824 152.138 101.844 152.601 96.5643C153.064 91.2845 154.156 84.2915 157.259 87.5533Z" fill="black"/>
</g>
<path d="M157.259 87.5533C158.295 89.6328 158.878 91.908 158.972 94.2293C158.972 97.6496 159.124 106.039 159.899 109.922C160.673 113.806 163.161 118.305 162.386 118.153C161.612 118.001 160.679 115.976 158.661 113.647C156.643 111.319 156.021 107.587 154.93 108.368C153.839 109.148 151.827 115.824 151.827 115.824C151.827 115.824 152.138 101.844 152.601 96.5643C153.064 91.2845 154.156 84.2915 157.259 87.5533Z" stroke="#263238" stroke-linecap="round" stroke-linejoin="round"/>
<path d="M94.675 101.082C94.675 101.082 75.3361 133.255 72.3243 139.912C69.3125 146.57 65.191 152.716 66.3007 155.441C67.4103 158.166 70.5684 160.196 76.7627 159.879C82.957 159.562 102.759 125.17 102.759 125.17L94.675 101.082Z" fill="#0F0742"/>
<mask id="mask5_1504_69" style="mask-type:luminance" maskUnits="userSpaceOnUse" x="66" y="101" width="37" height="59">
<path d="M94.675 101.082C94.675 101.082 75.3361 133.255 72.3243 139.912C69.3125 146.57 65.191 152.716 66.3007 155.441C67.4103 158.166 70.5684 160.196 76.7627 159.879C82.957 159.562 102.759 125.17 102.759 125.17L94.675 101.082Z" fill="white"/>
</mask>
<g mask="url(#mask5_1504_69)">
<path opacity="0.3" d="M86.6097 150.241C92.3346 142.517 98.5777 132.225 101.321 127.598L98.1326 119.166L79.4033 153.71L86.6097 150.241Z" fill="black"/>
<path d="M91.7188 115.41L100.084 130.042L91.0786 122.812" stroke="#263238" stroke-linecap="round" stroke-linejoin="round"/>
<path d="M76.6045 141.932C76.6045 141.932 82.7013 144.98 85.2863 150.778" stroke="#263238" stroke-linecap="round" stroke-linejoin="round"/>
<path d="M81.9087 141.461C81.9087 141.461 84.6461 144.68 85.6094 148.216" stroke="#263238" stroke-linecap="round" stroke-linejoin="round"/>
</g>
<path d="M94.675 101.082C94.675 101.082 75.3361 133.255 72.3243 139.912C69.3125 146.57 65.191 152.716 66.3007 155.441C67.4103 158.166 70.5684 160.196 76.7627 159.879C82.957 159.562 102.759 125.17 102.759 125.17L94.675 101.082Z" stroke="#263238" stroke-linecap="round" stroke-linejoin="round"/>
<path d="M96.9863 115.045L110.497 176.244L130.994 181.371L129.287 136.17L126.184 95.6324L124.964 88.0176C124.964 88.0176 97.2973 97.492 95.2549 98.8942C93.2124 100.296 94.0355 108.039 94.0355 108.039" fill="#0F0742"/>
<mask id="mask6_1504_69" style="mask-type:luminance" maskUnits="userSpaceOnUse" x="93" y="88" width="38" height="94">
<path d="M96.9863 115.045L110.497 176.244L130.994 181.371L129.287 136.17L126.184 95.6324L124.964 88.0176C124.964 88.0176 97.2973 97.492 95.2549 98.8942C93.2124 100.296 94.0355 108.039 94.0355 108.039" fill="white"/>
</mask>
<g mask="url(#mask6_1504_69)">
<path opacity="0.3" d="M110.497 176.243L131 181.371L130.147 158.715L103.394 144.059L110.497 176.243Z" fill="black"/>
<path d="M106.839 145.486C106.839 145.486 112.326 152.723 118.423 156.899" stroke="#263238" stroke-linecap="round" stroke-linejoin="round"/>
<path opacity="0.3" d="M120.587 110.838C120.587 110.838 116.85 118.325 118.862 118.612C120.874 118.898 122.648 111.021 125.196 113.429L127.739 115.868L125.483 101.65C123.081 104.236 121.394 107.402 120.587 110.838Z" fill="black"/>
<path d="M119.38 90.9688C119.38 90.9688 115.356 102.553 116.484 112.356" stroke="#263238" stroke-linecap="round" stroke-linejoin="round"/>
<path d="M114.716 97.5586C114.716 97.5586 112.783 107.691 114.874 113.319" stroke="#263238" stroke-linecap="round" stroke-linejoin="round"/>
</g>
<path d="M96.9863 115.045L110.497 176.244L130.994 181.371L129.287 136.17L126.184 95.6324L124.964 88.0176C124.964 88.0176 97.2973 97.492 95.2549 98.8942C93.2124 100.296 94.0355 108.039 94.0355 108.039" stroke="#263238" stroke-linecap="round" stroke-linejoin="round"/>
<path d="M122.306 87.5533C121.273 89.6336 120.691 91.9086 120.599 94.2293C120.599 97.6496 120.44 106.039 119.666 109.922C118.892 113.806 116.404 118.305 117.203 118.153C118.002 118.001 118.91 115.976 120.928 113.647C122.946 111.319 123.574 107.587 124.659 108.368C125.745 109.148 127.763 115.824 127.763 115.824C127.763 115.824 127.452 101.844 126.988 96.5643C126.525 91.2845 125.409 84.2915 122.306 87.5533Z" fill="#0F0742"/>
<mask id="mask7_1504_69" style="mask-type:luminance" maskUnits="userSpaceOnUse" x="117" y="86" width="11" height="33">
<path d="M122.306 87.5533C121.273 89.6336 120.691 91.9086 120.599 94.2293C120.599 97.6496 120.44 106.039 119.666 109.922C118.892 113.806 116.404 118.305 117.203 118.153C118.002 118.001 118.91 115.976 120.928 113.647C122.946 111.319 123.574 107.587 124.659 108.368C125.745 109.148 127.763 115.824 127.763 115.824C127.763 115.824 127.452 101.844 126.988 96.5643C126.525 91.2845 125.409 84.2915 122.306 87.5533Z" fill="white"/>
</mask>
<g mask="url(#mask7_1504_69)">
<path opacity="0.3" d="M123.41 94.1992C123.41 94.1992 121.55 100.381 123.092 104.375C124.635 108.368 127.543 114.233 127.543 114.233L126.933 96.5526" fill="black"/>
</g>
<path d="M122.306 87.5533C121.273 89.6336 120.691 91.9086 120.599 94.2293C120.599 97.6496 120.44 106.039 119.666 109.922C118.892 113.806 116.404 118.305 117.203 118.153C118.002 118.001 118.91 115.976 120.928 113.647C122.946 111.319 123.574 107.587 124.659 108.368C125.745 109.148 127.763 115.824 127.763 115.824C127.763 115.824 127.452 101.844 126.988 96.5643C126.525 91.2845 125.409 84.2915 122.306 87.5533Z" stroke="#263238" stroke-linecap="round" stroke-linejoin="round"/>
<path d="M117.672 65.0075C117.672 65.0075 117.672 78.3228 119.392 86.0535C121.111 93.7842 124.543 100.222 133.347 103.874C142.151 107.526 152.674 102.801 157.186 97.2167C161.697 91.632 161.264 75.9633 161.264 72.5248C161.264 69.0862 161.478 58.1364 161.478 58.1364C161.478 58.1364 159.758 52.9846 152.241 48.0401C144.724 43.0957 137.213 40.724 127.763 46.5342C118.313 52.3445 117.672 65.0075 117.672 65.0075Z" fill="white" stroke="#263238" stroke-linecap="round" stroke-linejoin="round"/>
<path d="M147.992 78.963L152.839 78.8105" stroke="#263238" stroke-linecap="round" stroke-linejoin="round"/>
<path d="M144.358 91.164C144.358 91.164 145.071 88.6155 148.839 88.0059" stroke="#263238" stroke-linecap="round" stroke-linejoin="round"/>
<path d="M140.572 79.4141V82.749C140.988 83.0726 141.326 83.4855 141.561 83.9572C141.797 84.4288 141.923 84.9472 141.932 85.4742C142.084 87.4435 140.304 88.4861 138.621 87.2057" fill="white"/>
<path d="M140.572 79.4141V82.749C140.988 83.0726 141.326 83.4855 141.561 83.9572C141.797 84.4288 141.923 84.9472 141.932 85.4742C142.084 87.4435 140.304 88.4861 138.621 87.2057" stroke="#263238" stroke-linecap="round" stroke-linejoin="round"/>
<path d="M130.214 77.5183H129.701C129.297 77.5183 128.91 77.3577 128.624 77.0719C128.338 76.7861 128.177 76.3984 128.177 75.9941H131.738C131.738 76.3984 131.577 76.7861 131.291 77.0719C131.005 77.3577 130.618 77.5183 130.214 77.5183Z" fill="#263238"/>
<path d="M126.647 75.8906H133.366" stroke="#263238" stroke-linecap="round" stroke-linejoin="round"/>
<path d="M126.647 77.1348H133.366" stroke="#263238" stroke-linecap="round" stroke-linejoin="round"/>
<path d="M151.077 75.788C151.077 76.9159 150.601 77.8244 150.01 77.8244C149.418 77.8244 148.943 76.9159 148.943 75.788C148.943 74.6601 149.418 73.7578 150.01 73.7578C150.601 73.7578 151.077 74.6662 151.077 75.788Z" fill="#263238"/>
<path d="M143.121 69.8493C143.121 69.8493 147.157 67.5204 157.253 68.9165" stroke="#263238" stroke-width="3" stroke-linecap="round" stroke-linejoin="round"/>
<path d="M135.664 68.606C134.408 66.5856 132.675 64.9053 130.616 63.7133C128.558 62.5214 126.238 61.8545 123.86 61.7715" stroke="#263238" stroke-width="3" stroke-linecap="round" stroke-linejoin="round"/>
<path d="M168.135 44.3828C165.343 38.5847 155.466 29.5676 145.37 29.1408C136.737 28.7689 133.786 32.0185 133.085 32.9635C132.707 32.6891 126.915 28.6958 117.105 33.5732C117.046 33.6052 116.999 33.656 116.972 33.7177C116.944 33.7794 116.938 33.8484 116.954 33.9139C116.97 33.9795 117.007 34.0378 117.06 34.0799C117.113 34.1219 117.178 34.1453 117.246 34.1463C117.292 34.1479 117.338 34.1374 117.38 34.1158C124.604 30.5004 129.64 31.9392 131.695 32.8964C130.378 32.6709 128 32.5855 124.543 33.6463C118.959 35.3656 112.96 41.1637 111.448 51.2538C109.936 61.344 114.667 69.9343 116.386 71.6536C118.105 73.3729 118.319 77.0248 118.319 77.0248L117.886 65.8556C117.886 65.8556 117.672 64.9959 120.251 63.2827C122.373 61.8622 131.658 52.4122 134.841 49.1443C135.414 52.1927 136.975 58.1675 140.858 62.2036C140.917 62.262 140.996 62.2949 141.078 62.2951C141.117 62.2963 141.157 62.2894 141.194 62.2747C141.23 62.26 141.264 62.2379 141.291 62.2097C141.32 62.1819 141.342 62.1487 141.358 62.112C141.373 62.0754 141.381 62.0361 141.381 61.9963C141.381 61.9566 141.373 61.9172 141.358 61.8806C141.342 61.8439 141.32 61.8107 141.291 61.7829C137.322 57.6493 135.847 51.4184 135.359 48.6078L135.92 48.0347C135.92 48.0347 138.493 55.1192 142.791 58.7711C147.089 62.4231 152.668 65.4288 161.472 62.6365C170.275 59.8442 173.494 55.7654 173.494 55.7654C173.494 55.7654 170.928 50.193 168.135 44.3828Z" fill="#263238"/>
<mask id="mask8_1504_69" style="mask-type:luminance" maskUnits="userSpaceOnUse" x="111" y="29" width="63" height="49">
<path d="M168.135 44.3828C165.343 38.5847 155.466 29.5676 145.37 29.1408C136.737 28.7689 133.786 32.0185 133.085 32.9635C132.707 32.6891 126.915 28.6958 117.105 33.5732C117.046 33.6052 116.999 33.656 116.972 33.7177C116.944 33.7794 116.938 33.8484 116.954 33.9139C116.97 33.9795 117.007 34.0378 117.06 34.0799C117.113 34.1219 117.178 34.1453 117.246 34.1463C117.292 34.1479 117.338 34.1374 117.38 34.1158C124.604 30.5004 129.64 31.9392 131.695 32.8964C130.378 32.6709 128 32.5855 124.543 33.6463C118.959 35.3656 112.96 41.1637 111.448 51.2538C109.936 61.344 114.667 69.9343 116.386 71.6536C118.105 73.3729 118.319 77.0248 118.319 77.0248L117.886 65.8556C117.886 65.8556 117.672 64.9959 120.251 63.2827C122.373 61.8622 131.658 52.4122 134.841 49.1443C135.414 52.1927 136.975 58.1675 140.858 62.2036C140.917 62.262 140.996 62.2949 141.078 62.2951C141.117 62.2963 141.157 62.2894 141.194 62.2747C141.23 62.26 141.264 62.2379 141.291 62.2097C141.32 62.1819 141.342 62.1487 141.358 62.112C141.373 62.0754 141.381 62.0361 141.381 61.9963C141.381 61.9566 141.373 61.9172 141.358 61.8806C141.342 61.8439 141.32 61.8107 141.291 61.7829C137.322 57.6493 135.847 51.4184 135.359 48.6078L135.92 48.0347C135.92 48.0347 138.493 55.1192 142.791 58.7711C147.089 62.4231 152.668 65.4288 161.472 62.6365C170.275 59.8442 173.494 55.7654 173.494 55.7654C173.494 55.7654 170.928 50.193 168.135 44.3828Z" fill="white"/>
</mask>
<g mask="url(#mask8_1504_69)">
<path d="M158.179 55.1142C172.738 57.1261 175.427 54.1387 175.427 54.1387" stroke="#7D7D7D" stroke-linecap="round" stroke-linejoin="round"/>
<path d="M136.712 39.2012C136.712 39.2012 141.322 49.5657 152.332 53.681" stroke="#7D7D7D" stroke-linecap="round" stroke-linejoin="round"/>
<path d="M136.408 35.543C136.408 35.543 154.088 43.7614 161.1 44.0784C168.111 44.3955 169.025 42.8591 169.025 42.8591" stroke="#7D7D7D" stroke-linecap="round" stroke-linejoin="round"/>
<path d="M133.054 39.8105C133.054 39.8105 119.946 46.8218 116.288 54.7476C112.63 62.6734 114.154 68.1605 114.154 68.1605" stroke="#7D7D7D" stroke-linecap="round" stroke-linejoin="round"/>
<path d="M116.27 41.8711C115.393 42.533 114.577 43.2716 113.832 44.0781" stroke="#7D7D7D" stroke-linecap="round" stroke-linejoin="round"/>
<path d="M131.835 37.3727C127.22 37.161 122.633 38.1972 118.557 40.3723" stroke="#7D7D7D" stroke-linecap="round" stroke-linejoin="round"/>
</g>
<path d="M137.407 73.2389C134.451 71.9136 131.249 71.2285 128.009 71.2285C124.77 71.2285 121.567 71.9136 118.611 73.2389C118.611 73.2389 116.825 73.4157 116.825 74.8484C116.825 76.2812 118.075 76.0983 118.075 76.0983C118.075 76.0983 118.318 82.8718 121.123 84.8715C123.629 86.664 129.183 87.2005 132.042 86.1275C134.902 85.0544 136.7 83.0791 137.237 81.2927C137.773 79.5064 137.407 73.2389 137.407 73.2389Z" stroke="#263238" stroke-width="3" stroke-linecap="round" stroke-linejoin="round"/>
<path d="M141.645 73.2387C144.6 71.9136 147.802 71.2285 151.04 71.2285C154.278 71.2285 157.48 71.9136 160.435 73.2387C160.435 73.2387 162.228 73.4155 162.228 74.8482C162.228 76.281 160.978 76.0859 160.978 76.0859C160.978 76.0859 160.734 82.8594 157.929 84.8591C155.424 86.6516 149.876 87.1881 147.01 86.1151C144.145 85.042 142.358 83.0667 141.822 81.2803C141.285 79.494 141.645 73.2387 141.645 73.2387Z" stroke="#263238" stroke-width="3" stroke-linecap="round" stroke-linejoin="round"/>
<path d="M137.408 73.2392C138.777 72.6885 140.306 72.6885 141.675 73.2392" stroke="#263238" stroke-width="3" stroke-linecap="round" stroke-linejoin="round"/>
<path d="M137.944 75.9219H140.987" stroke="#263238" stroke-width="3" stroke-linecap="round" stroke-linejoin="round"/>
<path d="M159.88 76.0866C159.88 76.0866 160.783 71.8555 163.734 71.8555C166.684 71.8555 167.459 75.1172 165.593 78.8424C163.727 82.5675 158.448 84.9026 158.143 82.726C157.838 80.5495 159.88 76.0866 159.88 76.0866Z" stroke="#263238" stroke-linecap="round" stroke-linejoin="round"/>
<path d="M172.476 69.6899C172.476 69.6899 164.398 69.8484 159.582 69.379C154.765 68.9095 158.362 73.037 160.435 73.2382C162.935 73.5405 165.454 73.6526 167.971 73.5736C169.827 73.5035 171.677 73.8212 173.403 74.5064C173.403 74.5064 176.049 71.5555 172.476 69.6899Z" fill="white" stroke="#263238" stroke-linecap="round" stroke-linejoin="round"/>
<path d="M167.501 84.6219C165.955 82.7433 164.602 80.7128 163.465 78.5617C161.91 75.4585 161.447 74.0623 164.398 74.3671C167.349 74.672 168.592 77.4765 169.367 79.8055C170.141 82.1344 172.007 82.1344 172.007 82.1344L174.647 74.5257L179.932 79.1836L175.122 95.4742C175.122 95.4742 168.599 92.2124 167.666 90.8162C166.733 89.4201 167.66 85.8413 167.501 84.6219Z" fill="white" stroke="#263238" stroke-linecap="round" stroke-linejoin="round"/>
<path d="M182.103 74.6588C182.103 74.6588 181.64 72.1775 179.463 71.708C177.287 71.2386 173.562 68.6048 172.318 69.0681C171.074 69.5315 168.745 76.9939 168.745 78.2133C168.745 79.4326 170.141 80.7007 170.611 80.7007C171.08 80.7007 175.122 73.5736 175.122 73.5736L182.103 74.6588Z" fill="white" stroke="#263238" stroke-linecap="round" stroke-linejoin="round"/>
<path d="M182.261 76.5241C182.261 76.5241 183.036 74.817 182.261 74.0427C181.487 73.2684 176.512 71.7077 174.805 71.3967C173.098 71.0858 172.787 71.7077 171.854 74.0427C170.921 76.3778 168.903 79.6335 169.836 80.4077C170.769 81.182 172.007 82.1148 172.007 82.1148L175.268 75.4389L182.261 76.5241Z" fill="white" stroke="#263238" stroke-linecap="round" stroke-linejoin="round"/>
<path d="M174.647 84.1408C174.647 84.1408 171.543 82.9215 171.074 81.9643C170.604 81.0071 173.714 73.2642 174.183 73.1117C174.653 72.9593 176.665 73.5751 177.287 73.886C177.908 74.197 182.725 74.9713 183.036 76.9954C183.347 79.0195 180.085 90.5058 180.396 91.7496C180.707 92.9933 183.194 94.3895 183.194 94.3895L179.463 100.755C179.463 100.755 173.561 95.6332 171.385 94.5419C169.208 93.4506 172.165 89.884 172.94 88.0184C173.714 86.1527 174.647 84.1408 174.647 84.1408Z" fill="white" stroke="#263238" stroke-linecap="round" stroke-linejoin="round"/>
<path d="M174.647 84.1398L176.824 80.0977" stroke="#263238" stroke-linecap="round" stroke-linejoin="round"/>
<path d="M175.269 79.9453L178.219 80.2562" stroke="#263238" stroke-linecap="round" stroke-linejoin="round"/>
<path d="M182.262 92.9922L176.049 99.3572L181.951 104.637L187.694 96.0955L182.262 92.9922Z" fill="#0F0742" stroke="#263238" stroke-linecap="round" stroke-linejoin="round"/>
<path d="M220.342 129.474C219.123 129.164 194.065 116.287 191.114 114.422C188.163 112.556 181.17 108.367 181.17 106.191C181.17 104.014 187.231 95.1618 187.231 95.1618C187.231 95.1618 188.785 92.8329 191.267 94.229C193.748 95.6252 216.928 110.367 222.83 113.477C228.731 116.586 233.237 118.915 233.548 124.969C233.859 131.023 228.731 132.114 225.317 131.675" fill="#0F0742"/>
<mask id="mask9_1504_69" style="mask-type:luminance" maskUnits="userSpaceOnUse" x="181" y="93" width="53" height="39">
<path d="M220.342 129.474C219.123 129.164 194.065 116.287 191.114 114.422C188.163 112.556 181.17 108.367 181.17 106.191C181.17 104.014 187.231 95.1618 187.231 95.1618C187.231 95.1618 188.785 92.8329 191.267 94.229C193.748 95.6252 216.928 110.367 222.83 113.477C228.731 116.586 233.237 118.915 233.548 124.969C233.859 131.023 228.731 132.114 225.317 131.675" fill="white"/>
</mask>
<g mask="url(#mask9_1504_69)">
<path opacity="0.3" d="M215.172 120.335C206.826 118.713 192.193 114.049 188.73 112.921C189.639 113.531 190.474 114.018 191.114 114.421C194.065 116.286 219.098 129.163 220.342 129.474L225.317 131.65C228.731 132.114 233.853 131.041 233.548 124.944C233.243 118.847 228.731 116.555 222.83 113.451C219.33 111.622 209.746 105.672 202.015 100.855C211.197 107.391 224.342 117.012 224.683 118.725C225.214 121.389 224.683 122.182 215.172 120.335Z" fill="black"/>
</g>
<path d="M220.342 129.474C219.123 129.164 194.065 116.287 191.114 114.422C188.163 112.556 181.17 108.367 181.17 106.191C181.17 104.014 187.231 95.1618 187.231 95.1618C187.231 95.1618 188.785 92.8329 191.267 94.229C193.748 95.6252 216.928 110.367 222.83 113.477C228.731 116.586 233.237 118.915 233.548 124.969C233.859 131.023 228.731 132.114 225.317 131.675" stroke="#263238" stroke-linecap="round" stroke-linejoin="round"/>
<path d="M172.94 124.988L156.479 128.25L157.1 132.597L166.264 134.304L172.318 128.872L172.94 124.988Z" stroke="#263238" stroke-linecap="round" stroke-linejoin="round"/>
<path d="M77.5739 148.449C78.7175 148.206 79.8994 148.206 81.043 148.449C82.1867 148.691 83.2668 149.171 84.2132 149.858C87.7006 152.236 96.2605 157.174 103.394 159.686C110.527 162.198 111.63 162.381 110.71 166.819C109.789 171.257 106.588 177.598 103.583 178.403C100.577 179.208 94.3887 174.599 84.8778 169.526C75.3668 164.453 66.807 161.442 65.8559 157.637C64.9048 153.833 69.0262 147.34 69.0262 147.34" fill="#0F0742"/>
<mask id="mask10_1504_69" style="mask-type:luminance" maskUnits="userSpaceOnUse" x="65" y="147" width="46" height="32">
<path d="M77.5739 148.449C78.7175 148.206 79.8994 148.206 81.043 148.449C82.1867 148.691 83.2668 149.171 84.2132 149.858C87.7006 152.236 96.2605 157.174 103.394 159.686C110.527 162.198 111.63 162.381 110.71 166.819C109.789 171.257 106.588 177.598 103.583 178.403C100.577 179.208 94.3887 174.599 84.8778 169.526C75.3668 164.453 66.807 161.442 65.8559 157.637C64.9048 153.833 69.0262 147.34 69.0262 147.34" fill="white"/>
</mask>
<g mask="url(#mask10_1504_69)">
<path opacity="0.3" d="M103.394 159.703L102.565 159.398L107.924 162.636C107.924 162.636 101.876 162.636 101.016 167.245C100.157 171.854 103.028 174.439 101.303 175.012C99.5775 175.585 76.5439 164.648 76.5439 164.648L77.2938 165.721C79.6472 166.873 82.2078 168.117 84.8477 169.525C94.3587 174.598 100.541 179.195 103.553 178.402C106.564 177.609 109.729 171.269 110.68 166.818C111.631 162.368 110.497 162.24 103.394 159.703Z" fill="black"/>
</g>
<path d="M77.5739 148.449C78.7175 148.206 79.8994 148.206 81.043 148.449C82.1867 148.691 83.2668 149.171 84.2132 149.858C87.7006 152.236 96.2605 157.174 103.394 159.686C110.527 162.198 111.63 162.381 110.71 166.819C109.789 171.257 106.588 177.598 103.583 178.403C100.577 179.208 94.3887 174.599 84.8778 169.526C75.3668 164.453 66.807 161.442 65.8559 157.637C64.9048 153.833 69.0262 147.34 69.0262 147.34" stroke="#263238" stroke-linecap="round" stroke-linejoin="round"/>
<path d="M145.553 164.142C145.553 164.142 148.876 164.751 151.253 164.142C153.631 163.532 153.79 164.751 152.68 166.836C151.57 168.921 148.876 169.848 147.138 169.69C145.4 169.531 142.7 165.885 145.553 164.142Z" fill="white" stroke="#263238" stroke-linecap="round" stroke-linejoin="round"/>
<path d="M116.069 170.007C116.069 170.007 120.19 169.056 121.775 167.947C123.36 166.837 135.883 158.436 137.468 158.436C139.054 158.436 149.662 166.678 149.827 167.312C149.991 167.947 146.821 171.909 145.87 172.702C144.919 173.495 141.114 178.25 140.163 179.201C139.212 180.152 135.566 181.896 134.457 182.213C133.347 182.53 131.762 181.603 132.079 180.469C132.396 179.335 132.689 178.409 132.689 178.409C132.689 178.409 126.665 181.42 123.495 180.628C120.324 179.835 112.874 176.031 112.874 176.031L116.069 170.007Z" fill="white" stroke="#263238" stroke-linecap="round" stroke-linejoin="round"/>
<path d="M132.713 170.641C132.713 170.641 140.322 177.298 140.163 179.176L132.713 170.641Z" fill="white"/>
<path d="M132.713 170.641C132.713 170.641 140.322 177.298 140.163 179.176" stroke="#263238" stroke-linecap="round" stroke-linejoin="round"/>
<path d="M134.774 165.41L143.651 174.763" stroke="#263238" stroke-linecap="round" stroke-linejoin="round"/>
<path d="M137.786 160.971L146.98 171.116" stroke="#263238" stroke-linecap="round" stroke-linejoin="round"/>
<path d="M132.713 178.408C132.713 178.408 135.408 177.457 135.091 179.018L132.713 178.408Z" fill="white"/>
<path d="M132.713 178.408C132.713 178.408 135.408 177.457 135.091 179.018" stroke="#263238" stroke-linecap="round" stroke-linejoin="round"/>
<path d="M108.619 165.568L117.154 169.056L112.716 179.042L104.18 174.921C104.18 174.921 103.87 168.897 108.619 165.568Z" fill="#0F0742" stroke="#263238" stroke-linecap="round" stroke-linejoin="round"/>
</svg>
