<svg width="24" height="24" viewBox="0 0 24 24" fill="none" xmlns="http://www.w3.org/2000/svg">
<g clip-path="url(#clip0_2270_7775)">
<path d="M10.0834 21C9.85841 21 9.66341 20.925 9.49841 20.775C9.33341 20.625 9.23591 20.4375 9.20591 20.2125L8.93591 18.12C8.74091 18.045 8.55716 17.955 8.38466 17.85C8.21216 17.745 8.04341 17.6325 7.87841 17.5125L5.92091 18.3225C5.71091 18.4125 5.50091 18.4237 5.29091 18.3562C5.08091 18.2887 4.91591 18.1575 4.79591 17.9625L3.13091 15.06C3.01091 14.865 2.97341 14.655 3.01841 14.43C3.06341 14.205 3.17591 14.025 3.35591 13.89L5.04341 12.6075C5.02841 12.5025 5.02091 12.4013 5.02091 12.3038V11.6963C5.02091 11.5988 5.02841 11.4975 5.04341 11.3925L3.35591 10.11C3.17591 9.975 3.06341 9.795 3.01841 9.57C2.97341 9.345 3.01091 9.135 3.13091 8.94L4.79591 6.0375C4.91591 5.8425 5.08091 5.71125 5.29091 5.64375C5.50091 5.57625 5.71091 5.5875 5.92091 5.6775L7.87841 6.4875C8.04341 6.3675 8.21591 6.255 8.39591 6.15C8.57591 6.045 8.75591 5.955 8.93591 5.88L9.20591 3.7875C9.23591 3.5625 9.33341 3.375 9.49841 3.225C9.66341 3.075 9.85841 3 10.0834 3H13.4584C13.6834 3 13.8784 3.075 14.0434 3.225C14.2084 3.375 14.3059 3.5625 14.3359 3.7875L14.6059 5.88C14.8009 5.955 14.9847 6.045 15.1572 6.15C15.3297 6.255 15.4984 6.3675 15.6634 6.4875L17.6209 5.6775C17.8309 5.5875 18.0409 5.57625 18.2509 5.64375C18.4609 5.71125 18.6259 5.8425 18.7459 6.0375L20.4109 8.94C20.5309 9.135 20.5684 9.345 20.5234 9.57C20.4784 9.795 20.3659 9.975 20.1859 10.11L18.4984 11.3925C18.5134 11.4975 18.5209 11.5988 18.5209 11.6963V12.3038C18.5209 12.4013 18.5059 12.5025 18.4759 12.6075L20.1634 13.89C20.3434 14.025 20.4559 14.205 20.5009 14.43C20.5459 14.655 20.5084 14.865 20.3884 15.06L18.7234 17.94C18.6034 18.135 18.4347 18.27 18.2172 18.345C17.9997 18.42 17.7859 18.4125 17.5759 18.3225L15.6634 17.5125C15.4984 17.6325 15.3259 17.745 15.1459 17.85C14.9659 17.955 14.7859 18.045 14.6059 18.12L14.3359 20.2125C14.3059 20.4375 14.2084 20.625 14.0434 20.775C13.8784 20.925 13.6834 21 13.4584 21H10.0834ZM11.8159 15.15C12.6859 15.15 13.4284 14.8425 14.0434 14.2275C14.6584 13.6125 14.9659 12.87 14.9659 12C14.9659 11.13 14.6584 10.3875 14.0434 9.7725C13.4284 9.1575 12.6859 8.85 11.8159 8.85C10.9309 8.85 10.1847 9.1575 9.57716 9.7725C8.96966 10.3875 8.66591 11.13 8.66591 12C8.66591 12.87 8.96966 13.6125 9.57716 14.2275C10.1847 14.8425 10.9309 15.15 11.8159 15.15Z" fill="#2B2B2B"/>
</g>
<defs>
<clipPath id="clip0_2270_7775">
<rect width="24" height="24" fill="white"/>
</clipPath>
</defs>
</svg>
