<svg width="40" height="40" viewBox="0 0 40 40" fill="none" xmlns="http://www.w3.org/2000/svg">
<path d="M28.5909 11.8867H11.4091C10.9028 11.8867 10.4172 12.0879 10.0592 12.4459C9.70114 12.8039 9.5 13.2895 9.5 13.7958V26.2049C9.5 26.7112 9.70114 27.1968 10.0592 27.5548C10.4172 27.9129 10.9028 28.114 11.4091 28.114H28.5909C29.0972 28.114 29.5828 27.9129 29.9408 27.5548C30.2989 27.1968 30.5 26.7112 30.5 26.2049V13.7958C30.5 13.2895 30.2989 12.8039 29.9408 12.4459C29.5828 12.0879 29.0972 11.8867 28.5909 11.8867ZM11.4091 26.2049V13.7958H19.0455V26.2049H11.4091ZM28.5909 26.2049H20.9545V13.7958H28.5909V26.2049ZM21.9091 17.1367H27.6364V18.5685H21.9091V17.1367ZM21.9091 19.5231H27.6364V20.9549H21.9091V19.5231ZM21.9091 21.9094H27.6364V23.3413H21.9091V21.9094Z" fill="#1F1F1F"/>
</svg>
