<svg xmlns="http://www.w3.org/2000/svg" width="270" height="74.439" viewBox="0 0 270 74.439">
  <g id="Scala_Logo_Cmp._Colorido" data-name="Scala Logo Cmp. Colorido" transform="translate(14393 11180.18)">
    <g id="Logo_Colorido" data-name="Logo Colorido" transform="translate(-14393 -11180.18)">
      <path id="Caminho_1228" data-name="Caminho 1228" d="M129.1,3126.019a.339.339,0,1,0,.664,0v-1.991a.339.339,0,1,0-.664,0Z" transform="translate(-104.093 -3082.215)" fill="#0f0742"/>
      <path id="Caminho_1229" data-name="Caminho 1229" d="M81.184,3143.684a.459.459,0,1,0,.9,0v-2.146a.459.459,0,1,0-.9,0Z" transform="translate(-65.454 -3096.219)" fill="#0f0742"/>
      <path id="Caminho_1230" data-name="Caminho 1230" d="M34.28,3163.453a.568.568,0,1,0,1.114,0v-2.283a.568.568,0,1,0-1.114,0Z" transform="translate(-27.641 -3111.943)" fill="#0f0742"/>
      <path id="Caminho_1231" data-name="Caminho 1231" d="M5.13,3201.88a.747.747,0,0,0,.664.81.746.746,0,0,0,.662-.81v-2.431a.747.747,0,0,0-.662-.81.748.748,0,0,0-.664.81Z" transform="translate(-4.136 -3142.704)" fill="#0f0742"/>
      <path id="Caminho_1232" data-name="Caminho 1232" d="M34.47,3239.677a.788.788,0,1,0,1.549,0v-2.564a.788.788,0,1,0-1.549,0Z" transform="translate(-27.794 -3172.974)" fill="#0f0742"/>
      <path id="Caminho_1233" data-name="Caminho 1233" d="M80.9,3258.049a.88.88,0,1,0,1.726,0v-2.7a.88.88,0,1,0-1.726,0Z" transform="translate(-65.232 -3187.584)" fill="#0f0742"/>
      <path id="Caminho_1234" data-name="Caminho 1234" d="M130.2,3267.187a.985.985,0,1,0,1.937,0v-2.825a.985.985,0,1,0-1.937,0Z" transform="translate(-104.984 -3194.76)" fill="#0f0742"/>
      <path id="Caminho_1235" data-name="Caminho 1235" d="M180.36,3269.879a1.077,1.077,0,1,0,2.111,0v-2.953a1.076,1.076,0,1,0-2.111,0Z" transform="translate(-145.43 -3196.728)" fill="#0f0742"/>
      <path id="Caminho_1236" data-name="Caminho 1236" d="M230.63,3267.048a1.167,1.167,0,1,0,2.289,0v-3.072a1.167,1.167,0,1,0-2.289,0Z" transform="translate(-185.964 -3194.261)" fill="#0f0742"/>
      <path id="Caminho_1237" data-name="Caminho 1237" d="M280.27,3258.149a1.255,1.255,0,1,0,2.462,0v-3.188a1.255,1.255,0,1,0-2.462,0Z" transform="translate(-225.99 -3186.907)" fill="#0f0742"/>
      <path id="Caminho_1238" data-name="Caminho 1238" d="M327.72,3240.9a1.343,1.343,0,1,0,2.634,0v-3.3a1.343,1.343,0,1,0-2.634,0Z" transform="translate(-264.25 -3172.82)" fill="#0f0742"/>
      <path id="Caminho_1239" data-name="Caminho 1239" d="M364.45,3207.18a1.431,1.431,0,1,0,2.806,0v-3.42a1.431,1.431,0,1,0-2.806,0Z" transform="translate(-293.867 -3145.647)" fill="#0f0742"/>
      <path id="Caminho_1240" data-name="Caminho 1240" d="M346.73,3163a1.509,1.509,0,1,0,2.961,0v-3.513a1.51,1.51,0,1,0-2.961,0Z" transform="translate(-279.579 -3109.87)" fill="#0f0742"/>
      <path id="Caminho_1241" data-name="Caminho 1241" d="M301.15,3139.744a1.58,1.58,0,1,0,3.1,0v-3.614a1.58,1.58,0,1,0-3.1,0Z" transform="translate(-242.826 -3090.97)" fill="#26234f"/>
      <path id="Caminho_1242" data-name="Caminho 1242" d="M253.48,3120.736a1.653,1.653,0,1,0,3.242,0v-3.711a1.653,1.653,0,1,0-3.242,0Z" transform="translate(-204.388 -3075.497)" fill="#252a5b"/>
      <path id="Caminho_1243" data-name="Caminho 1243" d="M205.81,3101.726a1.725,1.725,0,1,0,3.383,0v-3.8a1.725,1.725,0,1,0-3.383,0Z" transform="translate(-165.951 -3060.023)" fill="#253865"/>
      <path id="Caminho_1244" data-name="Caminho 1244" d="M158.11,3082.69a1.8,1.8,0,1,0,3.533,0v-3.9a1.8,1.8,0,1,0-3.533,0Z" transform="translate(-127.489 -3044.517)" fill="#2c4b6d"/>
      <path id="Caminho_1245" data-name="Caminho 1245" d="M110.35,3063.6a1.89,1.89,0,1,0,3.707,0v-4.015a1.89,1.89,0,1,0-3.707,0Z" transform="translate(-88.978 -3028.947)" fill="#335e76"/>
      <path id="Caminho_1246" data-name="Caminho 1246" d="M62.5,3044.33a2,2,0,1,0,3.918,0v-4.162a2,2,0,1,0-3.918,0Z" transform="translate(-50.396 -3013.192)" fill="#3d717f"/>
      <path id="Caminho_1247" data-name="Caminho 1247" d="M18.24,3022.025a2.325,2.325,0,0,0,2.068,2.518,2.33,2.33,0,0,0,2.07-2.518v-4.307a2.325,2.325,0,0,0-2.07-2.518,2.328,2.328,0,0,0-2.068,2.518Z" transform="translate(-14.707 -2994.985)" fill="#4f8aa2"/>
      <path id="Caminho_1248" data-name="Caminho 1248" d="M0,2975.971a2.44,2.44,0,0,0,2.167,2.644,2.44,2.44,0,0,0,2.167-2.644v-4.439a2.439,2.439,0,0,0-2.167-2.642A2.439,2.439,0,0,0,0,2971.532Z" transform="translate(0 -2957.644)" fill="#4f8aa2"/>
      <path id="Caminho_1249" data-name="Caminho 1249" d="M37.29,2942.892a2.5,2.5,0,0,0,2.227,2.711,2.508,2.508,0,0,0,2.229-2.711v-4.52a2.5,2.5,0,0,0-2.229-2.711,2.506,2.506,0,0,0-2.227,2.711Z" transform="translate(-30.068 -2930.656)" fill="#4f8aa2"/>
      <path id="Caminho_1250" data-name="Caminho 1250" d="M85.13,2926.231a2.294,2.294,0,1,0,4.5,0v-4.547a2.294,2.294,0,1,0-4.5,0Z" transform="translate(-68.643 -2917.174)" fill="#4f8aa2"/>
      <path id="Caminho_1251" data-name="Caminho 1251" d="M135.42,2918.28a2.257,2.257,0,1,0,4.427,0v-4.5a2.259,2.259,0,1,0-4.427,0Z" transform="translate(-109.193 -2910.828)" fill="#4f8aa2"/>
      <path id="Caminho_1252" data-name="Caminho 1252" d="M186.57,2916.813a2.173,2.173,0,1,0,4.261,0v-4.393a2.173,2.173,0,1,0-4.261,0Z" transform="translate(-150.437 -2909.82)" fill="#4f8aa2"/>
      <path id="Caminho_1253" data-name="Caminho 1253" d="M237.8,2921.135a2.061,2.061,0,1,0,4.042,0v-4.241a2.061,2.061,0,1,0-4.042,0Z" transform="translate(-191.745 -2913.537)" fill="#4f8aa2"/>
      <path id="Caminho_1254" data-name="Caminho 1254" d="M288.32,2932.081a1.915,1.915,0,1,0,3.755,0v-4.052a1.915,1.915,0,1,0-3.755,0Z" transform="translate(-232.481 -2922.656)" fill="#4f8aa2"/>
      <path id="Caminho_1255" data-name="Caminho 1255" d="M336,2952.617a1.739,1.739,0,1,0,3.411,0V2948.8a1.739,1.739,0,1,0-3.411,0Z" transform="translate(-270.927 -2939.573)" fill="#4f8aa2"/>
      <path id="Caminho_1256" data-name="Caminho 1256" d="M366.23,2993.032a1.529,1.529,0,1,0,3,0v-3.546a1.687,1.687,0,0,0-1.5-1.826c-.827,0-1.5,1.826-1.5,1.826Z" transform="translate(-295.302 -2972.584)" fill="#4f8aa2"/>
      <path id="Caminho_1257" data-name="Caminho 1257" d="M338.13,3033.615a1.279,1.279,0,1,0,2.508,0V3030.4a1.279,1.279,0,1,0-2.508,0Z" transform="translate(-272.644 -3005.814)" fill="#4f8aa2"/>
      <path id="Caminho_1259" data-name="Caminho 1259" d="M247.62,3076.957a.641.641,0,1,0,1.253,0v-2.382a.716.716,0,0,0-.627-.775.709.709,0,0,0-.626.775Z" transform="translate(-199.663 -3042.042)" fill="#4f8aa2"/>
    </g>
    <g id="Letters_colorido" data-name="Letters colorido" transform="translate(-14286.042 -11163.07)">
      <path id="Caminho_1212" data-name="Caminho 1212" d="M561.966,3004.006H559.14v-.637a3.017,3.017,0,0,0-.457-1.675,1.688,1.688,0,0,0-1.538-.707,1.784,1.784,0,0,0-.941.222,1.834,1.834,0,0,0-.581.554,2.323,2.323,0,0,0-.308.821,5.282,5.282,0,0,0-.083.957,9.531,9.531,0,0,0,.041.968,1.8,1.8,0,0,0,.209.693,1.548,1.548,0,0,0,.484.527,4.436,4.436,0,0,0,.871.441l2.161.86a5.365,5.365,0,0,1,1.522.845,3.676,3.676,0,0,1,.914,1.121,5.305,5.305,0,0,1,.416,1.509,15.349,15.349,0,0,1,.11,1.925,10.127,10.127,0,0,1-.25,2.312,4.881,4.881,0,0,1-.8,1.815,3.971,3.971,0,0,1-1.522,1.218,5.359,5.359,0,0,1-2.3.443,5.034,5.034,0,0,1-1.912-.36,4.522,4.522,0,0,1-1.522-1,4.793,4.793,0,0,1-1.011-1.482,4.493,4.493,0,0,1-.374-1.842v-1.052h2.824v.885a2.324,2.324,0,0,0,.457,1.4,1.784,1.784,0,0,0,1.538.622,2.483,2.483,0,0,0,1.133-.221,1.513,1.513,0,0,0,.624-.595,2.224,2.224,0,0,0,.263-.93c.027-.358.041-.761.041-1.2a12.062,12.062,0,0,0-.054-1.275,2.232,2.232,0,0,0-.223-.8,1.576,1.576,0,0,0-.511-.5,6.948,6.948,0,0,0-.844-.415l-2.022-.831a4.457,4.457,0,0,1-2.452-1.981,6.9,6.9,0,0,1-.631-3.079,7.167,7.167,0,0,1,.306-2.105,4.726,4.726,0,0,1,.914-1.716,4.193,4.193,0,0,1,1.48-1.15,4.975,4.975,0,0,1,2.148-.428,4.663,4.663,0,0,1,1.923.387,4.966,4.966,0,0,1,1.511,1.025,4.285,4.285,0,0,1,1.274,3.046Z" transform="translate(-552.269 -2998.162)" fill="#1d1049"/>
      <path id="Caminho_1213" data-name="Caminho 1213" d="M764.474,3012.43v1.218a4.394,4.394,0,0,1-.347,1.731,4.842,4.842,0,0,1-.955,1.454,4.647,4.647,0,0,1-1.427,1.011,4.192,4.192,0,0,1-1.759.374,6.278,6.278,0,0,1-1.635-.223,3.871,3.871,0,0,1-1.5-.774,4.283,4.283,0,0,1-1.092-1.427,5.009,5.009,0,0,1-.43-2.229V3002.71a4.82,4.82,0,0,1,.331-1.8,4.218,4.218,0,0,1,.943-1.439,4.372,4.372,0,0,1,1.453-.957,4.9,4.9,0,0,1,1.869-.344,4.287,4.287,0,0,1,3.242,1.3,4.647,4.647,0,0,1,.955,1.509,5.1,5.1,0,0,1,.347,1.9v1.108h-2.816v-.943a2.289,2.289,0,0,0-.471-1.439,1.523,1.523,0,0,0-1.274-.61,1.435,1.435,0,0,0-1.4.651,3.486,3.486,0,0,0-.347,1.648v10.081a2.622,2.622,0,0,0,.374,1.441,1.474,1.474,0,0,0,1.344.581,2.007,2.007,0,0,0,.595-.1,1.784,1.784,0,0,0,.6-.312,1.705,1.705,0,0,0,.414-.61,2.431,2.431,0,0,0,.167-.968v-.968Z" transform="translate(-716.004 -2998.167)" fill="#1d1049"/>
      <path id="Caminho_1214" data-name="Caminho 1214" d="M950.82,3018.723l4.4-19.723h2.355l4.4,19.719h-2.824l-.831-4.226h-3.85l-.831,4.237Zm6.972-6.9-1.385-7.145h-.056l-1.385,7.145Z" transform="translate(-873.632 -2998.838)" fill="#1d1049"/>
      <path id="Caminho_1215" data-name="Caminho 1215" d="M1158.6,3018.723V2999h2.826v16.894h5.6v2.826Z" transform="translate(-1041.172 -2998.838)" fill="#1d1049"/>
      <path id="Caminho_1216" data-name="Caminho 1216" d="M1336.49,3018.723l4.4-19.723h2.355l4.4,19.719h-2.826l-.831-4.238h-3.848l-.831,4.238Zm6.972-6.9-1.385-7.145h-.056l-1.385,7.145Z" transform="translate(-1184.609 -2998.838)" fill="#1d1049"/>
      <path id="Caminho_1217" data-name="Caminho 1217" d="M644.46,3161.451V3150.9h2.235a2.6,2.6,0,0,1,1.979.711,2.816,2.816,0,0,1,.674,2.016v4.935a2.939,2.939,0,0,1-.719,2.185,2.829,2.829,0,0,1-2.068.705Zm1.511-9.13v7.7h.7a1.125,1.125,0,0,0,.9-.32,1.535,1.535,0,0,0,.265-1v-5.072a1.6,1.6,0,0,0-.252-.969,1.075,1.075,0,0,0-.918-.341Z" transform="translate(-626.605 -3121.319)" fill="#4a828b"/>
      <path id="Caminho_1218" data-name="Caminho 1218" d="M703.22,3161.451l2.357-10.551h1.259l2.355,10.551H707.68l-.436-2.268h-2.068l-.445,2.268Zm3.734-3.689-.74-3.825h-.031l-.74,3.825Z" transform="translate(-673.985 -3121.319)" fill="#4a828b"/>
      <path id="Caminho_1219" data-name="Caminho 1219" d="M762.143,3161.451v-9.13H760.4V3150.9h5.008v1.421h-1.743v9.13Z" transform="translate(-720.091 -3121.319)" fill="#4a828b"/>
      <path id="Caminho_1220" data-name="Caminho 1220" d="M812.55,3161.451l2.357-10.551h1.259l2.357,10.551H817.01l-.445-2.268h-2.059l-.444,2.268Zm3.734-3.689-.742-3.825h-.031l-.744,3.825Z" transform="translate(-762.141 -3121.319)" fill="#4a828b"/>
      <path id="Caminho_1221" data-name="Caminho 1221" d="M907.735,3157.942v.653a2.341,2.341,0,0,1-.194.926,2.546,2.546,0,0,1-.511.775,2.459,2.459,0,0,1-.763.541,2.227,2.227,0,0,1-.941.194,3.372,3.372,0,0,1-.873-.118,2.066,2.066,0,0,1-.8-.414,2.3,2.3,0,0,1-.581-.763,2.737,2.737,0,0,1-.229-1.193v-5.81a2.584,2.584,0,0,1,.178-.969,2.257,2.257,0,0,1,.5-.774,2.287,2.287,0,0,1,.775-.511,2.6,2.6,0,0,1,1-.194,2.29,2.29,0,0,1,1.743.7,2.457,2.457,0,0,1,.511.806,2.727,2.727,0,0,1,.194,1.017v.593h-1.511v-.5a1.219,1.219,0,0,0-.254-.775.818.818,0,0,0-.682-.327.768.768,0,0,0-.748.349,1.862,1.862,0,0,0-.194.881v5.394a1.39,1.39,0,0,0,.194.775.788.788,0,0,0,.719.312,1.08,1.08,0,0,0,.318-.052.944.944,0,0,0,.32-.17.892.892,0,0,0,.221-.325,1.306,1.306,0,0,0,.091-.519v-.519Z" transform="translate(-834.946 -3120.819)" fill="#4a828b"/>
      <path id="Caminho_1222" data-name="Caminho 1222" d="M965.06,3161.451V3150.9h4.5v1.421h-2.992v3.1h2.607v1.424h-2.607v3.1h2.992v1.512Z" transform="translate(-885.115 -3121.319)" fill="#4a828b"/>
      <path id="Caminho_1223" data-name="Caminho 1223" d="M1023.67,3161.451V3150.9h1.452l2.281,6.356h.031V3150.9h1.511v10.551h-1.423l-2.311-6.343h-.029v6.343Z" transform="translate(-932.373 -3121.319)" fill="#4a828b"/>
      <path id="Caminho_1224" data-name="Caminho 1224" d="M1086.423,3161.451v-9.13h-1.743V3150.9h5.008v1.421h-1.743v9.13Z" transform="translate(-981.568 -3121.319)" fill="#4a828b"/>
      <path id="Caminho_1225" data-name="Caminho 1225" d="M1144.56,3161.451V3150.9h4.5v1.421h-2.992v3.1h2.609v1.424h-2.609v3.1h2.992v1.512Z" transform="translate(-1029.851 -3121.319)" fill="#4a828b"/>
      <path id="Caminho_1226" data-name="Caminho 1226" d="M1203.47,3161.451V3150.9h2.427q2.667,0,2.667,3.1a3.926,3.926,0,0,1-.289,1.586,2.257,2.257,0,0,1-1.015,1.052l1.629,4.817h-1.6l-1.408-4.507h-.9v4.507Zm1.511-9.13v3.292h.86a1.529,1.529,0,0,0,.637-.11.856.856,0,0,0,.37-.32,1.459,1.459,0,0,0,.165-.511,5.589,5.589,0,0,0,0-1.408,1.422,1.422,0,0,0-.178-.525,1.209,1.209,0,0,0-1.067-.417Z" transform="translate(-1077.352 -3121.319)" fill="#4a828b"/>
      <path id="Caminho_1227" data-name="Caminho 1227" d="M1270.371,3153.563h-1.511v-.341a1.612,1.612,0,0,0-.244-.9.9.9,0,0,0-.823-.387.949.949,0,0,0-.5.12,1,1,0,0,0-.312.3,1.3,1.3,0,0,0-.163.436,2.92,2.92,0,0,0-.045.511,4.787,4.787,0,0,0,.023.519.964.964,0,0,0,.11.37.817.817,0,0,0,.26.283,2.517,2.517,0,0,0,.467.236l1.162.459a2.91,2.91,0,0,1,.815.453,1.939,1.939,0,0,1,.488.6,2.774,2.774,0,0,1,.223.808,8.132,8.132,0,0,1,.058,1.028,5.416,5.416,0,0,1-.132,1.238,2.589,2.589,0,0,1-.43.968,2.128,2.128,0,0,1-.815.653,2.853,2.853,0,0,1-1.23.236,2.692,2.692,0,0,1-1.023-.194,2.42,2.42,0,0,1-.815-.534,2.587,2.587,0,0,1-.54-.792,2.4,2.4,0,0,1-.194-.986v-.55h1.511v.472a1.239,1.239,0,0,0,.244.75.954.954,0,0,0,.823.333,1.328,1.328,0,0,0,.6-.11.8.8,0,0,0,.333-.319,1.17,1.17,0,0,0,.141-.5c.016-.194.021-.409.021-.645a6.489,6.489,0,0,0-.029-.682,1.188,1.188,0,0,0-.118-.43.846.846,0,0,0-.275-.268,3.579,3.579,0,0,0-.451-.221l-1.083-.445a2.4,2.4,0,0,1-1.311-1.059,3.637,3.637,0,0,1-.333-1.652,3.848,3.848,0,0,1,.163-1.127,2.549,2.549,0,0,1,.49-.918,2.273,2.273,0,0,1,.792-.616,2.675,2.675,0,0,1,1.149-.229,2.52,2.52,0,0,1,1.028.207,2.711,2.711,0,0,1,.81.548,2.294,2.294,0,0,1,.68,1.631Z" transform="translate(-1127.125 -3120.945)" fill="#4a828b"/>
    </g>
  </g>
</svg>
