<svg style={style} width="30" height="30" viewBox="0 0 30 30" fill="none" xmlns="http://www.w3.org/2000/svg">
            <g id="Menu">
                <path id="logout" d="M6.25 27.5C5.5625 27.5 4.97396 27.2552 4.48438 26.7656C3.99479 26.276 3.75 25.6875 3.75 25V7.5C3.75 6.8125 3.99479 6.22396 4.48438 5.73438C4.97396 5.24479 5.5625 5 6.25 5H13.75C14.1042 5 14.401 5.11979 14.6406 5.35937C14.8802 5.59896 15 5.89583 15 6.25C15 6.60417 14.8802 6.90104 14.6406 7.14062C14.401 7.38021 14.1042 7.5 13.75 7.5H6.25V25H13.75C14.1042 25 14.401 25.1198 14.6406 25.3594C14.8802 25.599 15 25.8958 15 26.25C15 26.6042 14.8802 26.901 14.6406 27.1406C14.401 27.3802 14.1042 27.5 13.75 27.5H6.25ZM21.4688 17.5H12.5C12.1458 17.5 11.849 17.3802 11.6094 17.1406C11.3698 16.901 11.25 16.6042 11.25 16.25C11.25 15.8958 11.3698 15.599 11.6094 15.3594C11.849 15.1198 12.1458 15 12.5 15H21.4688L19.125 12.6562C18.8958 12.4271 18.7813 12.1458 18.7813 11.8125C18.7813 11.4792 18.8958 11.1875 19.125 10.9375C19.3542 10.6875 19.6458 10.5573 20 10.5469C20.3542 10.5365 20.6563 10.6562 20.9063 10.9062L25.375 15.375C25.625 15.625 25.75 15.9167 25.75 16.25C25.75 16.5833 25.625 16.875 25.375 17.125L20.9063 21.5938C20.6563 21.8438 20.3594 21.9635 20.0156 21.9531C19.6719 21.9427 19.375 21.8125 19.125 21.5625C18.8958 21.3125 18.7865 21.0156 18.7969 20.6719C18.8073 20.3281 18.9271 20.0417 19.1562 19.8125L21.4688 17.5Z" fill="#272727" />
            </g>
        </svg>
