<svg width="24" height="24" viewBox="0 0 24 24" fill="none" xmlns="http://www.w3.org/2000/svg">
<g clip-path="url(#clip0_2270_6032)">
<path d="M12.25 10.825L13.175 11.75L18.6 6.325L17.675 5.4L12.25 10.825ZM5 19H5.925L11.75 13.175L10.825 12.25L5 18.075V19ZM13.875 13.875L10.125 10.125L14.3 5.95L13.575 5.225L8.8 10C8.6 10.2 8.36667 10.3 8.1 10.3C7.83333 10.3 7.6 10.2 7.4 10C7.2 9.8 7.1 9.5625 7.1 9.2875C7.1 9.0125 7.2 8.775 7.4 8.575L12.15 3.825C12.55 3.425 13.0208 3.225 13.5625 3.225C14.1042 3.225 14.575 3.425 14.975 3.825L15.7 4.55L16.95 3.3C17.15 3.1 17.3875 3 17.6625 3C17.9375 3 18.175 3.1 18.375 3.3L20.7 5.625C20.9 5.825 21 6.0625 21 6.3375C21 6.6125 20.9 6.85 20.7 7.05L13.875 13.875ZM4 21C3.71667 21 3.47917 20.9042 3.2875 20.7125C3.09583 20.5208 3 20.2833 3 20V18.075C3 17.8083 3.05 17.5542 3.15 17.3125C3.25 17.0708 3.39167 16.8583 3.575 16.675L10.125 10.125L13.875 13.875L7.325 20.425C7.14167 20.6083 6.92917 20.75 6.6875 20.85C6.44583 20.95 6.19167 21 5.925 21H4Z" fill="#1C1B1F"/>
</g>
<defs>
<clipPath id="clip0_2270_6032">
<rect width="24" height="24" fill="white"/>
</clipPath>
</defs>
</svg>
