<svg width="22" height="20" viewBox="0 0 22 20" fill="none" xmlns="http://www.w3.org/2000/svg">
<path id="Vector" d="M21.5 4.75078V10.8513C20.8595 10.4838 20.156 10.2318 19.4 10.0953V4.75078H2.6V15.2508H12.1445C12.092 15.5973 12.05 15.9438 12.05 16.3008C12.05 16.6578 12.092 17.0043 12.1445 17.3508H2.6C1.445 17.3508 0.5 16.4163 0.5 15.2508V2.65078C0.5 1.48528 1.4345 0.550781 2.6 0.550781H8.9L11 2.65078H19.4C20.555 2.65078 21.5 3.58528 21.5 4.75078ZM15.2 15.2508H17.3V19.4508H19.4V15.2508H21.5L18.35 12.1008L15.2 15.2508Z" fill="#1F1F1F"/>
</svg>
