<svg width="40" height="40" viewBox="0 0 40 40" fill="none" xmlns="http://www.w3.org/2000/svg">
<path d="M20 15.6833C21.1449 15.6833 22.2429 16.1381 23.0525 16.9476C23.862 17.7572 24.3168 18.8552 24.3168 20.0001C24.3168 21.145 23.862 22.243 23.0525 23.0526C22.2429 23.8621 21.1449 24.317 20 24.317C18.8551 24.317 17.7571 23.8621 16.9475 23.0526C16.138 22.243 15.6832 21.145 15.6832 20.0001C15.6832 18.8552 16.138 17.7572 16.9475 16.9476C17.7571 16.1381 18.8551 15.6833 20 15.6833ZM20 17.8417C19.4276 17.8417 18.8785 18.0691 18.4738 18.4739C18.069 18.8787 17.8416 19.4277 17.8416 20.0001C17.8416 20.5726 18.069 21.1216 18.4738 21.5263C18.8785 21.9311 19.4276 22.1585 20 22.1585C20.5724 22.1585 21.1215 21.9311 21.5262 21.5263C21.931 21.1216 22.1584 20.5726 22.1584 20.0001C22.1584 19.4277 21.931 18.8787 21.5262 18.4739C21.1215 18.0691 20.5724 17.8417 20 17.8417ZM17.8416 30.7922C17.5718 30.7922 17.3451 30.598 17.302 30.339L16.9027 27.479C16.2228 27.2092 15.64 26.8423 15.0788 26.4106L12.3916 27.5006C12.1541 27.587 11.8628 27.5006 11.7332 27.2632L9.57482 23.5291C9.43453 23.2917 9.49928 23.0003 9.70433 22.8384L11.9815 21.047L11.9059 20.0001L11.9815 18.9209L9.70433 17.1618C9.49928 16.9999 9.43453 16.7085 9.57482 16.4711L11.7332 12.737C11.8628 12.4996 12.1541 12.4025 12.3916 12.4996L15.0788 13.5788C15.64 13.1579 16.2228 12.791 16.9027 12.5212L17.302 9.66128C17.3451 9.40227 17.5718 9.20801 17.8416 9.20801H22.1584C22.4282 9.20801 22.6549 9.40227 22.698 9.66128L23.0973 12.5212C23.7772 12.791 24.36 13.1579 24.9212 13.5788L27.6084 12.4996C27.8459 12.4025 28.1372 12.4996 28.2668 12.737L30.4252 16.4711C30.5655 16.7085 30.5007 16.9999 30.2957 17.1618L28.0185 18.9209L28.0941 20.0001L28.0185 21.0793L30.2957 22.8384C30.5007 23.0003 30.5655 23.2917 30.4252 23.5291L28.2668 27.2632C28.1372 27.5006 27.8459 27.5978 27.6084 27.5006L24.9212 26.4214C24.36 26.8423 23.7772 27.2092 23.0973 27.479L22.698 30.339C22.6549 30.598 22.4282 30.7922 22.1584 30.7922H17.8416ZM19.1906 11.3664L18.7913 14.1832C17.4962 14.453 16.3523 15.1437 15.5213 16.1042L12.9204 14.9818L12.111 16.3848L14.3881 18.0575C13.9564 19.3202 13.9564 20.6908 14.3881 21.9427L12.1002 23.6263L12.9096 25.0292L15.5321 23.9069C16.3631 24.8566 17.4962 25.5473 18.7805 25.8063L19.1798 28.6338H20.8202L21.2195 25.8171C22.5038 25.5473 23.6369 24.8566 24.4679 23.9069L27.0904 25.0292L27.8998 23.6263L25.6119 21.9535C26.0436 20.6908 26.0436 19.3202 25.6119 18.0575L27.889 16.3848L27.0796 14.9818L24.4787 16.1042C23.6477 15.1437 22.5038 14.453 21.2087 14.194L20.8094 11.3664H19.1906Z" fill="#1F1F1F"/>
</svg>
