<svg width="56" height="55" viewBox="0 0 56 55" fill="none" xmlns="http://www.w3.org/2000/svg">
<g id="Icons ">
<path id="emergency_home" d="M27.9996 47.6994C27.457 47.6994 26.9398 47.5977 26.448 47.3942C25.9562 47.1907 25.5068 46.9024 25.0999 46.5293L8.76968 30.1992C8.39662 29.7922 8.10834 29.3428 7.90485 28.851C7.70136 28.3593 7.59961 27.8421 7.59961 27.2994C7.59961 26.7568 7.70136 26.2311 7.90485 25.7224C8.10834 25.2136 8.39662 24.7727 8.76968 24.3997L25.0999 8.06949C25.5068 7.66251 25.9562 7.36575 26.448 7.17921C26.9398 6.99268 27.457 6.89941 27.9996 6.89941C28.5423 6.89941 29.0679 6.99268 29.5767 7.17921C30.0854 7.36575 30.5263 7.66251 30.8994 8.06949L47.2295 24.3997C47.6365 24.7727 47.9333 25.2136 48.1198 25.7224C48.3064 26.2311 48.3996 26.7568 48.3996 27.2994C48.3996 27.8421 48.3064 28.3593 48.1198 28.851C47.9333 29.3428 47.6365 29.7922 47.2295 30.1992L30.8994 46.5293C30.5263 46.9024 30.0854 47.1907 29.5767 47.3942C29.0679 47.5977 28.5423 47.6994 27.9996 47.6994ZM27.9996 29.3343C28.5762 29.3343 29.0595 29.1393 29.4495 28.7493C29.8395 28.3593 30.0345 27.876 30.0345 27.2994V19.1598C30.0345 18.5832 29.8395 18.0999 29.4495 17.7099C29.0595 17.3199 28.5762 17.1249 27.9996 17.1249C27.4231 17.1249 26.9398 17.3199 26.5497 17.7099C26.1597 18.0999 25.9647 18.5832 25.9647 19.1598V27.2994C25.9647 27.876 26.1597 28.3593 26.5497 28.7493C26.9398 29.1393 27.4231 29.3343 27.9996 29.3343ZM27.9996 35.4391C28.5762 35.4391 29.0595 35.2441 29.4495 34.854C29.8395 34.464 30.0345 33.9807 30.0345 33.4042C30.0345 32.8276 29.8395 32.3443 29.4495 31.9543C29.0595 31.5643 28.5762 31.3692 27.9996 31.3692C27.4231 31.3692 26.9398 31.5643 26.5497 31.9543C26.1597 32.3443 25.9647 32.8276 25.9647 33.4042C25.9647 33.9807 26.1597 34.464 26.5497 34.854C26.9398 35.2441 27.4231 35.4391 27.9996 35.4391Z" fill="#B73D3D"/>
</g>
</svg>
