<svg xmlns="http://www.w3.org/2000/svg" width="16" height="16" viewBox="0 0 16 16" fill="none">
  <path d="M13.4316 4.60938C13.2121 4.82885 12.9991 5.04186 12.9926 5.25487C12.9733 5.46142 13.1927 5.67443 13.3993 5.87454C13.7091 6.19728 14.0125 6.48775 13.9996 6.80404C13.9867 7.12033 13.6575 7.44952 13.3283 7.77227L10.6624 10.4446L9.74584 9.52799L12.4892 6.79113L11.8695 6.17146L10.9529 7.0816L8.53233 4.66102L11.011 2.1888C11.2627 1.93707 11.6823 1.93707 11.9211 2.1888L13.4316 3.69924C13.6833 3.93807 13.6833 4.35764 13.4316 4.60938ZM2 11.1998L8.17086 5.02249L10.5914 7.44307L4.42058 13.6204H2V11.1998Z" fill="#FBFBFB"/>
</svg>