<svg xmlns="http://www.w3.org/2000/svg" width="95.747" height="26.397" viewBox="0 0 95.747 26.397">
  <g id="Scala_Icon" data-name="Scala Icon" transform="translate(-3880 -2909.82)">
    <g id="Grupo_1451" data-name="Grupo 1451" transform="translate(3917.929 2915.887)">
      <g id="Grupo_1449" data-name="Grupo 1449" transform="translate(0 0)">
        <path id="Caminho_3068" data-name="Caminho 3068" d="M4435.708,3000.271h-1v-.226a1.066,1.066,0,0,0-.163-.594.6.6,0,0,0-.545-.251.636.636,0,0,0-.334.078.679.679,0,0,0-.207.2.827.827,0,0,0-.107.29,1.906,1.906,0,0,0-.03.339,3.048,3.048,0,0,0,.016.344.647.647,0,0,0,.073.246.544.544,0,0,0,.172.187,1.554,1.554,0,0,0,.31.157l.766.3a1.9,1.9,0,0,1,.54.3,1.311,1.311,0,0,1,.324.4,1.859,1.859,0,0,1,.147.535,5.265,5.265,0,0,1,.039.682,3.589,3.589,0,0,1-.088.82,1.728,1.728,0,0,1-.285.644,1.4,1.4,0,0,1-.54.432,1.9,1.9,0,0,1-.815.157,1.782,1.782,0,0,1-.678-.128,1.613,1.613,0,0,1-.54-.354,1.728,1.728,0,0,1-.359-.525,1.6,1.6,0,0,1-.132-.653v-.373h1v.315a.819.819,0,0,0,.162.5.634.634,0,0,0,.545.221.88.88,0,0,0,.4-.074.537.537,0,0,0,.221-.211.783.783,0,0,0,.093-.329c.01-.128.014-.27.014-.427a4.22,4.22,0,0,0-.02-.452.764.764,0,0,0-.079-.284.56.56,0,0,0-.182-.177,2.211,2.211,0,0,0-.3-.147l-.717-.295a1.589,1.589,0,0,1-.869-.7,2.4,2.4,0,0,1-.221-1.095,2.535,2.535,0,0,1,.108-.747,1.7,1.7,0,0,1,.324-.608,1.474,1.474,0,0,1,.525-.407,1.753,1.753,0,0,1,.762-.152,1.672,1.672,0,0,1,.683.137,1.759,1.759,0,0,1,.535.363,1.518,1.518,0,0,1,.452,1.08v.491Z" transform="translate(-4432.27 -2998.198)" fill="#fff"/>
        <path id="Caminho_3069" data-name="Caminho 3069" d="M4638.581,3003.218v.432a1.556,1.556,0,0,1-.123.614,1.7,1.7,0,0,1-.339.516,1.615,1.615,0,0,1-.506.359,1.479,1.479,0,0,1-.624.132,2.256,2.256,0,0,1-.58-.078,1.368,1.368,0,0,1-.53-.275,1.527,1.527,0,0,1-.388-.506,1.78,1.78,0,0,1-.152-.79v-3.85a1.684,1.684,0,0,1,.118-.638,1.5,1.5,0,0,1,.333-.511,1.552,1.552,0,0,1,.516-.339,1.729,1.729,0,0,1,.663-.123,1.521,1.521,0,0,1,1.149.461,1.639,1.639,0,0,1,.339.535,1.824,1.824,0,0,1,.123.673v.393h-1v-.334a.812.812,0,0,0-.167-.511.541.541,0,0,0-.452-.216.509.509,0,0,0-.5.231,1.232,1.232,0,0,0-.123.584v3.575a.924.924,0,0,0,.132.511.523.523,0,0,0,.477.206.706.706,0,0,0,.211-.034.629.629,0,0,0,.211-.113.594.594,0,0,0,.147-.216.865.865,0,0,0,.059-.344v-.344h1Z" transform="translate(-4621.393 -2998.16)" fill="#fff"/>
        <path id="Caminho_3070" data-name="Caminho 3070" d="M4830.812,3006.013l1.562-6.993h.834l1.562,6.993h-1l-.294-1.5h-1.366l-.294,1.5h-1Zm2.475-2.446-.491-2.533h-.02l-.491,2.533Z" transform="translate(-4803.439 -2998.961)" fill="#fff"/>
        <path id="Caminho_3071" data-name="Caminho 3071" d="M5038.6,3006.013v-6.993h1v5.991h1.984v1H5038.6Z" transform="translate(-4996.958 -2998.961)" fill="#fff"/>
        <path id="Caminho_3072" data-name="Caminho 3072" d="M5216.482,3006.013l1.562-6.993h.835l1.561,6.993h-1l-.294-1.5h-1.365l-.294,1.5h-1Zm2.475-2.446-.491-2.533h-.02l-.491,2.533Z" transform="translate(-5162.623 -2998.961)" fill="#fff"/>
      </g>
      <g id="Grupo_1450" data-name="Grupo 1450" transform="translate(6.332 10.457)">
        <path id="Caminho_3073" data-name="Caminho 3073" d="M4524.46,3154.642V3150.9h.793a.923.923,0,0,1,.7.252,1,1,0,0,1,.239.715v1.75a1.043,1.043,0,0,1-.255.775,1,1,0,0,1-.732.25h-.746Zm.536-3.237v2.733h.247a.4.4,0,0,0,.32-.113.543.543,0,0,0,.095-.354v-1.8a.565.565,0,0,0-.089-.341.382.382,0,0,0-.326-.121H4525Z" transform="translate(-4524.46 -3150.867)" fill="#fff"/>
        <path id="Caminho_3074" data-name="Caminho 3074" d="M4583.211,3154.642l.836-3.741h.446l.835,3.741h-.536l-.158-.8h-.731l-.158.8h-.536Zm1.324-1.308-.263-1.356h-.01l-.263,1.356Z" transform="translate(-4579.176 -3150.867)" fill="#fff"/>
        <path id="Caminho_3075" data-name="Caminho 3075" d="M4640.99,3154.642V3151.4h-.62v-.5h1.775v.5h-.62v3.237Z" transform="translate(-4632.41 -3150.867)" fill="#fff"/>
        <path id="Caminho_3076" data-name="Caminho 3076" d="M4692.541,3154.642l.835-3.741h.446l.835,3.741h-.536l-.158-.8h-.73l-.158.8h-.536Zm1.324-1.308-.262-1.356h-.01l-.263,1.356Z" transform="translate(-4680.997 -3150.867)" fill="#fff"/>
        <path id="Caminho_3077" data-name="Caminho 3077" d="M4784.595,3153.137v.23a.823.823,0,0,1-.066.329.912.912,0,0,1-.181.276.861.861,0,0,1-.271.192.791.791,0,0,1-.333.071,1.184,1.184,0,0,1-.31-.042.728.728,0,0,1-.283-.147.808.808,0,0,1-.208-.271.962.962,0,0,1-.082-.423v-2.06a.914.914,0,0,1,.063-.341.8.8,0,0,1,.178-.273.832.832,0,0,1,.276-.181.923.923,0,0,1,.354-.066.813.813,0,0,1,.615.247.876.876,0,0,1,.181.287.957.957,0,0,1,.066.36v.21h-.536v-.178a.431.431,0,0,0-.09-.273.287.287,0,0,0-.241-.115.272.272,0,0,0-.265.124.66.66,0,0,0-.066.312v1.913a.5.5,0,0,0,.07.273.281.281,0,0,0,.255.11.385.385,0,0,0,.113-.019.282.282,0,0,0,.192-.176.459.459,0,0,0,.032-.184v-.184h.536Z" transform="translate(-4765.114 -3150.43)" fill="#fff"/>
        <path id="Caminho_3078" data-name="Caminho 3078" d="M4845.061,3154.642V3150.9h1.6v.5H4845.6v1.1h.925v.5h-.925v1.1h1.062v.536h-1.6Z" transform="translate(-4823.042 -3150.867)" fill="#fff"/>
        <path id="Caminho_3079" data-name="Caminho 3079" d="M4903.661,3154.642V3150.9h.515l.809,2.254H4905V3150.9h.536v3.741h-.5l-.82-2.249h-.01v2.249h-.537Z" transform="translate(-4877.617 -3150.867)" fill="#fff"/>
        <path id="Caminho_3080" data-name="Caminho 3080" d="M4965.271,3154.642V3151.4h-.621v-.5h1.776v.5h-.621v3.237Z" transform="translate(-4934.419 -3150.867)" fill="#fff"/>
        <path id="Caminho_3081" data-name="Caminho 3081" d="M5024.561,3154.642V3150.9h1.6v.5H5025.1v1.1h.925v.5h-.925v1.1h1.062v.536h-1.6Z" transform="translate(-4990.215 -3150.867)" fill="#fff"/>
        <path id="Caminho_3082" data-name="Caminho 3082" d="M5083.47,3154.642V3150.9h.862q.946,0,.946,1.1a1.383,1.383,0,0,1-.1.562.789.789,0,0,1-.36.373l.578,1.708h-.567l-.5-1.6h-.32v1.6h-.536Zm.536-3.237v1.167h.3a.539.539,0,0,0,.226-.04.307.307,0,0,0,.131-.113.526.526,0,0,0,.058-.181,1.793,1.793,0,0,0,.016-.25,1.767,1.767,0,0,0-.016-.249.5.5,0,0,0-.063-.187.425.425,0,0,0-.378-.147h-.278Z" transform="translate(-5045.078 -3150.867)" fill="#fff"/>
        <path id="Caminho_3083" data-name="Caminho 3083" d="M5146.979,3151.53h-.535v-.121a.575.575,0,0,0-.087-.318.32.32,0,0,0-.291-.134.336.336,0,0,0-.179.042.366.366,0,0,0-.11.1.447.447,0,0,0-.058.155,1.084,1.084,0,0,0-.016.181c0,.073,0,.135.008.184a.347.347,0,0,0,.04.131.278.278,0,0,0,.092.1.819.819,0,0,0,.166.084l.41.163a1.042,1.042,0,0,1,.289.16.7.7,0,0,1,.173.213.966.966,0,0,1,.079.287,2.8,2.8,0,0,1,.021.365,1.917,1.917,0,0,1-.048.439.927.927,0,0,1-.153.344.75.75,0,0,1-.289.231,1.027,1.027,0,0,1-.436.084.959.959,0,0,1-.362-.068.86.86,0,0,1-.289-.189.891.891,0,0,1-.191-.281.844.844,0,0,1-.071-.35v-.2h.536v.168a.436.436,0,0,0,.086.265.336.336,0,0,0,.292.118.465.465,0,0,0,.213-.04.284.284,0,0,0,.118-.113.413.413,0,0,0,.05-.176c.006-.069.008-.145.008-.229s0-.178-.01-.241a.4.4,0,0,0-.042-.153.292.292,0,0,0-.1-.095,1.265,1.265,0,0,0-.161-.079l-.383-.158a.846.846,0,0,1-.465-.376,1.28,1.28,0,0,1-.119-.586,1.369,1.369,0,0,1,.058-.4.9.9,0,0,1,.174-.326.815.815,0,0,1,.281-.219.938.938,0,0,1,.407-.081.9.9,0,0,1,.365.073.947.947,0,0,1,.286.194.814.814,0,0,1,.242.578v.262Z" transform="translate(-5102.513 -3150.42)" fill="#fff"/>
      </g>
    </g>
    <g id="Grupo_1452" data-name="Grupo 1452" transform="translate(3880 2909.82)">
      <path id="Caminho_3084" data-name="Caminho 3084" d="M4009.13,3124.489a.121.121,0,1,0,.237,0v-.705a.121.121,0,1,0-.237,0Z" transform="translate(-4000.261 -3108.955)" fill="#fff"/>
      <path id="Caminho_3085" data-name="Caminho 3085" d="M3961.22,3141.945a.163.163,0,1,0,.319,0v-.761a.163.163,0,1,0-.319,0Z" transform="translate(-3955.642 -3125.113)" fill="#fff"/>
      <path id="Caminho_3086" data-name="Caminho 3086" d="M3914.28,3161.513a.2.2,0,1,0,.4,0v-.812a.2.2,0,1,0-.4,0Z" transform="translate(-3911.926 -3143.247)" fill="#fff"/>
      <path id="Caminho_3087" data-name="Caminho 3087" d="M3885.13,3199.789a.24.24,0,1,0,.471,0v-.862a.24.24,0,1,0-.471,0Z" transform="translate(-3884.778 -3178.804)" fill="#fff"/>
      <path id="Caminho_3088" data-name="Caminho 3088" d="M3914.47,3237.393a.277.277,0,1,0,.544,0v-.911a.277.277,0,1,0-.544,0Z" transform="translate(-3912.103 -3213.738)" fill="#fff"/>
      <path id="Caminho_3089" data-name="Caminho 3089" d="M3960.9,3255.63a.312.312,0,1,0,.612,0v-.957a.312.312,0,1,0-.612,0Z" transform="translate(-3955.344 -3230.642)" fill="#fff"/>
      <path id="Caminho_3090" data-name="Caminho 3090" d="M4010.2,3264.577a.347.347,0,1,0,.681,0v-1a.347.347,0,1,0-.681,0Z" transform="translate(-4001.258 -3238.893)" fill="#fff"/>
      <path id="Caminho_3091" data-name="Caminho 3091" d="M4060.36,3267.135a.382.382,0,1,0,.749,0v-1.048a.382.382,0,1,0-.749,0Z" transform="translate(-4047.973 -3241.194)" fill="#fff"/>
      <path id="Caminho_3092" data-name="Caminho 3092" d="M4110.63,3264.173a.414.414,0,1,0,.812,0v-1.089a.414.414,0,1,0-.812,0Z" transform="translate(-4094.79 -3238.362)" fill="#fff"/>
      <path id="Caminho_3093" data-name="Caminho 3093" d="M4160.27,3255.123a.445.445,0,1,0,.873,0v-1.131a.445.445,0,1,0-.873,0Z" transform="translate(-4141.021 -3229.859)" fill="#fff"/>
      <path id="Caminho_3094" data-name="Caminho 3094" d="M4207.72,3237.731a.476.476,0,1,0,.934,0v-1.171a.476.476,0,1,0-.934,0Z" transform="translate(-4185.213 -3213.589)" fill="#fff"/>
      <path id="Caminho_3095" data-name="Caminho 3095" d="M4244.45,3203.869a.507.507,0,1,0,1,0v-1.212a.508.508,0,1,0-1,0Z" transform="translate(-4219.42 -3181.98)" fill="#fff"/>
      <path id="Caminho_3096" data-name="Caminho 3096" d="M4226.73,3159.529a.535.535,0,1,0,1.049,0v-1.249a.535.535,0,1,0-1.049,0Z" transform="translate(-4202.917 -3140.62)" fill="#fff"/>
      <path id="Caminho_3097" data-name="Caminho 3097" d="M4181.15,3136.183a.561.561,0,1,0,1.1,0V3134.9a.561.561,0,1,0-1.1,0Z" transform="translate(-4160.468 -3118.818)" fill="#fff"/>
      <path id="Caminho_3098" data-name="Caminho 3098" d="M4133.48,3117.076a.586.586,0,1,0,1.149,0v-1.315a.586.586,0,1,0-1.149,0Z" transform="translate(-4116.072 -3100.964)" fill="#fff"/>
      <path id="Caminho_3099" data-name="Caminho 3099" d="M4085.81,3097.941a.612.612,0,1,0,1.2,0v-1.349a.612.612,0,1,0-1.2,0Z" transform="translate(-4071.676 -3083.083)" fill="#fff"/>
      <path id="Caminho_3100" data-name="Caminho 3100" d="M4038.11,3078.779a.639.639,0,1,0,1.252,0v-1.385a.639.639,0,1,0-1.252,0Z" transform="translate(-4027.252 -3065.174)" fill="#fff"/>
      <path id="Caminho_3101" data-name="Caminho 3101" d="M3990.35,3059.518a.67.67,0,1,0,1.315,0v-1.426a.67.67,0,1,0-1.315,0Z" transform="translate(-3982.771 -3047.162)" fill="#fff"/>
      <path id="Caminho_3102" data-name="Caminho 3102" d="M3942.5,3040.1a.709.709,0,1,0,1.39,0v-1.475a.709.709,0,1,0-1.39,0Z" transform="translate(-3938.208 -3028.992)" fill="#fff"/>
      <path id="Caminho_3103" data-name="Caminho 3103" d="M3898.24,3017.6a.748.748,0,1,0,1.468,0v-1.526a.748.748,0,1,0-1.468,0Z" transform="translate(-3896.988 -3007.944)" fill="#fff"/>
      <path id="Caminho_3104" data-name="Caminho 3104" d="M3880,2971.41a.784.784,0,1,0,1.537,0v-1.573a.784.784,0,1,0-1.537,0Z" transform="translate(-3880 -2964.843)" fill="#fff"/>
      <path id="Caminho_3105" data-name="Caminho 3105" d="M3917.29,2938.167a.806.806,0,1,0,1.581,0v-1.6a.806.806,0,1,0-1.581,0Z" transform="translate(-3914.729 -2933.829)" fill="#fff"/>
      <path id="Caminho_3106" data-name="Caminho 3106" d="M3965.13,2921.526a.814.814,0,1,0,1.6,0v-1.612a.814.814,0,1,0-1.6,0Z" transform="translate(-3959.283 -2918.314)" fill="#fff"/>
      <path id="Caminho_3107" data-name="Caminho 3107" d="M4015.42,2913.683a.8.8,0,1,0,1.57,0v-1.6a.8.8,0,1,0-1.57,0Z" transform="translate(-4006.12 -2911.041)" fill="#fff"/>
      <path id="Caminho_3108" data-name="Caminho 3108" d="M4066.57,2912.3a.771.771,0,1,0,1.513,0v-1.558a.771.771,0,1,0-1.513,0Z" transform="translate(-4053.756 -2909.82)" fill="#fff"/>
      <path id="Caminho_3109" data-name="Caminho 3109" d="M4117.8,2916.808a.73.73,0,1,0,1.433,0v-1.5a.731.731,0,1,0-1.433,0Z" transform="translate(-4101.468 -2914.114)" fill="#fff"/>
      <path id="Caminho_3110" data-name="Caminho 3110" d="M4168.32,2927.989a.679.679,0,1,0,1.332,0v-1.437a.679.679,0,1,0-1.332,0Z" transform="translate(-4148.518 -2924.646)" fill="#fff"/>
      <path id="Caminho_3111" data-name="Caminho 3111" d="M4216.04,2948.8a.616.616,0,1,0,1.209,0v-1.355a.616.616,0,1,0-1.209,0Z" transform="translate(-4192.961 -2944.177)" fill="#fff"/>
      <path id="Caminho_3112" data-name="Caminho 3112" d="M4246.23,2989.556a.542.542,0,1,0,1.063,0V2988.3a.542.542,0,1,0-1.063,0Z" transform="translate(-4221.078 -2982.305)" fill="#fff"/>
      <path id="Caminho_3113" data-name="Caminho 3113" d="M4218.13,3030.552a.454.454,0,1,0,.89,0v-1.141a.453.453,0,1,0-.89,0Z" transform="translate(-4194.908 -3020.694)" fill="#fff"/>
      <path id="Caminho_3114" data-name="Caminho 3114" d="M4173.17,3053.474a.35.35,0,1,0,.687,0v-1.006a.35.35,0,1,0-.687,0Z" transform="translate(-4153.036 -3042.282)" fill="#fff"/>
      <path id="Caminho_3115" data-name="Caminho 3115" d="M4127.62,3074.966a.227.227,0,1,0,.445,0v-.845a.227.227,0,1,0-.445,0Z" transform="translate(-4110.614 -3062.585)" fill="#fff"/>
    </g>
  </g>
</svg>
