<svg width="31" height="32" viewBox="0 0 31 32" fill="none" xmlns="http://www.w3.org/2000/svg">
<path d="M24.3563 15.2125C21.1975 15.2125 18.5375 17.8725 18.5375 21.0312C18.5375 25.3538 24.3563 31.8375 24.3563 31.8375C24.3563 31.8375 30.175 25.3538 30.175 21.0312C30.175 17.8725 27.515 15.2125 24.3563 15.2125ZM24.3563 23.1925C23.1925 23.1925 22.3612 22.195 22.3612 21.1975C22.3612 20.0338 23.3587 19.2025 24.3563 19.2025C25.3538 19.2025 26.3513 20.2 26.3513 21.1975C26.5175 22.195 25.52 23.1925 24.3563 23.1925ZM0.25 15.2125V10.225C0.25 13.8991 6.20175 16.875 13.55 16.875C14.4976 16.875 15.4286 16.8251 16.3264 16.7254C15.6281 18.0221 15.2125 19.4851 15.2125 21.0312C15.2125 21.2806 15.2125 21.5466 15.2624 21.796C14.6971 21.8625 14.1319 21.8625 13.55 21.8625C6.20175 21.8625 0.25 18.8866 0.25 15.2125ZM0.25 6.9C0.25 3.22587 6.20175 0.25 13.55 0.25C20.8983 0.25 26.85 3.22587 26.85 6.9C26.85 10.5741 20.8983 13.55 13.55 13.55C6.20175 13.55 0.25 10.5741 0.25 6.9ZM18.5375 29.6929C16.9914 30.0087 15.3123 30.175 13.55 30.175C6.20175 30.175 0.25 27.1991 0.25 23.525V18.5375C0.25 22.2116 6.20175 25.1875 13.55 25.1875C14.3813 25.1875 15.2624 25.1376 16.0437 25.0711C16.7087 26.7004 17.6065 28.2964 18.5375 29.6929Z" fill="#0F0742"/>
</svg>
