<svg width="500" height="498" viewBox="0 0 500 498" fill="none" xmlns="http://www.w3.org/2000/svg">
<path d="M247.269 497.002C383.832 497.002 494.538 433.083 494.538 354.236C494.538 275.389 383.832 211.471 247.269 211.471C110.706 211.471 0 275.389 0 354.236C0 433.083 110.706 497.002 247.269 497.002Z" fill="#EBEBEB"/>
<path d="M72.4197 253.295C28.5665 278.615 4.63322 311.071 0.608643 344.192L264.675 496.675C322.034 494.353 378.265 480.532 422.118 455.212C472.736 425.98 496.77 387.324 494.358 348.995L256.288 211.584C190.057 210.186 123.003 224.086 72.4197 253.295Z" fill="#F5F5F5"/>
<path opacity="0.02" d="M97.2664 419.8L374.399 260.023C385.187 253.811 386.709 244.59 377.781 239.449C368.852 234.309 352.9 235.177 342.112 241.399L65.2051 401.278C54.4165 407.501 52.8044 416.7 61.7103 421.807C70.6163 426.913 86.4778 426.023 97.2664 419.8Z" fill="black"/>
<path d="M323.128 433.373C322.677 428.255 318.336 424.434 314.109 421.491C285.768 401.729 233.031 392.53 223.697 391.549C214.363 390.568 199.504 390.58 191.692 393.578C188.509 395.036 185.841 397.421 184.037 400.421C181.636 404.931 181.783 411.131 185.413 414.671C192.177 421.198 204.194 423.96 213.348 426.113C222.502 428.266 231.904 429.326 240.911 431.998C253.177 435.639 264.371 442.144 276.422 446.462C288.473 450.779 302.351 452.538 313.726 446.732C318.889 444.105 323.624 439.179 323.128 433.373Z" fill="#EBEBEB"/>
<path d="M80.4914 11.7943L70.0072 17.8481C70.0072 17.3746 70.0974 16.9124 70.0974 16.4615V13.4177C70.0974 8.01773 66.2983 5.83071 61.6199 8.52503C59.6056 9.76131 57.8826 11.4188 56.5694 13.3838C55.8028 6.61984 50.4705 4.06079 43.9884 7.74717C36.9876 11.7943 31.3172 21.6246 31.3172 29.7076V34.2169C31.2864 36.0349 31.672 37.8357 32.4445 39.4816L23.6851 44.611C22.3151 45.5034 21.1752 46.7068 20.3583 48.1232C19.5414 49.5395 19.0706 51.1288 18.9841 52.7616C18.9841 55.749 21.081 56.9665 23.6851 55.4672L80.4914 22.6731C81.8593 21.781 82.9978 20.5793 83.8145 19.1651C84.6312 17.751 85.1033 16.1643 85.1924 14.5337C85.1924 11.5125 83.0843 10.2949 80.4914 11.7943Z" fill="#EBEBEB"/>
<path d="M144.423 33.8222L136.531 38.3315C136.576 37.9839 136.599 37.6337 136.599 37.2831V35.0284C136.599 30.9475 133.735 29.2903 130.207 31.3308C128.69 32.2663 127.391 33.5155 126.396 34.9946C125.822 29.8765 121.797 27.9601 116.904 30.7784C111.617 33.8335 107.333 41.2513 107.333 47.3615V50.7435C107.299 52.1106 107.577 53.4676 108.145 54.7117L101.573 58.5108C100.538 59.1825 99.6775 60.0893 99.0604 61.157C98.4432 62.2247 98.0873 63.4232 98.0215 64.6548C98.0215 66.9094 99.611 67.8338 101.573 66.6952L144.411 41.8939C145.442 41.2182 146.3 40.3105 146.916 39.2436C147.533 38.1767 147.891 36.9802 147.962 35.7499C147.974 33.608 146.384 32.6949 144.423 33.8222Z" fill="#EBEBEB"/>
<path d="M73.006 385.586C73.006 385.586 76.5684 368.158 72.4649 352.375C68.3614 336.592 59.5118 324.699 49.0615 320.359C38.6111 316.018 26.729 323.064 35.9957 333.571C45.2623 344.078 63.4011 357.651 64.5285 386.048L73.006 385.586Z" fill="#0F0742"/>
<path opacity="0.15" d="M73.006 385.586C73.006 385.586 76.5684 368.158 72.4649 352.375C68.3614 336.592 59.5118 324.699 49.0615 320.359C38.6111 316.018 26.729 323.064 35.9957 333.571C45.2623 344.078 63.4011 357.651 64.5285 386.048L73.006 385.586Z" fill="black"/>
<path d="M71.2812 380.198H71.4052C71.4847 380.193 71.5626 380.173 71.6342 380.139C71.7058 380.104 71.7698 380.055 71.8223 379.995C71.8748 379.935 71.9148 379.865 71.94 379.79C71.9651 379.714 71.975 379.635 71.9688 379.555C69.7142 347.99 51.9812 329.332 42.8949 323.876C42.8276 323.835 42.7529 323.808 42.675 323.796C42.5972 323.784 42.5177 323.788 42.4412 323.806C42.3648 323.825 42.2928 323.859 42.2294 323.906C42.166 323.953 42.1125 324.012 42.072 324.079C42.031 324.146 42.0038 324.221 41.9918 324.299C41.9798 324.377 41.9834 324.456 42.0022 324.533C42.0211 324.609 42.0549 324.681 42.1017 324.745C42.1485 324.808 42.2073 324.862 42.2749 324.902C51.1696 330.257 68.5643 348.576 70.7626 379.645C70.7739 379.782 70.8313 379.912 70.9255 380.012C71.0196 380.112 71.145 380.178 71.2812 380.198Z" fill="white"/>
<path d="M20.9684 358.012C19.841 361.53 22.3099 363.976 24.6773 365.96C26.4923 367.471 28.4877 369.128 28.9837 371.45C29.987 376.14 24.4744 380.469 25.6017 385.113C25.9252 386.069 26.4398 386.948 27.1143 387.698C27.7888 388.448 28.609 389.053 29.5248 389.476C31.0493 390.194 32.611 390.83 34.2032 391.381C34.9429 391.611 35.6958 391.795 36.4579 391.934C38.8098 392.16 41.0231 393.15 42.7597 394.752C45.3187 397.537 45.0144 401.809 45.9162 405.484V405.608C46.3861 407.387 47.2841 409.024 48.5321 410.376C49.78 411.728 51.3399 412.754 53.0756 413.364C54.8113 413.975 56.67 414.151 58.4895 413.878C60.309 413.605 62.034 412.89 63.5139 411.797L76.467 402.576C81.5963 395.665 80.2999 383.287 72.0704 379.251C70.323 378.394 68.3276 377.887 66.941 376.523C65.25 374.877 64.8329 372.341 64.6863 369.984C64.5398 367.628 64.6863 365.171 63.7281 363.018C62.3866 360.008 59.2188 358.181 55.9495 357.618C52.1617 356.964 48.3738 358.508 44.7776 357.201C41.1814 355.893 37.8558 353.819 34.1356 352.838C30.0434 351.823 25.3537 352.364 22.3099 355.667C21.6937 356.339 21.2353 357.14 20.9684 358.012Z" fill="#0F0742"/>
<path d="M58.9143 378.676C58.8814 378.589 58.8223 378.514 58.7452 378.462C49.1178 364.776 34.0115 358.339 28.916 357.2C28.8471 357.184 28.7755 357.181 28.7056 357.193C28.6357 357.204 28.5688 357.23 28.5089 357.267C28.449 357.305 28.3973 357.355 28.3568 357.413C28.3164 357.471 28.288 357.537 28.2734 357.606C28.2569 357.674 28.2543 357.745 28.266 357.814C28.2776 357.884 28.3032 357.95 28.3412 358.009C28.3791 358.068 28.4286 358.118 28.4867 358.158C28.5448 358.197 28.6103 358.224 28.6792 358.237C33.5155 359.365 47.5395 365.306 56.9753 377.83C53.1299 376.534 49.0582 376.046 45.0154 376.397C40.9726 376.748 37.0459 377.931 33.4816 379.871C33.3627 379.949 33.2795 380.071 33.25 380.211C33.2204 380.35 33.247 380.495 33.3238 380.615C33.3716 380.686 33.4351 380.746 33.5093 380.789C33.5836 380.832 33.6666 380.857 33.7522 380.863C33.8599 380.861 33.9651 380.83 34.0566 380.773C37.7102 378.792 41.7532 377.636 45.9015 377.384C50.0498 377.133 54.2028 377.793 58.0688 379.319C63.6929 387.37 66.5133 397.047 66.0954 406.859C66.0891 406.993 66.1348 407.124 66.2231 407.225C66.3114 407.326 66.4353 407.389 66.5689 407.4C66.6394 407.403 66.7098 407.392 66.776 407.368C66.8421 407.343 66.9027 407.306 66.9542 407.257C67.0056 407.209 67.0469 407.151 67.0756 407.086C67.1043 407.022 67.1198 406.952 67.1213 406.882C67.5624 396.833 64.6778 386.919 58.9143 378.676Z" fill="white"/>
<path d="M380.757 246.574V44.4661C380.755 41.3011 379.921 38.1921 378.338 35.4515C376.755 32.7108 374.479 30.435 371.738 28.8525L325.946 2.41654C323.204 0.833437 320.093 0 316.927 0C313.761 0 310.65 0.833437 307.908 2.41654L115.585 113.459C112.843 115.039 110.564 117.314 108.979 120.054L63.1869 199.373C61.6052 202.115 60.7732 205.226 60.7744 208.392V410.488C60.7744 413.16 62.5331 415.821 66.0503 417.85C73.0962 421.92 84.516 421.92 91.5619 417.85C95.0904 415.821 96.8491 413.16 96.8491 410.488V213.205L137.805 142.262L316.927 38.8632L344.682 54.8826V246.529C344.682 249.201 346.441 251.873 349.969 253.902C357.015 257.972 368.435 257.972 375.481 253.902C379.009 251.861 380.768 249.201 380.757 246.529V246.574Z" fill="#455A64"/>
<path d="M96.849 213.228C96.849 213.228 91.0996 205.337 73.8965 203.703C73.8965 203.703 86.1393 200.321 99.5997 208.46L96.849 213.228Z" fill="#37474F"/>
<path d="M137.805 142.284C137.805 142.284 139.248 132.815 128.899 124.766C128.899 124.766 138.414 127.64 141.627 140.075L137.805 142.284Z" fill="#37474F"/>
<path d="M316.927 38.8645C320.309 35.4149 323.094 26.5653 322.395 18.6289C322.395 18.6289 326.397 26.9712 320.523 40.9388L316.927 38.8645Z" fill="#37474F"/>
<path d="M344.682 54.883C353.926 55.255 363.035 51.7941 367.319 45.5938C367.319 45.5938 363.689 58.0959 344.682 59.3472V54.883Z" fill="#37474F"/>
<path d="M276.343 62.2889V32.0313C276.343 30.4755 275.216 29.8442 273.908 30.6221L159.72 96.5372C159.012 97.002 158.422 97.6267 157.999 98.361C157.577 99.0953 157.332 99.9186 157.285 100.765V131.034L276.343 62.2889Z" fill="#37474F"/>
<path d="M278.609 25.1668C278.331 25.037 278.023 24.9842 277.718 25.0139C277.413 25.0437 277.121 25.1549 276.873 25.3359L162.719 91.2511C162.007 91.7133 161.415 92.3371 160.99 93.0717C160.565 93.8064 160.319 94.6311 160.273 95.4786V137.438C160.241 137.741 160.291 138.048 160.418 138.326C160.544 138.604 160.744 138.842 160.994 139.016L165.571 141.654C165.847 141.784 166.154 141.837 166.457 141.807C166.761 141.778 167.051 141.666 167.296 141.485L281.45 75.5586C282.162 75.0964 282.755 74.4726 283.18 73.7379C283.605 73.0033 283.85 72.1786 283.896 71.3311V29.383C283.928 29.0767 283.877 28.7674 283.748 28.4877C283.619 28.2079 283.417 27.9681 283.164 27.7935L278.609 25.1668Z" fill="#0F0742"/>
<path d="M167.229 93.9001L281.45 27.9737C282.803 27.1958 283.896 27.8271 283.896 29.3828V71.3309C283.85 72.1784 283.605 73.0031 283.18 73.7377C282.754 74.4723 282.162 75.0962 281.45 75.5584L167.229 141.485C165.876 142.263 164.782 141.631 164.782 140.076V98.1276C164.828 97.2801 165.074 96.4554 165.499 95.7207C165.924 94.9861 166.517 94.3623 167.229 93.9001Z" fill="#0F0742"/>
<path opacity="0.15" d="M164.827 140.075C164.805 140.35 164.845 140.627 164.945 140.884C165.044 141.142 165.201 141.374 165.402 141.563L160.961 139.004C160.712 138.828 160.515 138.589 160.39 138.312C160.265 138.034 160.217 137.728 160.25 137.425V95.4774C160.278 94.6279 160.527 93.8003 160.972 93.0762L165.549 95.7141C165.103 96.4422 164.855 97.2735 164.827 98.1266V140.075Z" fill="black"/>
<path opacity="0.4" d="M278.609 25.1658L283.039 27.7023C282.773 27.6212 282.491 27.6014 282.216 27.6444C281.941 27.6873 281.679 27.7919 281.45 27.9503L167.228 93.8993C166.508 94.3469 165.914 94.9718 165.504 95.7143L160.972 93.0876C161.382 92.3419 161.975 91.7132 162.696 91.2613L276.873 25.3236C277.123 25.1466 277.415 25.0388 277.72 25.011C278.024 24.9833 278.331 25.0367 278.609 25.1658Z" fill="white"/>
<path d="M196.618 87.8686C196.681 87.81 196.763 87.7773 196.849 87.7773C196.935 87.7773 197.018 87.81 197.08 87.8686C197.218 88.0358 197.287 88.2497 197.272 88.4661V92.4231C197.268 92.7079 197.202 92.9885 197.08 93.246C196.985 93.4752 196.824 93.6713 196.618 93.8097L189.369 97.9921V103.099L196.133 99.1983C196.198 99.1442 196.28 99.1146 196.364 99.1146C196.449 99.1146 196.531 99.1442 196.596 99.1983C196.666 99.2802 196.718 99.3752 196.751 99.4778C196.784 99.5804 196.796 99.6885 196.787 99.7958V103.741C196.784 104.026 196.719 104.307 196.596 104.564C196.5 104.794 196.339 104.99 196.133 105.128L189.369 109.029V117.089C189.371 117.371 189.305 117.649 189.178 117.901C189.086 118.135 188.925 118.336 188.715 118.476L185.548 120.302C185.483 120.356 185.401 120.386 185.317 120.386C185.232 120.386 185.15 120.356 185.085 120.302C184.945 120.136 184.876 119.921 184.894 119.705V95.6359C184.899 95.3512 184.965 95.0708 185.085 94.813C185.184 94.5857 185.344 94.3905 185.548 94.2493L196.618 87.8686Z" fill="#FAFAFA"/>
<path d="M200.496 111.734C200.432 111.79 200.35 111.821 200.265 111.821C200.18 111.821 200.098 111.79 200.034 111.734C199.962 111.653 199.908 111.558 199.875 111.455C199.842 111.352 199.831 111.244 199.842 111.136V87.0115C199.841 86.726 199.906 86.4441 200.034 86.1885C200.125 85.9571 200.287 85.76 200.496 85.6249L203.664 83.7986C203.729 83.7445 203.81 83.7148 203.895 83.7148C203.979 83.7148 204.061 83.7445 204.126 83.7986C204.264 83.9658 204.333 84.1797 204.318 84.3961V108.487C204.315 108.772 204.249 109.053 204.126 109.31C204.031 109.539 203.87 109.735 203.664 109.874L200.496 111.734Z" fill="#FAFAFA"/>
<path d="M218.736 101.206C218.637 101.274 218.519 101.311 218.398 101.311C218.277 101.311 218.159 101.274 218.06 101.206C217.928 101.117 217.817 101.002 217.733 100.867L212.186 91.3189V103.923C212.188 104.208 212.122 104.49 211.995 104.745C211.903 104.977 211.742 105.174 211.533 105.309L208.365 107.135C208.302 107.194 208.22 107.227 208.134 107.227C208.048 107.227 207.965 107.194 207.903 107.135C207.762 106.969 207.693 106.755 207.711 106.538V82.4694C207.715 82.1845 207.781 81.9039 207.903 81.6464C207.994 81.415 208.156 81.2179 208.365 81.0827L210.879 79.6285C211.161 79.4706 211.375 79.4481 211.544 79.6285C211.674 79.7137 211.786 79.825 211.871 79.9554L217.417 89.5039V76.8552C217.42 76.5725 217.49 76.2945 217.62 76.0436C217.708 75.8133 217.866 75.6162 218.071 75.4799L221.25 73.6423C221.315 73.5882 221.397 73.5586 221.481 73.5586C221.566 73.5586 221.648 73.5882 221.712 73.6423C221.853 73.8084 221.922 74.0232 221.904 74.2398V98.3309C221.899 98.6157 221.833 98.8961 221.712 99.1539C221.614 99.3811 221.454 99.5764 221.25 99.7175L218.736 101.206Z" fill="#FAFAFA"/>
<path d="M225.951 97.0327C225.887 97.089 225.805 97.12 225.72 97.12C225.635 97.12 225.553 97.089 225.489 97.0327C225.417 96.9519 225.363 96.857 225.33 96.7542C225.297 96.6513 225.286 96.5427 225.297 96.4352V72.3103C225.297 72.0249 225.363 71.7433 225.489 71.4874C225.581 71.2559 225.742 71.0589 225.951 70.9237L229.119 69.0974C229.184 69.0433 229.266 69.0137 229.35 69.0137C229.435 69.0137 229.516 69.0433 229.581 69.0974C229.651 69.1793 229.704 69.2743 229.737 69.3769C229.77 69.4795 229.782 69.5876 229.773 69.6949V93.786C229.769 94.0673 229.703 94.3442 229.581 94.5977C229.49 94.8291 229.328 95.0262 229.119 95.1613L225.951 97.0327Z" fill="#FAFAFA"/>
<path d="M239.468 62.7524C240.324 62.2098 241.299 61.8847 242.309 61.8055C243.091 61.7389 243.875 61.9035 244.564 62.2789C245.183 62.6314 245.691 63.1509 246.029 63.7783C246.384 64.4491 246.574 65.1951 246.582 65.954C246.584 66.1853 246.53 66.4138 246.424 66.6192C246.357 66.8022 246.235 66.9598 246.074 67.0701L242.906 68.8964C242.746 69.0126 242.552 69.0721 242.354 69.0655C242.2 69.0335 242.057 68.9637 241.937 68.8626C241.881 68.8626 241.813 68.7386 241.7 68.6258C241.579 68.4967 241.428 68.3998 241.261 68.344C241.018 68.2614 240.758 68.242 240.505 68.2876C240.129 68.3529 239.769 68.4907 239.446 68.6935C239.133 68.8728 238.835 69.0764 238.555 69.3022C238.283 69.5204 238.033 69.7659 237.811 70.035C237.584 70.2968 237.401 70.5938 237.27 70.9143C237.133 71.2508 237.064 71.6109 237.067 71.974C237.044 72.2592 237.124 72.5432 237.292 72.7744C237.513 72.9473 237.791 73.0317 238.07 73.0111C238.558 72.9955 239.042 72.9236 239.513 72.797L241.768 72.222C242.52 71.9957 243.305 71.8929 244.09 71.9176C244.698 71.9368 245.281 72.1591 245.747 72.5489C246.238 72.9884 246.584 73.5662 246.739 74.2061C246.985 75.1361 247.096 76.0968 247.066 77.0583C247.069 78.319 246.883 79.573 246.514 80.7785C246.141 81.9906 245.615 83.1499 244.947 84.2281C244.287 85.323 243.491 86.3305 242.58 87.2268C241.678 88.101 240.671 88.8584 239.581 89.4815C238.67 90.0477 237.647 90.4093 236.582 90.5412C235.779 90.6368 234.965 90.4875 234.249 90.1128C233.583 89.7533 233.044 89.1985 232.704 88.5232C232.318 87.7622 232.121 86.9192 232.129 86.0657C232.128 85.8358 232.178 85.6086 232.276 85.4005C232.35 85.2188 232.476 85.0623 232.636 84.9496L235.804 83.1233C235.959 83.0124 236.144 82.9497 236.334 82.9429C236.479 82.96 236.616 83.0187 236.729 83.1121L237.022 83.4277C237.164 83.5929 237.341 83.724 237.54 83.811C237.797 83.9303 238.081 83.9808 238.363 83.9576C238.797 83.899 239.213 83.745 239.581 83.5066C240.379 83.0674 241.102 82.5042 241.723 81.8382C242.269 81.2986 242.581 80.5655 242.591 79.7977C242.608 79.6569 242.588 79.5141 242.532 79.3836C242.477 79.253 242.388 79.1393 242.275 79.0537C241.983 78.9064 241.651 78.8551 241.328 78.9071C240.782 78.9631 240.243 79.0687 239.716 79.2227C239.062 79.4031 238.296 79.5948 237.405 79.809C235.737 80.2261 234.53 80.0119 233.764 79.1777C232.997 78.3434 232.636 76.8441 232.636 74.6683C232.636 73.5252 232.792 72.3874 233.099 71.2863C233.423 70.1091 233.885 68.974 234.474 67.9043C235.071 66.8136 235.798 65.7991 236.639 64.8831C237.47 64.035 238.423 63.3167 239.468 62.7524Z" fill="#FAFAFA"/>
<path d="M263.176 49.4373C263.241 49.3832 263.322 49.3535 263.407 49.3535C263.491 49.3535 263.573 49.3832 263.638 49.4373C263.708 49.5192 263.761 49.6142 263.794 49.7167C263.827 49.8193 263.839 49.9274 263.83 50.0347V74.1484C263.827 74.4334 263.761 74.7143 263.638 74.9714C263.546 75.2028 263.385 75.3999 263.176 75.535L260.008 77.3726C259.944 77.4288 259.862 77.4599 259.777 77.4599C259.692 77.4599 259.61 77.4288 259.546 77.3726C259.474 77.2917 259.42 77.1969 259.387 77.094C259.354 76.9911 259.343 76.8825 259.354 76.7751V67.5986L254.033 70.71V79.8414C254.031 80.1279 253.962 80.4099 253.83 80.6644C253.739 80.8958 253.577 81.0929 253.368 81.2281L250.2 83.0656C250.134 83.1177 250.053 83.1461 249.969 83.1461C249.885 83.1461 249.804 83.1177 249.738 83.0656C249.665 82.9831 249.611 82.8863 249.578 82.7815C249.545 82.6766 249.534 82.5661 249.546 82.4568V58.3432C249.551 58.0583 249.616 57.7777 249.738 57.5202C249.833 57.291 249.994 57.0949 250.2 56.9566L253.368 55.1303C253.432 55.074 253.514 55.043 253.599 55.043C253.684 55.043 253.766 55.074 253.83 55.1303C253.903 55.2109 253.958 55.3055 253.993 55.4082C254.028 55.5109 254.042 55.6196 254.033 55.7278V64.7464L259.411 61.635V52.6163C259.41 52.331 259.476 52.0494 259.602 51.7934C259.694 51.562 259.855 51.3649 260.064 51.2297L263.176 49.4373Z" fill="#FAFAFA"/>
<path d="M250.065 99.8525C249.789 99.7174 249.481 99.6607 249.175 99.6885C248.869 99.7164 248.576 99.8277 248.329 100.01L201.466 127.066C200.755 127.529 200.164 128.153 199.741 128.888C199.318 129.623 199.074 130.447 199.031 131.294V152.104C199 152.409 199.05 152.717 199.177 152.996C199.304 153.276 199.502 153.516 199.752 153.694L204.329 156.332C204.606 156.46 204.911 156.511 205.214 156.481C205.518 156.452 205.807 156.342 206.054 156.163L252.917 129.107C253.629 128.645 254.222 128.021 254.647 127.286C255.072 126.551 255.317 125.727 255.363 124.879V104.024C255.397 103.717 255.346 103.407 255.217 103.127C255.088 102.847 254.885 102.608 254.631 102.434L250.065 99.8525Z" fill="#455A64"/>
<path d="M203.608 154.732C203.584 155.007 203.622 155.283 203.72 155.54C203.817 155.798 203.972 156.03 204.171 156.22L199.741 153.661C199.489 153.488 199.289 153.25 199.162 152.972C199.035 152.694 198.986 152.387 199.019 152.083V131.272C199.047 130.423 199.296 129.595 199.741 128.871L204.318 131.509C203.881 132.24 203.637 133.07 203.608 133.922V154.732Z" fill="#263238"/>
<path d="M250.065 99.8514L254.495 102.41C254.229 102.329 253.947 102.31 253.672 102.352C253.397 102.395 253.135 102.5 252.906 102.658L206.043 129.714C205.327 130.168 204.735 130.792 204.318 131.529L199.741 128.891C200.151 128.142 200.75 127.513 201.477 127.065L248.329 100.009C248.579 99.8322 248.871 99.7243 249.176 99.6966C249.48 99.6689 249.787 99.7223 250.065 99.8514Z" fill="#37474F"/>
<path d="M211.194 132.546C211.58 132.302 212.015 132.148 212.468 132.095C212.769 132.046 213.077 132.106 213.336 132.264C213.564 132.426 213.746 132.643 213.866 132.895C214.003 133.141 214.098 133.408 214.148 133.684C214.193 133.937 214.216 134.194 214.216 134.451V140.922C214.213 141.205 214.19 141.487 214.148 141.767C214.089 142.151 213.994 142.528 213.866 142.895C213.731 143.325 213.554 143.74 213.336 144.135C212.831 145.045 212.091 145.804 211.194 146.333C210.899 146.509 210.58 146.642 210.248 146.728C210.007 146.787 209.755 146.787 209.515 146.728C209.313 146.7 209.122 146.618 208.962 146.491C208.809 146.369 208.679 146.22 208.579 146.051C208.485 145.874 208.405 145.689 208.342 145.499C208.288 145.306 208.247 145.111 208.218 144.913C208.207 144.736 208.207 144.559 208.218 144.383V137.912C208.208 137.72 208.208 137.528 208.218 137.337C208.218 137.123 208.286 136.886 208.342 136.604C208.399 136.322 208.489 136.052 208.579 135.77C208.691 135.47 208.819 135.177 208.962 134.891C209.118 134.584 209.303 134.294 209.515 134.023C209.734 133.73 209.979 133.458 210.248 133.211C210.54 132.957 210.857 132.734 211.194 132.546ZM211.194 145.6C211.451 145.443 211.682 145.25 211.882 145.025C212.071 144.81 212.23 144.572 212.356 144.315C212.47 144.067 212.564 143.811 212.637 143.549C212.708 143.313 212.757 143.071 212.784 142.827C212.8 142.628 212.8 142.428 212.784 142.23V134.8C212.801 134.617 212.801 134.432 212.784 134.248C212.76 134.058 212.711 133.872 212.637 133.696C212.572 133.53 212.472 133.38 212.344 133.256C212.215 133.148 212.051 133.091 211.882 133.098C211.638 133.109 211.401 133.183 211.194 133.312C210.935 133.459 210.705 133.655 210.518 133.887C210.327 134.096 210.168 134.332 210.045 134.586C209.927 134.833 209.833 135.089 209.763 135.353C209.692 135.592 209.643 135.837 209.616 136.086C209.6 136.284 209.6 136.484 209.616 136.683V144.157C209.599 144.341 209.599 144.526 209.616 144.71C209.637 144.9 209.686 145.086 209.763 145.262C209.823 145.428 209.919 145.578 210.045 145.702C210.178 145.812 210.345 145.872 210.518 145.871C210.76 145.858 210.993 145.78 211.194 145.645V145.6Z" fill="#0F0742"/>
<path d="M215.704 130.751L218.037 128.699V142.227L216.64 143.039V131.551C216.656 131.376 216.621 131.2 216.538 131.044C216.47 130.965 216.38 130.954 216.256 131.044L215.704 131.416V130.751Z" fill="#0F0742"/>
<path d="M220.991 130.527V131.959C220.999 132.034 220.999 132.109 220.991 132.184C220.976 132.241 220.944 132.292 220.901 132.331C220.832 132.411 220.748 132.476 220.653 132.522L219.965 132.928C219.807 133.018 219.717 133.041 219.672 133.018C219.627 132.996 219.672 132.906 219.672 132.77V131.192C219.672 131.192 219.672 131.124 219.672 131.068C219.696 131.01 219.735 130.959 219.785 130.922C219.847 130.866 219.915 130.817 219.988 130.775L220.675 130.38C220.845 130.29 220.935 130.256 220.98 130.29C221.025 130.324 220.991 130.403 220.991 130.527ZM220.991 139.095V140.526C220.999 140.601 220.999 140.677 220.991 140.752C220.976 140.808 220.944 140.859 220.901 140.898C220.832 140.978 220.748 141.043 220.653 141.09L219.965 141.496C219.807 141.586 219.717 141.609 219.672 141.586C219.627 141.564 219.672 141.473 219.672 141.338V139.76C219.672 139.76 219.672 139.692 219.672 139.636C219.699 139.579 219.737 139.529 219.785 139.489C219.847 139.433 219.915 139.384 219.988 139.343L220.675 138.948C220.845 138.858 220.935 138.824 220.98 138.858C221.025 138.892 220.991 138.971 220.991 139.095Z" fill="#0F0742"/>
<path d="M225.636 124.281C226.021 124.034 226.456 123.876 226.91 123.819C227.211 123.774 227.519 123.838 227.778 123.999C228.002 124.159 228.184 124.372 228.307 124.619C228.442 124.866 228.537 125.132 228.589 125.408C228.634 125.661 228.656 125.918 228.657 126.175V132.646C228.655 132.929 228.632 133.211 228.589 133.491C228.531 133.875 228.436 134.252 228.307 134.618C228.171 135.048 227.993 135.463 227.778 135.859C227.537 136.269 227.245 136.648 226.91 136.986C226.537 137.385 226.108 137.727 225.636 138C225.34 138.176 225.021 138.309 224.689 138.395C224.447 138.449 224.197 138.449 223.956 138.395C223.756 138.359 223.568 138.278 223.404 138.158C223.25 138.037 223.12 137.888 223.02 137.719C222.926 137.538 222.847 137.349 222.784 137.155C222.728 136.967 222.687 136.774 222.66 136.58C222.649 136.404 222.649 136.227 222.66 136.05V129.568C222.649 129.38 222.649 129.192 222.66 129.004C222.66 128.79 222.727 128.553 222.784 128.272C222.84 127.99 222.93 127.719 223.02 127.437C223.128 127.136 223.256 126.842 223.404 126.558C223.564 126.254 223.748 125.964 223.956 125.69C224.175 125.398 224.42 125.126 224.689 124.878C224.981 124.645 225.299 124.444 225.636 124.281ZM225.636 137.324C225.894 137.175 226.126 136.984 226.323 136.76C226.512 136.546 226.671 136.307 226.797 136.05C226.911 135.803 227.005 135.546 227.079 135.284C227.148 135.048 227.197 134.806 227.225 134.562C227.241 134.359 227.241 134.156 227.225 133.953V126.479C227.242 126.295 227.242 126.11 227.225 125.927C227.203 125.737 227.154 125.551 227.079 125.374C227.013 125.209 226.913 125.059 226.786 124.935C226.658 124.822 226.493 124.762 226.323 124.766C226.079 124.781 225.842 124.859 225.636 124.991C225.379 125.137 225.15 125.328 224.959 125.555C224.771 125.77 224.612 126.008 224.486 126.265C224.367 126.51 224.272 126.767 224.204 127.032C224.135 127.267 224.086 127.509 224.057 127.753C224.057 127.967 224.057 128.17 224.057 128.35V135.836C224.046 136.02 224.046 136.204 224.057 136.388C224.086 136.577 224.136 136.762 224.204 136.941C224.267 137.105 224.363 137.255 224.486 137.38C224.62 137.488 224.788 137.544 224.959 137.538C225.201 137.534 225.436 137.46 225.636 137.324Z" fill="#0F0742"/>
<path d="M230.055 122.399L232.377 120.348V133.932L230.979 134.732V123.245C230.996 123.07 230.96 122.893 230.878 122.738C230.81 122.659 230.72 122.647 230.596 122.738C230.472 122.828 230.382 122.895 230.055 123.177V122.399Z" fill="#0F0742"/>
<path d="M235.387 122.219V123.651C235.394 123.722 235.394 123.794 235.387 123.865C235.373 123.925 235.341 123.98 235.297 124.023C235.228 124.103 235.144 124.168 235.049 124.214L234.361 124.609C234.203 124.699 234.113 124.733 234.068 124.71C234.023 124.688 234.012 124.598 234.012 124.451V122.884C234.009 122.843 234.009 122.801 234.012 122.76C234.035 122.702 234.074 122.651 234.124 122.614C234.184 122.554 234.252 122.505 234.327 122.467L235.015 122.061C235.184 121.971 235.274 121.948 235.319 121.971C235.365 121.994 235.387 122.084 235.387 122.219ZM235.387 130.787V132.218C235.394 132.29 235.394 132.361 235.387 132.433C235.373 132.493 235.341 132.547 235.297 132.59C235.225 132.667 235.141 132.732 235.049 132.782L234.361 133.177C234.203 133.267 234.113 133.301 234.068 133.278C234.023 133.256 234.012 133.165 234.012 133.019V131.418C234.009 131.377 234.009 131.335 234.012 131.294C234.035 131.236 234.074 131.185 234.124 131.148C234.184 131.088 234.252 131.039 234.327 131.001L235.015 130.595C235.184 130.505 235.274 130.482 235.319 130.505C235.365 130.527 235.387 130.651 235.387 130.787Z" fill="#0F0742"/>
<path d="M240.032 115.963C240.42 115.724 240.854 115.57 241.306 115.512C241.607 115.46 241.918 115.524 242.174 115.692C242.401 115.85 242.583 116.063 242.703 116.312C242.84 116.558 242.935 116.825 242.985 117.101C243.03 117.355 243.052 117.611 243.053 117.868V124.339C243.05 124.622 243.028 124.904 242.985 125.184C242.927 125.568 242.832 125.946 242.703 126.312C242.567 126.737 242.389 127.149 242.174 127.54C241.938 127.975 241.646 128.377 241.306 128.735C240.933 129.131 240.504 129.469 240.032 129.739C239.737 129.918 239.418 130.054 239.085 130.145C238.843 130.193 238.594 130.193 238.352 130.145C238.152 130.104 237.963 130.02 237.8 129.897C237.649 129.776 237.519 129.632 237.416 129.468C237.322 129.287 237.243 129.099 237.18 128.905C237.123 128.713 237.082 128.517 237.056 128.318C237.044 128.142 237.044 127.965 237.056 127.788V121.318C237.046 121.126 237.046 120.934 237.056 120.743C237.056 120.54 237.123 120.292 237.18 120.021C237.236 119.751 237.326 119.469 237.416 119.187C237.638 118.557 237.954 117.964 238.352 117.428C238.571 117.14 238.817 116.872 239.085 116.628C239.377 116.375 239.694 116.152 240.032 115.963ZM240.032 129.017C240.295 128.87 240.528 128.675 240.719 128.442C240.913 128.231 241.072 127.992 241.193 127.732C241.314 127.487 241.408 127.23 241.475 126.966C241.545 126.73 241.594 126.488 241.621 126.244C241.638 126.045 241.638 125.845 241.621 125.647V118.172C241.638 117.985 241.638 117.796 241.621 117.609C241.599 117.422 241.549 117.24 241.475 117.068C241.413 116.9 241.313 116.749 241.182 116.628C241.12 116.57 241.047 116.525 240.968 116.496C240.888 116.467 240.804 116.455 240.719 116.459C240.475 116.469 240.238 116.543 240.032 116.673C239.774 116.824 239.545 117.018 239.355 117.248C239.164 117.461 239.005 117.7 238.882 117.958C238.664 118.43 238.52 118.931 238.453 119.446C238.443 119.645 238.443 119.845 238.453 120.044V127.518C238.442 127.706 238.442 127.894 238.453 128.082C238.482 128.27 238.532 128.456 238.6 128.634C238.666 128.797 238.761 128.946 238.882 129.074C239.016 129.181 239.184 129.237 239.355 129.231C239.596 129.222 239.83 129.148 240.032 129.017Z" fill="#0F0742"/>
<path d="M247.878 125.206C247.531 125.415 247.149 125.56 246.75 125.634C246.49 125.716 246.211 125.716 245.95 125.634C245.749 125.539 245.569 125.405 245.42 125.24C245.266 125.058 245.151 124.847 245.082 124.62C245.007 124.399 244.951 124.173 244.913 123.943C244.902 123.733 244.902 123.522 244.913 123.312V116.762C244.903 116.571 244.903 116.379 244.913 116.187C244.913 115.984 244.992 115.736 245.059 115.454C245.126 115.168 245.209 114.886 245.307 114.609C245.422 114.305 245.553 114.007 245.702 113.718C245.865 113.412 246.049 113.118 246.254 112.839C246.474 112.544 246.724 112.272 246.998 112.027C247.292 111.761 247.614 111.527 247.957 111.328L248.182 111.193C248.562 110.995 248.968 110.851 249.388 110.765C249.755 110.66 250.136 110.618 250.516 110.641L250.279 111.599L249.231 111.678C248.866 111.683 248.507 111.771 248.182 111.937C247.852 112.129 247.564 112.386 247.337 112.692C247.092 112.987 246.894 113.318 246.75 113.673C246.62 113.984 246.514 114.304 246.435 114.631C246.372 114.898 246.338 115.17 246.333 115.443V117.889L247.754 116.198C247.98 115.944 248.221 115.703 248.475 115.477C248.66 115.317 248.856 115.17 249.061 115.037C249.249 114.885 249.481 114.798 249.723 114.788C249.964 114.777 250.203 114.845 250.403 114.981C250.611 115.155 250.772 115.378 250.873 115.63C250.973 115.882 251.009 116.155 250.978 116.424V120.144C250.975 120.363 250.956 120.582 250.922 120.798C250.873 121.076 250.809 121.35 250.73 121.621C250.643 121.944 250.522 122.258 250.369 122.557C250.202 122.881 250.014 123.193 249.806 123.492C249.573 123.828 249.3 124.135 248.994 124.405C248.651 124.711 248.277 124.979 247.878 125.206ZM246.311 118.509V122.962C246.299 123.146 246.299 123.331 246.311 123.515C246.33 123.708 246.376 123.898 246.446 124.078C246.499 124.248 246.592 124.402 246.717 124.529C246.776 124.588 246.846 124.633 246.924 124.662C247.002 124.692 247.085 124.704 247.168 124.698C247.408 124.696 247.642 124.626 247.844 124.496C248.087 124.347 248.304 124.161 248.487 123.943C248.672 123.726 248.831 123.488 248.96 123.233C249.088 122.98 249.194 122.716 249.276 122.444C249.361 122.202 249.425 121.953 249.467 121.7C249.501 121.498 249.52 121.295 249.524 121.091V117.619C249.56 117.181 249.458 116.743 249.231 116.367C249.188 116.307 249.134 116.256 249.071 116.217C249.008 116.179 248.937 116.154 248.864 116.145C248.791 116.135 248.716 116.141 248.646 116.162C248.575 116.183 248.509 116.218 248.453 116.266C248.254 116.397 248.075 116.556 247.923 116.739L246.311 118.509Z" fill="#0F0742"/>
<path d="M272.657 267.123C261.383 269.986 255.645 267.979 246.863 265.33C244.789 282.95 240.911 308.676 237.394 330.783C230.461 329.272 225.861 330.039 219.458 331.403C216.493 332.046 212.694 332.981 209.65 333.398C206.606 333.816 202.041 334.898 200.214 334.154C197.96 333.218 196.686 331.55 194.048 331.809C192.973 331.914 191.934 332.25 191.002 332.795C190.07 333.34 189.267 334.08 188.648 334.965C186.844 337.648 187.025 341.188 185.762 344.164C184.612 346.512 182.952 348.572 180.903 350.196C180.284 350.712 179.703 351.273 179.167 351.875C178.301 353.047 177.683 354.383 177.349 355.802C177.016 357.221 176.975 358.692 177.228 360.127C177.589 362.315 178.727 367.433 181.94 366.395C182.8 366.071 183.528 365.472 184.015 364.693C184.48 363.919 184.898 363.117 185.266 362.292C185.671 361.516 186.119 360.763 186.607 360.037C188.675 357.187 191.113 354.624 193.856 352.417C195.119 351.289 196.381 350.331 197.644 349.26C198.771 348.336 200.474 346.904 201.973 346.836C207.024 346.705 212.079 346.856 217.113 347.287C224.914 347.896 233.245 348.899 238.318 349.542C248.464 350.838 251.846 350.771 255.893 343.691C260.177 336.262 265.228 323.298 268.756 311.517C273.294 297.183 274.625 282.028 272.657 267.123Z" fill="#F28F8F"/>
<path d="M274.088 279.512C274.573 285.036 272.77 301.946 268.452 316.612L239.705 315.654L240.618 281.248L274.088 279.512Z" fill="#37474F"/>
<path d="M202.683 334.469C202.683 333.466 201.274 333.015 200.203 333.342C199.646 333.522 199.1 333.736 198.569 333.984C199.84 334.628 201.298 334.799 202.683 334.469Z" fill="#0F0742"/>
<g opacity="0.3">
<path d="M202.683 334.469C202.683 333.466 201.274 333.015 200.203 333.342C199.646 333.522 199.1 333.736 198.569 333.984C199.84 334.628 201.298 334.799 202.683 334.469Z" fill="black"/>
</g>
<path d="M189.843 357.488C191.714 355.234 198.039 349.259 200.045 348.075C202.052 346.891 203.878 347.568 203.033 345.448C202.187 343.329 201.364 340.263 200.023 340.15C198.681 340.037 195.874 341.661 192.639 344.738C190.245 347.268 188.198 350.103 186.551 353.171L189.843 357.488Z" fill="#0F0742"/>
<path opacity="0.1" d="M189.843 357.488C191.714 355.234 198.039 349.259 200.045 348.075C202.052 346.891 203.878 347.568 203.033 345.448C202.187 343.329 201.364 340.263 200.023 340.15C198.681 340.037 195.874 341.661 192.639 344.738C190.245 347.268 188.198 350.103 186.551 353.171L189.843 357.488Z" fill="black"/>
<path d="M180.486 369.72C179.584 370.036 177.792 370.081 175.729 367.24C174.549 365.439 173.804 363.389 173.552 361.251C173.3 359.112 173.547 356.945 174.275 354.919C176.078 349.643 179.911 347.85 181.512 345.088C183.586 341.56 183.53 337.524 184.049 334.863C184.669 331.763 186.393 331.729 187.216 331.763C188.039 331.797 190.226 332.022 190.226 332.022L180.486 369.72Z" fill="#EBEBEB"/>
<path d="M202.683 334.47C202.142 332.982 200.429 333.242 199.301 333.715C198.174 334.188 196.596 334.842 196.415 336.026C196.235 337.21 198.546 337.886 198.794 339.16C199.042 340.434 197.08 342.08 194.702 344.323C192.323 346.567 187.194 352.587 187.34 353.342C187.487 354.097 189.775 356.329 189.82 357.479C188.321 359.359 187.133 361.468 186.303 363.725C185.649 365.799 185.108 367.479 184.759 368.347C184.409 369.215 181.501 369.891 180.317 369.688C178.367 369.35 174.297 366.092 174.545 359.373C174.793 352.654 178.299 351.177 181.388 348.28C184.477 345.383 185.322 338.799 185.728 337.007C186.217 335.091 187.382 333.418 189.009 332.295C190.417 331.636 191.966 331.334 193.518 331.415C196.257 331.494 197.858 332.001 200.011 331.663C202.435 331.28 203.484 334.335 203.484 334.335C203.484 334.335 203.303 334.391 202.683 334.47Z" fill="#0F0742"/>
<path d="M181.704 368.154C181.174 367.027 180.576 365.832 180.148 365.899C179.719 365.967 177.138 366.373 176.18 365.899C175.221 365.426 174.849 364.321 174.398 363.273C173.742 360.664 173.707 357.938 174.297 355.314C175.424 351.571 177.115 350.41 179.663 347.513C181.965 345.174 183.387 342.111 183.688 338.843C184.364 334.582 184.623 333.117 186.1 331.865C185.725 331.844 185.348 331.844 184.973 331.865C184.386 332.391 183.943 333.059 183.688 333.804C183.327 334.932 182.56 341.403 181.692 343.127C180.781 344.94 179.547 346.571 178.051 347.941C176.529 349.61 174.556 351.165 173.474 355.336C172.553 359.254 173.222 363.376 175.334 366.801C177.228 369.529 178.4 369.8 178.863 370.003C179.828 370.148 180.815 370.039 181.726 369.687C182.222 369.405 182.087 368.977 181.704 368.154Z" fill="#455A64"/>
<path d="M187.363 351.955C189.493 353.996 190.485 355.889 190.418 356.836C190.278 357.27 189.991 357.641 189.606 357.885C189.606 357.885 189.336 356.092 186.551 353.173C186.519 352.906 186.584 352.637 186.733 352.414C186.881 352.191 187.105 352.028 187.363 351.955Z" fill="#455A64"/>
<path d="M192.605 354.56C192.196 352.501 191.024 350.673 189.324 349.442C189.334 349.193 189.418 348.953 189.564 348.753C189.711 348.552 189.914 348.399 190.147 348.314C191.911 349.618 193.119 351.538 193.529 353.692C193.529 353.692 193.259 354.504 192.605 354.56Z" fill="#455A64"/>
<path d="M195.705 351.627C195.976 350.094 193.766 346.982 192.379 345.99C192.359 345.851 192.367 345.708 192.404 345.572C192.44 345.435 192.504 345.308 192.592 345.197C192.68 345.086 192.789 344.994 192.913 344.927C193.038 344.86 193.174 344.819 193.315 344.807C195.182 346.22 196.456 348.277 196.889 350.579C196.889 350.579 196.618 351.661 195.705 351.627Z" fill="#455A64"/>
<path d="M198.681 349.068C198.568 347.899 198.222 346.765 197.662 345.732C197.103 344.7 196.341 343.791 195.423 343.059C195.478 342.811 195.607 342.584 195.791 342.41C195.976 342.235 196.209 342.119 196.46 342.078C197.473 342.756 198.308 343.667 198.896 344.734C199.485 345.801 199.809 346.993 199.842 348.211C199.572 348.628 199.159 348.932 198.681 349.068Z" fill="#455A64"/>
<path d="M270.943 314.854C272.071 317.548 271.428 322.554 264.912 328.326C258.396 334.097 245.612 336.217 242.997 331.403C240.381 326.589 246.706 318.732 253.797 315.147C260.887 311.562 268.689 310.66 270.943 314.854Z" fill="#37474F"/>
<path d="M304.324 432.412C304.148 432.197 303.943 432.007 303.715 431.848C303.501 431.679 303.343 431.6 303.151 431.465C296.218 426.279 293.558 422.717 289.172 415.356C288.338 412.853 286.918 409.257 286.579 406.258C286.095 401.354 285.272 394.263 284.663 388.435C283.445 376.767 282.611 364.817 281.878 355.269C280.751 341.109 279.928 338.956 275.554 328.596C270.695 317.097 264.405 304.11 259.546 293.029C264.461 292.702 267.888 288.779 273.705 279.444C273.919 274.935 272.995 272.579 272.476 267.461C267.278 268.562 262.001 269.252 256.694 269.524C246.717 270.166 239.277 269.794 231.712 265.826C229.649 270.572 224.7 277.099 225.174 289.23C225.658 301.63 234.733 314.606 241.52 325.135C246.57 332.959 250.674 340.286 257.066 349.61C256.728 357.129 257.066 362.01 259.377 369.056C260.504 372.438 264.698 381.152 268.396 391.208C270.921 398.107 273.074 404.015 273.423 405.435C274.145 408.377 274.709 411.072 273.593 414.33C273.097 415.75 272.093 417.768 273.175 419.685C274.697 422.379 277.425 422.909 279.579 425.197C281.486 427.107 283.194 429.208 284.674 431.465C285.548 432.857 286.709 434.046 288.08 434.952C289.45 435.858 290.999 436.46 292.622 436.719C294.549 437.169 296.547 437.219 298.494 436.866C300.441 436.513 302.294 435.765 303.94 434.667C304.268 434.446 304.517 434.126 304.651 433.754C304.695 433.52 304.689 433.279 304.632 433.047C304.576 432.816 304.471 432.599 304.324 432.412Z" fill="#FFA8A7"/>
<path d="M225.568 265.363C224.666 272.844 224.263 280.376 224.362 287.91C224.362 298.056 229.266 307.075 234.17 315.609C239.074 324.142 242.997 331.391 242.997 331.391C242.997 331.391 242.58 324.131 251.226 317.728C260.527 310.851 269.263 312.238 270.943 314.842L261.057 292.295C261.057 292.295 270.65 287.425 274.088 279.455C274.088 279.455 273.705 273.108 272.702 266.806C272.702 266.863 246.762 275.475 225.568 265.363Z" fill="#455A64"/>
<path d="M260.549 292.239C263.277 298.507 267.088 305.767 269.072 310.592L264.912 293.75C268.937 289.489 270.785 287.741 272.803 282.037C270.267 285.983 266.671 288.204 260.549 292.239Z" fill="#263238"/>
<path d="M274.032 407.453C273.062 407.769 273.04 408.896 273.683 409.843C274.007 410.337 274.365 410.807 274.754 411.252L274.032 407.453Z" fill="#0F0742"/>
<path opacity="0.3" d="M274.032 407.453C273.062 407.769 273.04 408.896 273.683 409.843C274.007 410.337 274.365 410.807 274.754 411.252L274.032 407.453Z" fill="black"/>
<path d="M296.872 425.31C294.978 423.056 290.3 415.604 289.522 413.372C288.744 411.14 289.758 409.494 287.492 409.9C285.227 410.305 282.036 410.565 281.664 411.872C281.292 413.18 282.352 416.269 284.776 420.068C286.814 422.931 289.225 425.509 291.945 427.734L296.872 425.31Z" fill="#0F0742"/>
<path opacity="0.1" d="M296.872 425.31C294.978 423.056 290.3 415.604 289.522 413.372C288.744 411.14 289.758 409.494 287.492 409.9C285.227 410.305 282.036 410.565 281.664 411.872C281.292 413.18 282.352 416.269 284.776 420.068C286.814 422.931 289.225 425.509 291.945 427.734L296.872 425.31Z" fill="black"/>
<path d="M307.198 436.922C307.334 437.869 307.198 438.523 303.895 439.729C300.592 440.935 295.519 440.912 291.28 439.864C287.042 438.816 283.389 434.949 281.608 432.232C279.827 429.515 276.23 426.967 273.84 425.637C271.451 424.307 270.966 423.777 271.157 422.965C271.349 422.154 272.071 420.012 272.071 420.012L307.198 436.922Z" fill="#EBEBEB"/>
<path d="M274.032 407.453C273.266 407.983 273.615 409.46 274.9 410.7C275.419 411.478 275.734 414.195 276.896 414.612C278.057 415.029 279.15 412.876 280.469 412.876C281.788 412.876 283.028 415.131 284.798 417.915C286.568 420.7 291.562 426.934 292.306 426.934C293.05 426.934 295.745 425.096 296.894 425.277C298.642 426.945 300.479 428.518 302.396 429.989C305.101 431.984 306.048 432.593 306.837 433.123C307.627 433.653 307.796 435.558 307.356 436.685C306.916 437.813 300.66 440.563 294.042 439.019C287.425 437.474 285.531 434.566 283.254 430.947C281.564 428.234 279.193 426.011 276.377 424.499C274.642 423.705 273.076 422.583 271.766 421.196C271.39 419.682 271.39 418.099 271.766 416.585C272.375 413.879 273.153 411.625 272.803 409.449C272.653 408.909 272.669 408.337 272.848 407.807C273.026 407.276 273.361 406.811 273.807 406.473C273.908 406.793 273.983 407.121 274.032 407.453Z" fill="#0F0742"/>
<path d="M306.33 434.34C305.124 434.645 303.816 434.972 303.76 435.468C303.704 435.964 303.647 438.545 302.993 439.402C302.684 439.789 302.288 440.098 301.838 440.306C301.388 440.513 300.896 440.613 300.401 440.597C297.393 440.763 294.378 440.49 291.45 439.785C288.294 438.829 285.501 436.943 283.434 434.374C280.931 431.387 280.481 429.944 277.177 427.61C273.874 425.276 272.668 424.95 271.158 423.574C271.031 423.94 270.941 424.318 270.887 424.702C271.273 425.247 271.788 425.689 272.386 425.987C274.557 427.054 276.625 428.318 278.564 429.763C280.207 431.41 281.715 433.185 283.073 435.073C285.255 437.686 288.174 439.58 291.45 440.507C295.192 441.465 300.367 441.634 303.749 440.428C307.131 439.222 307.322 438.511 307.615 438.106C307.939 436.986 308.02 435.809 307.852 434.656C307.638 434.07 307.187 434.115 306.33 434.34Z" fill="#455A64"/>
<path d="M290.919 426.696C293.354 424.982 295.429 424.373 296.353 424.621C296.755 424.842 297.066 425.197 297.233 425.625C297.233 425.625 295.406 425.546 291.968 427.733C291.698 427.715 291.443 427.6 291.251 427.41C291.058 427.219 290.94 426.966 290.919 426.696Z" fill="#455A64"/>
<path d="M294.527 422.006C292.406 422.014 290.366 422.818 288.811 424.261C288.562 424.209 288.334 424.082 288.159 423.896C287.983 423.711 287.869 423.476 287.831 423.224C289.473 421.749 291.609 420.944 293.817 420.969C293.817 420.969 294.617 421.353 294.527 422.006Z" fill="#455A64"/>
<path d="M292.216 418.377C290.75 417.814 287.233 419.392 285.97 420.576C285.832 420.567 285.696 420.531 285.571 420.469C285.447 420.408 285.335 420.322 285.244 420.217C285.153 420.112 285.083 419.99 285.04 419.858C284.996 419.726 284.979 419.587 284.99 419.448C286.751 417.87 289.039 417.009 291.404 417.036C291.404 417.036 292.419 417.475 292.216 418.377Z" fill="#455A64"/>
<path d="M290.254 414.928C289.075 414.809 287.883 414.931 286.752 415.286C285.62 415.64 284.572 416.22 283.671 416.991C283.437 416.886 283.24 416.715 283.103 416.498C282.967 416.281 282.898 416.029 282.904 415.773C283.776 414.898 284.846 414.245 286.023 413.871C287.201 413.496 288.451 413.41 289.668 413.62C290.015 413.971 290.224 414.435 290.254 414.928Z" fill="#455A64"/>
<path d="M309.825 199.348C308.393 200.858 305.316 203.857 295.903 212.03C289.003 218.028 281.146 225.964 278.654 233.325C279.083 222.988 268.813 206.788 268.813 206.788C271.778 205.999 274.754 205.277 277.099 203.609C287.064 196.541 292.464 191.355 295.192 188.198C296.038 187.195 296.466 186.44 296.782 183.892C297.064 181.637 299.51 161.74 298.698 153.454C298.537 151.981 297.844 150.618 296.748 149.621C293.828 146.938 292.904 144.559 290.908 141.482C289.341 139.069 287.774 138.246 288.158 137.649C288.67 137.005 289.405 136.578 290.218 136.453C291.031 136.327 291.861 136.513 292.543 136.972C294.071 137.932 295.483 139.067 296.748 140.354C296.171 137.148 295.078 134.057 293.513 131.2C289.95 124.639 290.401 121.054 299.781 122.802C305.654 123.861 311.133 128.81 313.094 142.564C313.658 146.521 313.478 152.428 313.455 157.501C313.387 169.045 313.342 178.424 312.88 187.759C312.655 191.828 312.531 196.495 309.825 199.348Z" fill="#FFA8A7"/>
<path d="M231.408 211.828C230.281 216.078 224.757 252.209 223.798 282.591C237.642 288.656 265.837 283.718 274.19 273.572L275.081 258.252C277.2 246.753 278.034 236.607 278.947 231.669C279.94 226.224 279.793 212.752 270.943 207.454C267.092 206.109 263.05 205.39 258.971 205.323C253.661 205.132 243.978 205.166 238.679 206.203C236.109 206.721 232.141 209.201 231.408 211.828Z" fill="#0F0742"/>
<path opacity="0.6" d="M231.408 211.828C230.281 216.078 224.757 252.209 223.798 282.591C237.642 288.656 265.837 283.718 274.19 273.572L275.081 258.252C277.2 246.753 278.034 236.607 278.947 231.669C279.94 226.224 279.793 212.752 270.943 207.454C267.092 206.109 263.05 205.39 258.971 205.323C253.661 205.132 243.978 205.166 238.679 206.203C236.109 206.721 232.141 209.201 231.408 211.828Z" fill="white"/>
<path d="M242.039 241.77C242.039 241.77 261.857 243.371 274.19 238.32L272.071 258.037C272.071 258.037 259.05 264.97 240.111 260.472L242.039 241.77Z" fill="#FAFAFA"/>
<path d="M251.779 250.483C251.779 250.663 251.779 250.866 251.779 251.081V251.757L251.711 252.433C251.702 252.638 251.68 252.841 251.643 253.042C251.58 253.564 251.451 254.075 251.26 254.564C251.084 254.988 250.823 255.372 250.494 255.691C250.139 256.033 249.705 256.28 249.231 256.413C248.64 256.574 248.023 256.616 247.416 256.537C246.804 256.485 246.207 256.316 245.657 256.041C245.211 255.811 244.824 255.479 244.53 255.071C244.258 254.674 244.07 254.225 243.978 253.752C243.878 253.232 243.837 252.703 243.854 252.174C243.854 251.802 243.854 251.385 243.932 250.923C244.011 250.461 244.023 250.043 244.068 249.683C244.142 249.162 244.274 248.652 244.462 248.161C244.63 247.732 244.892 247.347 245.229 247.033C245.58 246.704 246.005 246.464 246.469 246.335C247.062 246.182 247.678 246.148 248.284 246.233C248.897 246.277 249.497 246.434 250.054 246.695C250.488 246.901 250.866 247.209 251.156 247.591C251.446 247.974 251.641 248.42 251.722 248.894C251.808 249.419 251.827 249.953 251.779 250.483ZM245.736 252.411C245.699 252.986 245.824 253.56 246.097 254.068C246.254 254.291 246.461 254.474 246.702 254.601C246.943 254.728 247.211 254.797 247.484 254.801C247.748 254.855 248.021 254.844 248.28 254.77C248.54 254.695 248.777 254.559 248.972 254.372C249.332 253.927 249.555 253.386 249.614 252.817C249.614 252.456 249.704 252.05 249.738 251.61C249.772 251.171 249.806 250.765 249.817 250.404C249.859 249.832 249.734 249.26 249.456 248.758C249.297 248.539 249.089 248.361 248.848 248.238C248.607 248.114 248.34 248.049 248.07 248.048C247.807 247.994 247.536 248.002 247.277 248.073C247.019 248.143 246.78 248.274 246.582 248.454C246.221 248.894 246.001 249.432 245.95 249.998C245.894 250.359 245.849 250.765 245.815 251.205C245.781 251.644 245.759 252.039 245.747 252.411H245.736Z" fill="black"/>
<path d="M258.768 250.156C259.048 249.962 259.276 249.702 259.433 249.401C259.545 249.194 259.618 248.969 259.647 248.736C259.68 248.567 259.677 248.394 259.638 248.227C259.599 248.06 259.526 247.903 259.422 247.766C259.269 247.634 259.088 247.539 258.893 247.486C258.698 247.433 258.493 247.425 258.295 247.462C257.837 247.466 257.394 247.629 257.043 247.924C256.752 248.215 256.525 248.565 256.378 248.95C256.332 249.067 256.254 249.168 256.153 249.243C256.076 249.305 255.981 249.341 255.882 249.344H254.755C254.704 249.35 254.653 249.345 254.604 249.329C254.556 249.314 254.511 249.288 254.473 249.254C254.439 249.219 254.415 249.175 254.403 249.128C254.391 249.08 254.392 249.031 254.405 248.984C254.5 248.543 254.671 248.124 254.913 247.744C255.165 247.352 255.477 247.002 255.837 246.706C256.215 246.398 256.637 246.148 257.088 245.962C257.553 245.762 258.049 245.643 258.554 245.613C259.085 245.554 259.623 245.608 260.132 245.771C260.518 245.904 260.866 246.128 261.147 246.425C261.397 246.7 261.575 247.033 261.665 247.394C261.764 247.761 261.787 248.145 261.733 248.521C261.701 248.753 261.656 248.983 261.598 249.209C261.527 249.444 261.425 249.667 261.293 249.874C261.132 250.134 260.943 250.376 260.73 250.596C260.44 250.897 260.127 251.176 259.794 251.43C258.565 252.501 257.956 253.031 256.728 254.068C258.374 253.955 259.197 253.887 260.842 253.718C260.891 253.711 260.941 253.716 260.988 253.731C261.035 253.747 261.078 253.773 261.113 253.809C261.146 253.842 261.17 253.883 261.184 253.929C261.198 253.974 261.201 254.021 261.192 254.068C261.192 254.474 261.113 254.677 261.057 255.082C261.036 255.191 260.981 255.29 260.899 255.364C260.818 255.448 260.71 255.5 260.594 255.511C257.821 255.793 256.446 255.894 253.695 256.018C253.645 256.021 253.596 256.013 253.549 255.996C253.503 255.978 253.46 255.951 253.425 255.917C253.393 255.88 253.369 255.837 253.356 255.79C253.342 255.743 253.339 255.694 253.346 255.646L253.47 254.767C253.492 254.607 253.563 254.457 253.673 254.338C253.76 254.245 253.854 254.158 253.954 254.079C255.826 252.569 256.807 251.768 258.768 250.156Z" fill="black"/>
<path d="M271.609 244.148C271.653 244.133 271.7 244.131 271.746 244.141C271.792 244.151 271.834 244.173 271.868 244.205C271.903 244.235 271.929 244.273 271.945 244.317C271.961 244.36 271.965 244.407 271.958 244.453C271.958 244.858 271.868 245.061 271.812 245.467C271.799 245.586 271.747 245.697 271.665 245.783L271.417 246.065C270.425 247.113 269.918 247.632 268.926 248.658C269.323 248.642 269.72 248.677 270.109 248.759C270.42 248.837 270.708 248.983 270.955 249.187C271.181 249.392 271.348 249.652 271.44 249.943C271.541 250.31 271.56 250.695 271.496 251.07C271.428 251.561 271.259 252.034 271 252.457C270.732 252.88 270.402 253.26 270.019 253.584C269.609 253.879 269.162 254.118 268.689 254.294C268.166 254.521 267.617 254.684 267.054 254.779C266.468 254.868 265.871 254.868 265.284 254.779C264.858 254.716 264.448 254.571 264.078 254.351C263.791 254.165 263.561 253.904 263.413 253.595C263.281 253.318 263.219 253.012 263.233 252.705C263.235 252.648 263.249 252.593 263.274 252.542C263.299 252.492 263.335 252.447 263.379 252.412C263.466 252.336 263.571 252.286 263.683 252.265L264.867 252.118C264.907 252.11 264.947 252.11 264.987 252.12C265.026 252.13 265.062 252.148 265.093 252.175C265.163 252.243 265.22 252.323 265.262 252.412C265.307 252.52 265.372 252.62 265.453 252.705C265.559 252.798 265.682 252.871 265.814 252.919C266.003 252.982 266.201 253.016 266.4 253.02C266.702 253.027 267.005 253.005 267.302 252.953C267.849 252.874 268.37 252.67 268.824 252.355C269.012 252.226 269.171 252.058 269.291 251.864C269.412 251.67 269.49 251.454 269.523 251.228C269.57 251.059 269.55 250.879 269.469 250.723C269.387 250.568 269.249 250.45 269.083 250.394C268.612 250.287 268.123 250.287 267.652 250.394L266.412 250.585C266.366 250.595 266.319 250.595 266.274 250.583C266.229 250.571 266.187 250.549 266.152 250.518C266.116 250.486 266.089 250.445 266.074 250.4C266.058 250.354 266.054 250.306 266.062 250.258C266.119 249.852 266.152 249.65 266.209 249.244C266.221 249.125 266.273 249.014 266.355 248.928L266.603 248.658C267.561 247.699 268.035 247.203 268.982 246.222C267.336 246.504 266.513 246.617 264.867 246.831C264.819 246.842 264.769 246.84 264.722 246.826C264.674 246.813 264.631 246.787 264.597 246.752C264.564 246.721 264.539 246.682 264.525 246.638C264.512 246.595 264.509 246.549 264.518 246.504C264.574 246.087 264.608 245.884 264.664 245.478C264.678 245.37 264.73 245.27 264.811 245.197C264.893 245.114 265 245.058 265.115 245.039C267.674 244.779 268.982 244.577 271.609 244.148Z" fill="black"/>
<path d="M248.059 163.172C246.793 163.339 245.588 163.814 244.548 164.555C243.508 165.296 242.666 166.28 242.095 167.422C240.844 169.913 241.678 174.953 243.098 181.592C243.884 185.884 245.127 190.079 246.807 194.106C247.407 195.252 248.424 196.124 249.648 196.541L249.716 188.717L249.603 183.25C249.603 183.25 254.473 184.896 255.927 176.97C256.505 173.486 256.81 169.962 256.84 166.43L248.059 163.172Z" fill="#263238"/>
<path d="M253.808 171.886C253.715 174.787 254.486 177.65 256.022 180.112C257.558 182.575 259.791 184.525 262.438 185.717C265.084 186.909 268.025 187.288 270.887 186.807C273.749 186.325 276.404 185.005 278.514 183.013C280.625 181.021 282.097 178.447 282.743 175.617C283.389 172.788 283.181 169.83 282.144 167.119C281.107 164.409 279.289 162.067 276.92 160.39C274.55 158.714 271.737 157.779 268.835 157.704C264.965 157.604 261.212 159.039 258.397 161.696C255.581 164.353 253.932 168.017 253.808 171.886Z" fill="#263238"/>
<path d="M251.508 182.889C251.271 182.981 251.012 183 250.764 182.945C250.441 182.839 250.147 182.658 249.906 182.417C249.665 182.176 249.484 181.882 249.378 181.558C249.18 180.907 248.947 180.267 248.679 179.642C248.092 178.515 246.334 178.086 245.128 178.086C244.347 178.114 243.584 178.322 242.898 178.693C242.212 179.065 241.62 179.59 241.171 180.228C238.589 183.61 241.272 189.348 243.933 190.678C247.811 192.64 249.716 188.717 249.716 188.717L249.524 206.405C249.524 206.405 250.46 209.787 257.134 212.346C262.353 214.364 270.278 211.523 265.544 206.348V200.486C268.209 201.103 270.967 201.21 273.672 200.802C276.321 200.261 277.64 198.48 278.846 194.365C281.405 185.32 281.401 175.743 278.835 166.7C276.039 164.389 271.496 164.93 268.238 165.573C265.801 166.086 263.422 166.842 261.136 167.827C260.73 167.997 259.557 168.301 259.321 168.673C259.084 169.045 259.321 169.575 259.321 169.958C259.292 171.032 258.916 172.068 258.25 172.912C257.041 174.079 255.421 174.723 253.74 174.704C253.729 176.749 253.433 178.783 252.861 180.747C252.714 181.581 252.23 182.652 251.508 182.889Z" fill="#FFA8A7"/>
<path d="M282.217 157.13C282.177 157.022 282.108 156.927 282.019 156.853C281.93 156.78 281.823 156.732 281.709 156.713C281.524 156.72 281.346 156.788 281.202 156.905C280.177 157.68 279.087 158.367 277.944 158.957C278.284 157.531 278.349 156.055 278.136 154.605C278.001 153.715 277.82 151.651 276.727 151.403C276.084 151.246 275.498 151.775 275.002 152.215C270.493 156.183 264.856 154.098 259.524 154.098C255.093 154.098 249.705 155.732 247.563 159.96C246.593 161.899 246.368 163.973 248.126 165.382C249.637 166.6 254.676 167.829 256.48 168.426C261.271 170.004 273.604 174.063 280.379 166.048C281.519 164.481 282.29 162.678 282.634 160.772C282.838 159.561 282.694 158.318 282.217 157.187V157.13Z" fill="#263238"/>
<path d="M265.622 200.485C265.622 200.485 259.016 199.087 256.401 197.272C254.688 196.104 253.291 194.532 252.331 192.695C252.331 192.695 252.895 196.461 254.698 198.49C257.878 202.052 265.6 203.134 265.6 203.134L265.622 200.485Z" fill="#F28F8F"/>
<path d="M265.138 180.894C265.115 181.209 265.001 181.511 264.808 181.762C264.616 182.013 264.354 182.201 264.055 182.304C263.756 182.407 263.433 182.42 263.127 182.341C262.82 182.262 262.544 182.095 262.333 181.86C262.121 181.625 261.983 181.333 261.935 181.02C261.888 180.708 261.934 180.388 262.067 180.101C262.201 179.814 262.415 179.573 262.684 179.407C262.954 179.241 263.266 179.159 263.582 179.169C264.016 179.195 264.422 179.39 264.713 179.713C265.004 180.036 265.156 180.46 265.138 180.894Z" fill="#263238"/>
<path d="M262.973 175.313L259.591 177.309C259.332 176.844 259.263 176.298 259.397 175.783C259.532 175.268 259.86 174.825 260.313 174.547C260.536 174.417 260.784 174.333 261.041 174.302C261.297 174.27 261.558 174.29 261.807 174.362C262.055 174.434 262.287 174.555 262.487 174.718C262.688 174.882 262.853 175.084 262.973 175.313Z" fill="#263238"/>
<path d="M264.687 190.375L271.451 192.449C271.148 193.363 270.503 194.123 269.653 194.573C268.802 195.022 267.81 195.126 266.885 194.862C266.441 194.719 266.031 194.487 265.678 194.182C265.326 193.877 265.039 193.504 264.833 193.085C264.628 192.666 264.51 192.211 264.484 191.745C264.459 191.279 264.528 190.813 264.687 190.375Z" fill="#B16668"/>
<path d="M269.196 194.769C268.987 193.879 268.469 193.091 267.735 192.546C267 192.001 266.096 191.734 265.183 191.793C264.959 191.819 264.737 191.856 264.518 191.906C264.575 192.582 264.835 193.226 265.263 193.753C265.691 194.279 266.268 194.665 266.919 194.86C267.667 195.085 268.468 195.053 269.196 194.769Z" fill="#F28F8F"/>
<path d="M278.756 176.135L275.25 174.32C275.356 174.085 275.508 173.874 275.699 173.699C275.889 173.525 276.113 173.392 276.357 173.307C276.601 173.223 276.86 173.189 277.117 173.208C277.374 173.227 277.625 173.299 277.854 173.418C278.324 173.669 278.681 174.09 278.849 174.596C279.017 175.102 278.983 175.653 278.756 176.135Z" fill="#263238"/>
<path d="M277.482 180.048C277.46 180.363 277.346 180.664 277.153 180.915C276.961 181.165 276.7 181.354 276.402 181.458C276.103 181.561 275.781 181.574 275.475 181.496C275.169 181.418 274.893 181.252 274.681 181.018C274.468 180.785 274.329 180.494 274.281 180.182C274.232 179.87 274.277 179.55 274.408 179.263C274.54 178.976 274.752 178.734 275.02 178.567C275.288 178.4 275.599 178.315 275.915 178.323C276.351 178.346 276.759 178.54 277.053 178.863C277.346 179.186 277.5 179.612 277.482 180.048Z" fill="#263238"/>
<path d="M270.098 188.594L275.182 187.286L269.399 179.203L270.098 188.594Z" fill="#F28F8F"/>
<path d="M250.246 281.407L244.485 282.049L248.566 277.664C227.022 285.826 194.352 279.626 156.406 286.604C133.273 290.854 105.113 307.11 96.8494 316.253V329.341C105.225 319.195 137.693 298.993 157.128 295.104C197.295 287.043 229.277 294.303 247.438 287.957L250.595 286.604L245.049 285.95L250.246 281.407Z" fill="#0F0742"/>
<path opacity="0.2" d="M250.246 281.407L244.485 282.049L248.566 277.664C227.022 285.826 194.352 279.626 156.406 286.604C133.273 290.854 105.113 307.11 96.8494 316.253V329.341C105.225 319.195 137.693 298.993 157.128 295.104C197.295 287.043 229.277 294.303 247.438 287.957L250.595 286.604L245.049 285.95L250.246 281.407Z" fill="black"/>
<path d="M214.25 293.03C212.57 289.884 211.499 288.926 210.608 285.939C211.544 286.775 212.591 287.477 213.72 288.024C215.084 288.577 216.854 288.419 217.203 287.19C217.553 285.961 215.479 285.42 214.61 284.112C213.245 281.88 211.667 279.785 209.898 277.856C209.417 277.48 209.017 277.011 208.722 276.476C208.428 275.941 208.245 275.352 208.185 274.744C207.553 265.996 207.903 255.456 207.565 245.558C213.844 241.601 226.876 234.645 232.118 231.421C236.199 228.907 239.502 222.335 240.393 215.751C240.618 214.083 240.844 208.311 239.874 206.022C236.492 205.515 231.926 206.687 228.172 209.269C225.918 210.825 221.577 214.173 211.691 221.591C206.054 225.784 198.219 231.263 192.301 238.343C189.663 241.511 194.093 267.935 195.029 273.888C195.536 277.112 196.449 282.072 197.531 286.288C199.358 293.402 203.957 299.061 209.267 299.895C217.744 301.248 216.516 297.28 214.25 293.03Z" fill="#FFA8A7"/>
<path d="M309.058 236.516C298.912 255.05 285.881 269.401 259.771 274.361L266.141 275.579L260.797 279.096L266.231 279.829L262.511 283.492C291.123 277.213 304.831 261.34 315.315 242.999C322.744 230.012 327.558 209.528 335.934 194.343C342.552 182.359 348.335 175.956 353.769 172.202V161.549C345.212 166.487 336.983 175.708 330.478 187.624C320.952 205.165 314.289 226.945 309.058 236.516Z" fill="#0F0742"/>
<path opacity="0.2" d="M309.058 236.516C298.912 255.05 285.881 269.401 259.771 274.361L266.141 275.579L260.797 279.096L266.231 279.829L262.511 283.492C291.123 277.213 304.831 261.34 315.315 242.999C322.744 230.012 327.558 209.528 335.934 194.343C342.552 182.359 348.335 175.956 353.769 172.202V161.549C345.212 166.487 336.983 175.708 330.478 187.624C320.952 205.165 314.289 226.945 309.058 236.516Z" fill="black"/>
<path d="M412.435 119.455C412.435 119.455 407.757 116.637 407.531 111.564L410.992 108.779C410.992 108.779 410.519 111.891 414.543 116.344L412.435 119.455Z" fill="#0F0742"/>
<path d="M454.868 79.7747C454.868 79.7747 450.46 76.5506 450.674 71.5001L454.36 69.0312C454.36 69.0312 453.616 72.0863 457.235 76.9226L454.868 79.7747Z" fill="#0F0742"/>
<path d="M481.754 254.87C481.754 254.87 477.346 251.646 477.572 246.585L481.258 244.127C481.258 244.127 480.514 247.182 484.133 252.018L481.754 254.87Z" fill="#0F0742"/>
<path d="M453.673 20.2835C453.673 20.2835 451.891 15.1203 454.958 11.0957L459.388 11.1746C459.388 11.1746 457.032 13.2602 457.269 19.2576L453.673 20.2835Z" fill="#0F0742"/>
<path d="M488.981 117.506C488.981 117.506 491.427 122.387 488.924 126.784L484.517 127.302C484.517 127.302 486.58 124.924 485.542 119.005L488.981 117.506Z" fill="#0F0742"/>
<path d="M72.2622 99.9867C72.2622 99.9867 75.3624 94.9137 73.0288 89.9196L68.2827 88.9727C68.2827 88.9727 70.3119 91.7346 68.666 98.0702L72.2622 99.9867Z" fill="#0F0742"/>
<path d="M207.102 7.41173C207.102 7.41173 207.035 12.8793 211.206 15.7315L215.4 14.2546C215.4 14.2546 212.502 13.0146 210.89 7.25391L207.102 7.41173Z" fill="#0F0742"/>
<path d="M7.64346 162.984C7.64346 162.984 12.4233 160.334 12.8292 155.295L9.44719 152.387C9.44719 152.387 9.80794 155.509 5.61426 159.805L7.64346 162.984Z" fill="#0F0742"/>
<path d="M29.9533 207.908C29.9533 207.908 25.1846 205.259 24.7788 200.186L28.1608 197.277C28.1608 197.277 27.8001 200.4 31.9937 204.695L29.9533 207.908Z" fill="#0F0742"/>
<path d="M37.4502 196.881C37.4502 196.881 35.3984 191.819 38.2506 187.637L42.681 187.49C42.681 187.49 40.4263 189.689 40.99 195.663L37.4502 196.881Z" fill="#0F0742"/>
<path d="M387.938 6.46289C387.938 6.46289 387.634 11.9079 391.681 14.9404L395.931 13.6553C395.931 13.6553 393.09 12.2912 391.681 6.46289H387.938Z" fill="#0F0742"/>
<path d="M498.304 44.7246C498.304 44.7246 500.773 49.5834 498.304 53.9913L493.907 54.5324C493.907 54.5324 495.948 52.1425 494.877 46.2352L498.304 44.7246Z" fill="#0F0742"/>
<path d="M426.154 57.012C426.154 57.012 422.152 53.303 422.953 48.3089L426.898 46.291C426.898 46.291 425.771 49.2334 428.848 54.4078L426.154 57.012Z" fill="#0F0742"/>
<path d="M448.408 144.234C448.408 144.234 450.787 149.15 448.228 153.512L443.809 153.963C443.809 153.963 445.905 151.607 444.936 145.677L448.408 144.234Z" fill="#0F0742"/>
<path d="M478.463 192.055C478.463 192.055 476.874 186.824 480.098 182.924L484.517 183.161C484.517 183.161 481.451 185.314 481.462 191.322L478.463 192.055Z" fill="#0F0742"/>
<path d="M473.255 206.205C473.255 206.205 468.565 203.42 468.306 198.313L471.744 195.518C471.939 198.487 473.072 201.317 474.979 203.601L473.255 206.205Z" fill="#0F0742"/>
<path d="M188.794 34.2402C188.794 34.2402 191.162 39.1554 188.58 43.5069L184.161 43.9466C184.161 43.9466 186.269 41.6017 185.288 35.6719L188.794 34.2402Z" fill="#0F0742"/>
<path d="M16.2676 105.906C16.2676 105.906 20.45 102.4 19.8976 97.3719L16.0534 95.1172C16.0534 95.1172 17.0004 98.1159 13.6973 103.133L16.2676 105.906Z" fill="#0F0742"/>
<path d="M20.1118 255.423C20.1118 255.423 21.3068 262.187 27.1238 264.69L31.9488 261.871C31.9488 261.871 28.0933 261.026 24.7001 254.318L20.1118 255.423Z" fill="#0F0742"/>
<path d="M57.4941 136.557C57.4941 136.557 57.2461 142.014 61.327 145.001L65.5658 143.671C65.5658 143.671 62.0598 142.34 60.5943 136.523L57.4941 136.557Z" fill="#0F0742"/>
<g opacity="0.25">
<path d="M387.938 6.46289C387.938 6.46289 387.633 11.9079 391.681 14.9404L395.931 13.6553C395.931 13.6553 393.09 12.2912 391.681 6.46289H387.938Z" fill="black"/>
<path d="M498.304 44.7246C498.304 44.7246 500.773 49.5834 498.304 53.9913L493.907 54.5324C493.907 54.5324 495.948 52.1425 494.877 46.2352L498.304 44.7246Z" fill="black"/>
<path d="M426.155 57.012C426.155 57.012 422.153 53.303 422.953 48.3089L426.899 46.291C426.899 46.291 425.771 49.2334 428.849 54.4078L426.155 57.012Z" fill="black"/>
<path d="M448.408 144.234C448.408 144.234 450.787 149.15 448.228 153.512L443.809 153.963C443.809 153.963 445.905 151.607 444.936 145.677L448.408 144.234Z" fill="black"/>
<path d="M478.463 192.055C478.463 192.055 476.874 186.824 480.098 182.924L484.517 183.161C484.517 183.161 481.451 185.314 481.462 191.322L478.463 192.055Z" fill="black"/>
<path d="M473.255 206.205C473.255 206.205 468.565 203.42 468.306 198.313L471.744 195.518C471.939 198.487 473.072 201.317 474.979 203.601L473.255 206.205Z" fill="black"/>
<path d="M188.795 34.2402C188.795 34.2402 191.162 39.1554 188.581 43.5069L184.161 43.9466C184.161 43.9466 186.269 41.6017 185.289 35.6719L188.795 34.2402Z" fill="black"/>
<path d="M16.2676 105.904C16.2676 105.904 20.45 102.398 19.8976 97.3699L16.0534 95.1152C16.0534 95.1152 17.0004 98.1139 13.6973 103.131L16.2676 105.904Z" fill="black"/>
<path d="M20.1118 255.423C20.1118 255.423 21.3068 262.187 27.1238 264.69L31.9488 261.871C31.9488 261.871 28.0933 261.026 24.7001 254.318L20.1118 255.423Z" fill="black"/>
<path d="M57.4941 136.557C57.4941 136.557 57.2461 142.014 61.327 145.001L65.5658 143.671C65.5658 143.671 62.0598 142.34 60.5943 136.523L57.4941 136.557Z" fill="black"/>
</g>
</svg>
