<svg width="44" height="44" viewBox="0 0 44 44" fill="none" xmlns="http://www.w3.org/2000/svg">
<g id="Icons ">
<path id="Vector" d="M25.5198 7.28479H15.5599V3.96484H25.5198V7.28479ZM22.1999 33.8444C22.1999 35.5542 22.6314 37.1644 23.3784 38.5421C22.4654 38.7247 21.5193 38.8243 20.5399 38.8243C12.2898 38.8243 5.6001 32.1346 5.6001 23.8845C5.6001 15.6345 12.2898 8.94477 20.5399 8.94477C24.059 8.94477 27.296 10.1732 29.8689 12.2647L32.2261 9.87436C33.0727 10.6047 33.8197 11.3683 34.5667 12.2149L32.2095 14.5721C34.2513 17.1284 35.4797 20.3654 35.4797 23.8845C35.4797 24.0837 35.4797 24.2663 35.4797 24.4655C34.4173 24.1003 33.3217 23.8845 32.1597 23.8845C26.6652 23.8845 22.1999 28.3499 22.1999 33.8444ZM22.1999 13.9247H18.8799V25.5445H22.1999V13.9247ZM38.036 30.3253L35.6789 27.9847L32.1597 31.5038L28.6406 27.9847L26.3 30.3253L29.8191 33.8444L26.3 37.3636L28.6406 39.7207L32.1597 36.185L35.6789 39.7207L38.036 37.3636L34.5003 33.8444L38.036 30.3253Z" fill="#FBFBFB"/>
</g>
</svg>
