<svg width="19" height="31" viewBox="0 0 19 31" fill="none" xmlns="http://www.w3.org/2000/svg">
<g clip-path="url(#clip0_22_4)">
<path d="M18.14 16.5451L4.47498 30.21C4.15847 30.5262 3.72937 30.7039 3.28198 30.7039C2.83459 30.7039 2.40549 30.5262 2.08898 30.21L0.49498 28.616C0.179394 28.2996 0.00217056 27.871 0.00217056 27.424C0.00217056 26.9771 0.179394 26.5485 0.49498 26.232L11.322 15.352L0.491982 4.47105C0.176151 4.15475 -0.00123978 3.72603 -0.00123978 3.27905C-0.00123978 2.83206 0.176151 2.40335 0.491982 2.08705L2.08598 0.493048C2.40249 0.176851 2.83159 -0.000757217 3.27898 -0.000757217C3.72637 -0.000757217 4.15547 0.176851 4.47198 0.493048L18.14 14.159C18.4562 14.4756 18.6338 14.9047 18.6338 15.352C18.6338 15.7994 18.4562 16.2285 18.14 16.5451Z" fill="white"/>
</g>
<defs>
<clipPath id="clip0_22_4">
<rect width="18.634" height="30.704" fill="white" transform="matrix(-1 0 0 -1 18.634 30.704)"/>
</clipPath>
</defs>
</svg>
