<svg width="48" height="47" viewBox="0 0 48 47" fill="none" xmlns="http://www.w3.org/2000/svg">
<g id="Icons ">
<path id="Vector" d="M10.1101 39.1857H37.8896C40.7302 39.1857 42.501 36.1052 41.0807 33.6519L27.191 9.65394C25.7706 7.20064 22.2291 7.20064 20.8087 9.65394L6.91902 33.6519C5.4987 36.1052 7.26949 39.1857 10.1101 39.1857ZM23.9999 26.2736C22.9853 26.2736 22.1553 25.4436 22.1553 24.429V20.7399C22.1553 19.7254 22.9853 18.8953 23.9999 18.8953C25.0144 18.8953 25.8444 19.7254 25.8444 20.7399V24.429C25.8444 25.4436 25.0144 26.2736 23.9999 26.2736ZM25.8444 33.6519H22.1553V29.9628H25.8444V33.6519Z" fill="#B73D3D"/>
</g>
</svg>
