<svg xmlns="http://www.w3.org/2000/svg" width="21" height="20" viewBox="0 0 21 20" fill="none">
  <g clip-path="url(#clip0_2512_13190)">
    <mask id="mask0_2512_13190" style="mask-type:alpha" maskUnits="userSpaceOnUse" x="0" y="0" width="21" height="20">
      <rect x="0.5" width="20" height="20" fill="#D9D9D9"/>
    </mask>
    <g mask="url(#mask0_2512_13190)">
      <path d="M5.25 17.5C4.8375 17.5 4.48438 17.3531 4.19062 17.0594C3.89687 16.7656 3.75 16.4125 3.75 16V7.54375C3.525 7.40625 3.34375 7.22813 3.20625 7.00938C3.06875 6.79063 3 6.5375 3 6.25V4C3 3.5875 3.14688 3.23438 3.44063 2.94063C3.73438 2.64688 4.0875 2.5 4.5 2.5H16.5C16.9125 2.5 17.2656 2.64688 17.5594 2.94063C17.8531 3.23438 18 3.5875 18 4V6.25C18 6.5375 17.9313 6.79063 17.7938 7.00938C17.6562 7.22813 17.475 7.40625 17.25 7.54375V16C17.25 16.4125 17.1031 16.7656 16.8094 17.0594C16.5156 17.3531 16.1625 17.5 15.75 17.5H5.25ZM4.5 6.25H16.5V4H4.5V6.25ZM9 11.5H12C12.2125 11.5 12.3906 11.4281 12.5344 11.2844C12.6781 11.1406 12.75 10.9625 12.75 10.75C12.75 10.5375 12.6781 10.3594 12.5344 10.2156C12.3906 10.0719 12.2125 10 12 10H9C8.7875 10 8.60938 10.0719 8.46562 10.2156C8.32188 10.3594 8.25 10.5375 8.25 10.75C8.25 10.9625 8.32188 11.1406 8.46562 11.2844C8.60938 11.4281 8.7875 11.5 9 11.5Z" fill="#2B2B2B"/>
    </g>
  </g>
  <defs>
    <clipPath id="clip0_2512_13190">
      <rect width="20" height="20" fill="white" transform="translate(0.5)"/>
    </clipPath>
  </defs>
</svg>