<svg width="25" height="25" viewBox="0 0 25 25" fill="none" xmlns="http://www.w3.org/2000/svg">
<rect width="24.9999" height="24.9999" rx="2.49999" fill="#0F0742" fill-opacity="0.3"/>
<path d="M18.4407 8.99853C18.2007 9.23856 17.9677 9.47154 17.9606 9.70452C17.9395 9.93044 18.1795 10.1634 18.4054 10.3823C18.7443 10.7353 19.0761 11.053 19.062 11.3989C19.0479 11.7449 18.6878 12.1049 18.3278 12.4579L15.412 15.3807L14.4095 14.3782L17.41 11.3848L16.7322 10.707L15.7297 11.7025L13.0822 9.05501L15.7932 6.35104C16.0686 6.0757 16.5275 6.0757 16.7887 6.35104L18.4407 8.00307C18.7161 8.26429 18.7161 8.72319 18.4407 8.99853ZM5.9375 16.2068L12.6868 9.45036L15.3343 12.0979L8.58499 18.8542H5.9375V16.2068Z" fill="#0F0742"/>
</svg>
