<svg width="40" height="40" viewBox="0 0 40 40" fill="none" xmlns="http://www.w3.org/2000/svg">
<path d="M32.9455 31.0517L31.0523 32.9449C30.8025 33.1932 30.4646 33.3326 30.1124 33.3326C29.7601 33.3326 29.4222 33.1932 29.1724 32.9449L13.3337 17.1328C12.9001 17.2584 12.4518 17.3257 12.0005 17.3328C11.1516 17.3322 10.3152 17.129 9.56065 16.74C8.80615 16.351 8.1554 15.7876 7.6625 15.0965C7.1696 14.4054 6.8488 13.6066 6.72676 12.7666C6.60473 11.9265 6.68499 11.0695 6.96087 10.2667L10.3473 13.6531L11.0539 12.9465L12.9471 11.0533L13.6537 10.3467L10.2673 6.9603C11.0701 6.68442 11.9271 6.60416 12.7671 6.7262C13.6072 6.84823 14.406 7.16903 15.0971 7.66193C15.7882 8.15483 16.3516 8.80558 16.7406 9.56008C17.1295 10.3146 17.3328 11.151 17.3334 11.9999C17.3263 12.4512 17.259 12.8996 17.1334 13.3331L32.9455 29.1719C33.1938 29.4217 33.3332 29.7596 33.3332 30.1118C33.3332 30.464 33.1938 30.8019 32.9455 31.0517ZM7.0542 29.1719C6.80588 29.4217 6.6665 29.7596 6.6665 30.1118C6.6665 30.464 6.80588 30.8019 7.0542 31.0517L8.94738 32.9449C9.19718 33.1932 9.53509 33.3326 9.88731 33.3326C10.2395 33.3326 10.5774 33.1932 10.8272 32.9449L18.12 25.6655L14.347 21.8925M30.6657 6.66699L25.3327 9.33345V11.9999L22.4396 14.893L25.1061 17.5595L27.9992 14.6664H30.6657L33.3321 9.33345L30.6657 6.66699Z" fill="#1F1F1F"/>
</svg>
