<svg width="20" height="20" viewBox="0 0 20 20" fill="none" xmlns="http://www.w3.org/2000/svg">
<path d="M5.50008 16.6663C5.13341 16.6663 4.81953 16.5358 4.55841 16.2747C4.2973 16.0136 4.16675 15.6997 4.16675 15.333V5.99967C4.16675 5.63301 4.2973 5.31912 4.55841 5.05801C4.81953 4.7969 5.13341 4.66634 5.50008 4.66634H8.30008C8.45564 4.26634 8.70008 3.94412 9.03342 3.69967C9.36675 3.45523 9.74453 3.33301 10.1667 3.33301C10.589 3.33301 10.9667 3.45523 11.3001 3.69967C11.6334 3.94412 11.8779 4.26634 12.0334 4.66634H14.8334C15.2001 4.66634 15.514 4.7969 15.7751 5.05801C16.0362 5.31912 16.1667 5.63301 16.1667 5.99967V15.333C16.1667 15.6997 16.0362 16.0136 15.7751 16.2747C15.514 16.5358 15.2001 16.6663 14.8334 16.6663H5.50008ZM10.1667 5.49967C10.3112 5.49967 10.4306 5.45245 10.5251 5.35801C10.6195 5.26356 10.6667 5.14412 10.6667 4.99967C10.6667 4.85523 10.6195 4.73579 10.5251 4.64134C10.4306 4.5469 10.3112 4.49967 10.1667 4.49967C10.0223 4.49967 9.90286 4.5469 9.80842 4.64134C9.71397 4.73579 9.66675 4.85523 9.66675 4.99967C9.66675 5.14412 9.71397 5.26356 9.80842 5.35801C9.90286 5.45245 10.0223 5.49967 10.1667 5.49967ZM10.1667 11.333C10.8112 11.333 11.3612 11.1052 11.8167 10.6497C12.2723 10.1941 12.5001 9.64412 12.5001 8.99967C12.5001 8.35523 12.2723 7.80523 11.8167 7.34967C11.3612 6.89412 10.8112 6.66634 10.1667 6.66634C9.5223 6.66634 8.9723 6.89412 8.51675 7.34967C8.06119 7.80523 7.83342 8.35523 7.83342 8.99967C7.83342 9.64412 8.06119 10.1941 8.51675 10.6497C8.9723 11.1052 9.5223 11.333 10.1667 11.333ZM5.50008 15.333H14.8334V14.5663C14.2334 13.9775 13.5362 13.5136 12.7417 13.1747C11.9473 12.8358 11.089 12.6663 10.1667 12.6663C9.24453 12.6663 8.38619 12.8358 7.59175 13.1747C6.7973 13.5136 6.10008 13.9775 5.50008 14.5663V15.333Z" fill="#717171"/>
</svg>
