<svg width="24" height="24" viewBox="0 0 24 24" fill="none" xmlns="http://www.w3.org/2000/svg">
<path d="M10.2222 18.3333C9.97037 18.3333 9.75926 18.2481 9.58889 18.0778C9.41852 17.9074 9.33333 17.6963 9.33333 17.4444C9.33333 17.1926 9.41852 16.9815 9.58889 16.8111C9.75926 16.6407 9.97037 16.5556 10.2222 16.5556H19.1111C19.363 16.5556 19.5741 16.6407 19.7444 16.8111C19.9148 16.9815 20 17.1926 20 17.4444C20 17.6963 19.9148 17.9074 19.7444 18.0778C19.5741 18.2481 19.363 18.3333 19.1111 18.3333H10.2222ZM10.2222 13C9.97037 13 9.75926 12.9148 9.58889 12.7444C9.41852 12.5741 9.33333 12.363 9.33333 12.1111C9.33333 11.8593 9.41852 11.6481 9.58889 11.4778C9.75926 11.3074 9.97037 11.2222 10.2222 11.2222H19.1111C19.363 11.2222 19.5741 11.3074 19.7444 11.4778C19.9148 11.6481 20 11.8593 20 12.1111C20 12.363 19.9148 12.5741 19.7444 12.7444C19.5741 12.9148 19.363 13 19.1111 13H10.2222ZM10.2222 7.66667C9.97037 7.66667 9.75926 7.58148 9.58889 7.41111C9.41852 7.24074 9.33333 7.02963 9.33333 6.77778C9.33333 6.52593 9.41852 6.31481 9.58889 6.14444C9.75926 5.97407 9.97037 5.88889 10.2222 5.88889H19.1111C19.363 5.88889 19.5741 5.97407 19.7444 6.14444C19.9148 6.31481 20 6.52593 20 6.77778C20 7.02963 19.9148 7.24074 19.7444 7.41111C19.5741 7.58148 19.363 7.66667 19.1111 7.66667H10.2222ZM5.77778 19.2222C5.28889 19.2222 4.87037 19.0481 4.52222 18.7C4.17407 18.3519 4 17.9333 4 17.4444C4 16.9556 4.17407 16.537 4.52222 16.1889C4.87037 15.8407 5.28889 15.6667 5.77778 15.6667C6.26667 15.6667 6.68519 15.8407 7.03333 16.1889C7.38148 16.537 7.55556 16.9556 7.55556 17.4444C7.55556 17.9333 7.38148 18.3519 7.03333 18.7C6.68519 19.0481 6.26667 19.2222 5.77778 19.2222ZM5.77778 13.8889C5.28889 13.8889 4.87037 13.7148 4.52222 13.3667C4.17407 13.0185 4 12.6 4 12.1111C4 11.6222 4.17407 11.2037 4.52222 10.8556C4.87037 10.5074 5.28889 10.3333 5.77778 10.3333C6.26667 10.3333 6.68519 10.5074 7.03333 10.8556C7.38148 11.2037 7.55556 11.6222 7.55556 12.1111C7.55556 12.6 7.38148 13.0185 7.03333 13.3667C6.68519 13.7148 6.26667 13.8889 5.77778 13.8889ZM5.77778 8.55556C5.28889 8.55556 4.87037 8.38148 4.52222 8.03333C4.17407 7.68519 4 7.26667 4 6.77778C4 6.28889 4.17407 5.87037 4.52222 5.52222C4.87037 5.17407 5.28889 5 5.77778 5C6.26667 5 6.68519 5.17407 7.03333 5.52222C7.38148 5.87037 7.55556 6.28889 7.55556 6.77778C7.55556 7.26667 7.38148 7.68519 7.03333 8.03333C6.68519 8.38148 6.26667 8.55556 5.77778 8.55556Z" fill="#717171"/>
</svg>
