<svg width="495" height="172" viewBox="0 0 495 172" fill="none" xmlns="http://www.w3.org/2000/svg">
<g clip-path="url(#clip0_1319_8853)">
<rect width="495" height="172" rx="16" fill="#1E1B3D"/>
<g style="mix-blend-mode:saturation" opacity="0.4">
<path d="M476.204 128.237C477.847 132.525 480.421 136.394 483.741 139.567C487.061 142.74 491.048 145.143 495.406 146.59C499.765 148.038 504.387 148.494 508.945 147.938C513.504 147.381 517.883 145.821 521.765 143.367C525.647 140.913 528.936 137.628 531.395 133.75C533.855 129.871 535.426 125.5 535.989 120.942C536.552 116.385 536.093 111.753 534.652 107.392C533.211 103.031 530.821 99.0467 527.653 95.722L494.796 43.7326C493.153 39.4441 490.579 35.5756 487.259 32.4025C483.939 29.2294 479.957 26.8336 475.598 25.3861C471.24 23.9386 466.614 23.4749 462.055 24.0314C457.496 24.588 453.118 26.1487 449.235 28.6022C445.353 31.0558 442.064 34.3409 439.605 38.2196C437.146 42.0983 435.579 46.4759 435.016 51.0338C434.453 55.5917 434.907 60.2168 436.349 64.5774C437.79 68.938 440.179 72.9227 443.348 76.2474L476.204 128.237Z" fill="#71CACD"/>
</g>
<g style="mix-blend-mode:saturation" opacity="0.4">
<path d="M478.272 72.7473C479.668 76.3912 481.855 79.6782 484.676 82.3744C487.497 85.0706 490.884 87.1122 494.587 88.3421C498.291 89.572 502.218 89.9601 506.092 89.4872C509.965 89.0143 513.686 87.6881 516.985 85.6033C520.283 83.5186 523.078 80.7273 525.167 77.4317C527.257 74.136 528.592 70.4222 529.07 66.5494C529.549 62.6766 529.159 58.7408 527.934 55.0356C526.71 51.3304 524.679 47.9447 521.987 45.1197L494.069 0.944718C492.673 -2.69923 490.486 -5.98625 487.665 -8.68243C484.844 -11.3786 481.46 -13.4143 477.757 -14.6442C474.054 -15.8741 470.123 -16.2681 466.249 -15.7953C462.376 -15.3224 458.655 -13.9962 455.356 -11.9115C452.058 -9.82674 449.263 -7.03536 447.173 -3.73968C445.084 -0.443994 443.753 3.27563 443.274 7.14845C442.796 11.0213 443.182 14.9512 444.407 18.6564C445.631 22.3616 447.602 24.3224 450.354 28.5723L478.272 72.7473Z" fill="#00838D"/>
</g>
</g>
<defs>
<clipPath id="clip0_1319_8853">
<rect width="495" height="172" rx="16" fill="white"/>
</clipPath>
</defs>
</svg>
