<svg width="350" height="172" viewBox="0 0 350 172" fill="none" xmlns="http://www.w3.org/2000/svg">
<g clip-path="url(#clip0_1542_18090)">
<rect width="350" height="172" rx="16" fill="#568095" fill-opacity="0.3"/>
<g style="mix-blend-mode:multiply" opacity="0.05">
<path d="M351.204 154.237C352.847 158.525 355.421 162.394 358.741 165.567C362.061 168.74 366.048 171.143 370.406 172.59C374.765 174.038 379.387 174.494 383.945 173.938C388.504 173.381 392.883 171.821 396.765 169.367C400.647 166.913 403.936 163.628 406.395 159.75C408.855 155.871 410.426 151.5 410.989 146.942C411.552 142.385 411.093 137.753 409.652 133.392C408.211 129.031 405.821 125.047 402.653 121.722L369.796 69.7326C368.153 65.4441 365.579 61.5756 362.259 58.4025C358.939 55.2294 354.957 52.8336 350.598 51.3861C346.24 49.9386 341.614 49.4749 337.055 50.0314C332.496 50.588 328.118 52.1487 324.235 54.6022C320.353 57.0558 317.064 60.3409 314.605 64.2196C312.146 68.0983 310.579 72.4759 310.016 77.0338C309.453 81.5917 309.907 86.2168 311.349 90.5774C312.79 94.938 315.179 98.9227 318.348 102.247L351.204 154.237Z" fill="#71CACD"/>
</g>
<g style="mix-blend-mode:multiply" opacity="0.05">
<path d="M353.272 98.7473C354.668 102.391 356.855 105.678 359.676 108.374C362.497 111.071 365.884 113.112 369.587 114.342C373.291 115.572 377.218 115.96 381.092 115.487C384.965 115.014 388.686 113.688 391.985 111.603C395.283 109.519 398.078 106.727 400.167 103.432C402.257 100.136 403.592 96.4222 404.07 92.5494C404.549 88.6766 404.159 84.7408 402.934 81.0356C401.71 77.3304 399.679 73.9447 396.987 71.1197L369.069 26.9447C367.673 23.3008 365.486 20.0138 362.665 17.3176C359.844 14.6214 356.46 12.5857 352.757 11.3558C349.054 10.1259 345.123 9.73185 341.249 10.2047C337.376 10.6776 333.655 12.0038 330.356 14.0885C327.058 16.1733 324.263 18.9646 322.173 22.2603C320.084 25.556 318.753 29.2756 318.274 33.1485C317.796 37.0213 318.182 40.9512 319.407 44.6564C320.631 48.3616 322.602 50.3224 325.354 54.5723L353.272 98.7473Z" fill="#00838D"/>
</g>
</g>
<defs>
<clipPath id="clip0_1542_18090">
<rect width="350" height="172" rx="16" fill="white"/>
</clipPath>
</defs>
</svg>
