<svg width="24" height="24" viewBox="0 0 24 24" fill="none" xmlns="http://www.w3.org/2000/svg">
<path d="M20.1474 6.91407C19.8182 7.24327 19.4986 7.56279 19.489 7.8823C19.4599 8.19214 19.7891 8.51165 20.0989 8.8118C20.5637 9.29592 21.0188 9.73162 20.9994 10.2061C20.98 10.6805 20.4862 11.1743 19.9924 11.6584L15.9937 15.6669L14.6188 14.292L18.7337 10.1867L17.8042 9.25719L16.4294 10.6224L12.7985 6.99153L16.5165 3.28321C16.8941 2.9056 17.5235 2.9056 17.8817 3.28321L20.1474 5.54887C20.525 5.90711 20.525 6.53646 20.1474 6.91407ZM3 16.7997L12.2563 7.53374L15.8871 11.1646L6.63086 20.4306H3V16.7997Z" fill="#717171"/>
</svg>
