<svg width="40" height="40" viewBox="0 0 40 40" fill="none" xmlns="http://www.w3.org/2000/svg">
<path d="M34.2065 18.4124H36.6668V21.587H34.2065C33.4922 28.206 28.2065 33.4917 21.5875 34.206V36.6663H18.4129V34.206C11.7938 33.4917 6.5081 28.206 5.79381 21.587H3.3335V18.4124H5.79381C6.5081 11.7933 11.7938 6.50761 18.4129 5.79332V3.33301H21.5875V5.79332C28.2065 6.50761 33.4922 11.7933 34.2065 18.4124ZM9.00016 18.4124H11.27V21.587H9.00016C9.6827 26.46 13.5398 30.3171 18.4129 30.9997V28.7298H21.5875V30.9997C26.4605 30.3171 30.3176 26.46 31.0002 21.587H28.7303V18.4124H31.0002C30.3176 13.5394 26.4605 9.68221 21.5875 8.99967V11.2695H18.4129V8.99967C13.5398 9.68221 9.6827 13.5394 9.00016 18.4124ZM26.3494 26.3489H13.651V24.7616C13.651 22.6505 17.8891 21.587 20.0002 21.587C22.1113 21.587 26.3494 22.6505 26.3494 24.7616V26.3489ZM20.0002 13.6505C20.8421 13.6505 21.6496 13.9849 22.2449 14.5803C22.8403 15.1756 23.1748 15.9831 23.1748 16.8251C23.1748 17.667 22.8403 18.4745 22.2449 19.0699C21.6496 19.6652 20.8421 19.9997 20.0002 19.9997C19.1582 19.9997 18.3507 19.6652 17.7554 19.0699C17.16 18.4745 16.8256 17.667 16.8256 16.8251C16.8256 15.9831 17.16 15.1756 17.7554 14.5803C18.3507 13.9849 19.1582 13.6505 20.0002 13.6505Z" fill="#1F1F1F"/>
</svg>
