<svg width="24" height="24" viewBox="0 0 24 24" fill="none" xmlns="http://www.w3.org/2000/svg">
<g clip-path="url(#clip0_1809_10899)">
<g clip-path="url(#clip1_1809_10899)">
<path d="M11.1 21.7826H5.7C4.95 21.7826 4.3125 21.5087 3.7875 20.9609C3.2625 20.413 3 19.7478 3 18.9652V17.087C3 16.8209 3.08625 16.5978 3.25875 16.4178C3.43125 16.2378 3.645 16.1478 3.9 16.1478H5.7V4.87826C5.7 4.36174 5.87625 3.91957 6.22875 3.55174C6.58125 3.18391 7.005 3 7.5 3H17.4C17.895 3 18.3188 3.18391 18.6713 3.55174C19.0238 3.91957 19.2 4.36174 19.2 4.87826V11.4757C18.9 11.4443 18.5963 11.4561 18.2888 11.5109C17.9813 11.5657 17.685 11.6635 17.4 11.8043V4.87826H7.5V16.1478H12.9L11.6175 17.4861C11.4525 17.6583 11.325 17.8578 11.235 18.0848C11.145 18.3117 11.1 18.5504 11.1 18.8009V21.7826ZM12.9 20.8435V19.2939C12.9 19.1687 12.9225 19.0435 12.9675 18.9183C13.0125 18.793 13.08 18.6913 13.17 18.613L17.8725 13.7296C18.0075 13.5887 18.1575 13.487 18.3225 13.4243C18.4875 13.3617 18.6525 13.3304 18.8175 13.3304C18.9975 13.3304 19.17 13.3657 19.335 13.4361C19.5 13.5065 19.65 13.6122 19.785 13.753L20.6175 14.6217C20.7375 14.7626 20.8313 14.9191 20.8988 15.0913C20.9662 15.2635 21 15.4357 21 15.6078C21 15.78 20.97 15.9561 20.91 16.1361C20.85 16.3161 20.7525 16.4765 20.6175 16.6174L15.9375 21.5009C15.8625 21.5791 15.765 21.6457 15.645 21.7004C15.525 21.7552 15.405 21.7826 15.285 21.7826H13.8C13.545 21.7826 13.3313 21.6926 13.1588 21.5126C12.9862 21.3326 12.9 21.1096 12.9 20.8435ZM18.8175 16.5235L19.65 15.6078L18.8175 14.7391L17.9625 15.6313L18.8175 16.5235ZM9.3 10.513H15.6C15.855 10.513 16.0688 10.603 16.2413 10.783C16.4137 10.963 16.5 11.1861 16.5 11.4522C16.5 11.7183 16.4137 11.9413 16.2413 12.1213C16.0688 12.3013 15.855 12.3913 15.6 12.3913H9.3C9.045 12.3913 8.83125 12.3013 8.65875 12.1213C8.48625 11.9413 8.4 11.7183 8.4 11.4522C8.4 11.1861 8.48625 10.963 8.65875 10.783C8.83125 10.603 9.045 10.513 9.3 10.513ZM9.3 7.69565H15.6C15.855 7.69565 16.0688 7.78565 16.2413 7.96565C16.4137 8.14565 16.5 8.3687 16.5 8.63478C16.5 8.90087 16.4137 9.12391 16.2413 9.30391C16.0688 9.48391 15.855 9.57391 15.6 9.57391H9.3C9.045 9.57391 8.83125 9.48391 8.65875 9.30391C8.48625 9.12391 8.4 8.90087 8.4 8.63478C8.4 8.3687 8.48625 8.14565 8.65875 7.96565C8.83125 7.78565 9.045 7.69565 9.3 7.69565Z" fill="#717171"/>
</g>
</g>
<defs>
<clipPath id="clip0_1809_10899">
<rect width="24" height="24" fill="white"/>
</clipPath>
<clipPath id="clip1_1809_10899">
<rect width="24" height="25.0435" fill="white"/>
</clipPath>
</defs>
</svg>
