<svg width="40" height="32" viewBox="0 0 40 32" fill="none" xmlns="http://www.w3.org/2000/svg">
<rect width="40" height="32" rx="4" fill="#3F3968" fill-opacity="0.2"/>
<path d="M18.4143 12.4875H20.2678V18.0482H18.4143V12.4875ZM22.1214 6H16.5607V7.85357H22.1214V6ZM19.3411 23.6089C15.7544 23.6089 12.8536 20.7081 12.8536 17.1214C12.8536 13.5348 15.7544 10.6339 19.3411 10.6339C22.9277 10.6339 25.8285 13.5348 25.8285 17.1214C26.4773 17.1214 27.089 17.2419 27.6821 17.4458C27.6821 17.3346 27.6821 17.2326 27.6821 17.1214C27.6821 15.1566 26.9963 13.3494 25.8563 11.9221L27.1724 10.6061C26.7553 10.1335 26.3383 9.70714 25.8656 9.29935L24.5496 10.6339C23.1131 9.46617 21.3058 8.78035 19.3411 8.78035C14.7349 8.78035 11 12.5153 11 17.1214C11 21.7275 14.7349 25.4625 19.3411 25.4625C19.8879 25.4625 20.4161 25.4069 20.9259 25.3049C20.6386 24.7674 20.4347 24.165 20.342 23.5255C20.0083 23.5718 19.684 23.6089 19.3411 23.6089ZM29.5357 21.6534L26.8573 21.4217L25.8285 18.975L24.7813 21.4217L22.1214 21.6534L24.1418 23.3957L23.5116 26L25.8285 24.6191L28.0992 26L27.4968 23.3957L29.5357 21.6534Z" fill="#121212"/>
</svg>
