<svg width="40" height="40" viewBox="0 0 40 40" fill="none" xmlns="http://www.w3.org/2000/svg">
<path d="M31.6667 33.333H8.33333V14.9997H31.6667M26.6667 3.33301V6.66634H13.3333V3.33301H10V6.66634H8.33333C6.5 6.66634 5 8.16634 5 9.99967V33.333C5 35.183 6.5 36.6663 8.33333 36.6663H31.6667C33.5167 36.6663 35 35.183 35 33.333V9.99967C35 8.16634 33.5167 6.66634 31.6667 6.66634H30V3.33301M18.1333 21.6663H12.1167L16.9833 25.183L15.1333 30.933L20 27.383L24.8667 30.933L23 25.1997L27.8667 21.6663H21.8667L20 15.933L18.1333 21.6663Z" fill="#1F1F1F"/>
</svg>
