<svg width="24" height="24" viewBox="0 0 24 24" fill="none" xmlns="http://www.w3.org/2000/svg">
<path d="M18.2632 11.4737C16.2632 11.4737 14.5789 13.1579 14.5789 15.1579C14.5789 17.8947 18.2632 22 18.2632 22C18.2632 22 21.9474 17.8947 21.9474 15.1579C21.9474 13.1579 20.2632 11.4737 18.2632 11.4737ZM18.2632 16.5263C17.5263 16.5263 17 15.8947 17 15.2632C17 14.5263 17.6316 14 18.2632 14C18.8947 14 19.5263 14.6316 19.5263 15.2632C19.6316 15.8947 19 16.5263 18.2632 16.5263ZM3 11.4737V8.31579C3 10.6421 6.76842 12.5263 11.4211 12.5263C12.0211 12.5263 12.6105 12.4947 13.1789 12.4316C12.7368 13.2526 12.4737 14.1789 12.4737 15.1579C12.4737 15.3158 12.4737 15.4842 12.5053 15.6421C12.1474 15.6842 11.7895 15.6842 11.4211 15.6842C6.76842 15.6842 3 13.8 3 11.4737ZM3 6.21053C3 3.88421 6.76842 2 11.4211 2C16.0737 2 19.8421 3.88421 19.8421 6.21053C19.8421 8.53684 16.0737 10.4211 11.4211 10.4211C6.76842 10.4211 3 8.53684 3 6.21053ZM14.5789 20.6421C13.6 20.8421 12.5368 20.9474 11.4211 20.9474C6.76842 20.9474 3 19.0632 3 16.7368V13.5789C3 15.9053 6.76842 17.7895 11.4211 17.7895C11.9474 17.7895 12.5053 17.7579 13 17.7158C13.4211 18.7474 13.9895 19.7579 14.5789 20.6421Z" fill="#717171"/>
</svg>
