<svg width="41" height="40" viewBox="0 0 41 40" fill="none" xmlns="http://www.w3.org/2000/svg">
<g clip-path="url(#clip0_1287_700)">
<path d="M10.4905 30.5117V30.6228H10.3794H8.90111H7.53396V31.9229V33.2229H20.7562H33.9784V31.9229V30.6228H32.6113H31.133H31.0219V30.5117V17.7562V5.11176H20.7562H10.4905V17.7562V30.5117ZM16.4035 10.6452V10.7563H16.2924H14.8142H13.3359H13.2248V10.6452V9.23405V7.82292V7.71181H13.3359H14.8142H16.2924H16.4035V7.82292V9.23405V10.6452ZM22.3629 9.24373L22.3629 9.2442L22.3745 10.6443L22.3755 10.7563H22.2634H20.7562H19.2489H19.1378V10.6452V9.27279C19.1378 8.89302 19.1422 8.54329 19.1495 8.28532C19.1531 8.15651 19.1575 8.04959 19.1625 7.97293C19.165 7.93487 19.1678 7.90254 19.1709 7.87811C19.1724 7.8662 19.1744 7.85366 19.177 7.84233C19.1783 7.83681 19.1803 7.82896 19.1835 7.82051C19.1853 7.81588 19.1931 7.79456 19.2128 7.77575L19.2185 7.77034L19.2248 7.76578C19.2431 7.75269 19.2617 7.74801 19.2654 7.7471L19.2658 7.747C19.2727 7.74521 19.2792 7.74406 19.2841 7.74329C19.2942 7.74172 19.3059 7.74049 19.3179 7.73947C19.3423 7.73738 19.3753 7.73553 19.4149 7.73387C19.4946 7.73052 19.6063 7.72774 19.7414 7.72565C20.012 7.72149 20.3795 7.7201 20.7801 7.72288L20.7806 7.72288L22.2357 7.73948L22.3442 7.74072L22.3455 7.8492L22.3629 9.24373ZM28.2876 10.6452V10.7563H28.1765H26.6982H25.22H25.1088V10.6452V9.23405V7.82292V7.71181H25.22H26.6982H28.1765H28.2876V7.82292V9.23405V10.6452ZM16.4035 16.3451V16.4562H16.2924H14.8142H13.3359H13.2248V16.3451V14.9339V13.5228V13.4117H13.3359H14.8142H16.2924H16.4035V13.5228V14.9339V16.3451ZM22.3629 14.9182L22.3629 14.9187L22.3455 16.3188L22.3442 16.4285H22.2344H20.7562H19.2779H19.1682L19.1668 16.3188L19.1494 14.9187L19.1494 14.9182L19.1378 13.5237L19.1369 13.4117H19.2489H20.7562H22.2634H22.3755L22.3745 13.5237L22.3629 14.9182ZM28.2876 16.3451V16.4562H28.1765H26.6982H25.22H25.1088V16.3451V14.9339V13.5228V13.4117H25.22H26.6982H28.1765H28.2876V13.5228V14.9339V16.3451ZM16.4035 21.9896V22.1007H16.2924H14.8142H13.3359H13.2248V21.9896V20.5785V19.1673V19.0562H13.3359H14.8142H16.2924H16.4035V19.1673V20.5785V21.9896ZM22.3745 21.9896V22.1007H22.2634H20.7562H19.2489H19.1378V21.9896V20.5785V19.1673V19.0562H19.2489H20.7562H22.2634H22.3745V19.1673V20.5785V21.9896ZM28.2876 21.9896V22.1007H28.1765H26.6982H25.22H25.1088V21.9896V20.5785V19.1673V19.0562H25.22H26.6982H28.1765H28.2876V19.1673V20.5785V21.9896ZM21.7487 24.8949L21.749 24.895C22.5102 25.1582 23.1305 25.6743 23.4923 26.3651C23.6414 26.6497 23.7266 26.8591 23.7722 27.2197C23.8168 27.5719 23.8238 28.0708 23.8238 28.9346V30.5117V30.6228H23.7127H20.7562H17.7997H17.6886V30.5117V28.9346C17.6886 28.0708 17.6956 27.5719 17.7402 27.2197C17.7858 26.8591 17.871 26.6497 18.0201 26.3651L18.0202 26.3649C18.7184 25.0376 20.3235 24.407 21.7487 24.8949ZM17.7997 30.4006V28.9346C17.7997 27.2025 17.8286 26.9701 18.1185 26.4167C18.791 25.1383 20.3388 24.5296 21.7127 25C22.4489 25.2546 23.046 25.7526 23.3939 26.4167C23.6837 26.9701 23.7127 27.2025 23.7127 28.9346L17.7997 30.4006Z" fill="#1F1F1F" stroke="#1F1F1F" stroke-width="0.222222"/>
</g>
<defs>
<clipPath id="clip0_1287_700">
<rect width="40" height="40" fill="white" transform="translate(0.755859)"/>
</clipPath>
</defs>
</svg>
