<svg width="512" height="496" viewBox="0 0 412 396" fill="none" xmlns="http://www.w3.org/2000/svg">
<path d="M291.012 331.266C295.819 329.695 300.709 328.434 305.629 327.318C320.701 323.906 355.91 311.14 382.032 264.446C416.145 203.456 409.943 110.421 367.56 58.7345C325.177 7.04814 259.018 -10.5252 195.961 6.01442C165.228 14.0775 144.74 34.9588 127.042 60.1714C111.619 82.1174 94.2733 103.278 70.9317 117.161C47.8073 130.92 24.0522 141.888 12.3814 168.031C-16.0357 231.636 4.73184 305.651 71.9138 330.605C139.706 355.786 250.139 344.674 291.012 331.266Z" fill="#0F0742" fill-opacity="0.4"/>
<path opacity="0.7" d="M291.012 331.266C295.819 329.695 300.709 328.434 305.629 327.318C320.701 323.906 355.91 311.14 382.032 264.446C416.145 203.456 409.943 110.421 367.56 58.7345C325.177 7.04814 259.018 -10.5252 195.961 6.01442C165.228 14.0775 144.74 34.9588 127.042 60.1714C111.619 82.1174 94.2733 103.278 70.9317 117.161C47.8073 130.92 24.0522 141.888 12.3814 168.031C-16.0357 231.636 4.73184 305.651 71.9138 330.605C139.706 355.786 250.139 344.674 291.012 331.266Z" fill="white"/>
<path d="M222.921 395.129C327.346 395.129 412 388.187 412 379.623C412 371.059 327.346 364.117 222.921 364.117C118.495 364.117 33.8418 371.059 33.8418 379.623C33.8418 388.187 118.495 395.129 222.921 395.129Z" fill="#0F0742"/>
<path opacity="0.5" d="M222.921 395.129C327.346 395.129 412 388.187 412 379.623C412 371.059 327.346 364.117 222.921 364.117C118.495 364.117 33.8418 371.059 33.8418 379.623C33.8418 388.187 118.495 395.129 222.921 395.129Z" fill="white"/>
<path d="M402.355 243.545V243.493C401.094 243.369 388.11 242.252 376.253 248.413C378.848 245.157 380.776 241.422 381.927 237.42C383.079 233.419 383.43 229.23 382.962 225.092C380.109 196.489 353.108 180.115 351.03 178.885V178.812H350.968H350.896V178.885C348.829 180.115 321.828 196.458 318.964 225.092C318.349 230.64 319.205 236.251 321.445 241.363C306.239 232.277 288.511 233.807 286.877 233.972H286.815V234.024C286.019 235.874 275.868 260.26 288.056 280.996C298.962 299.531 321.817 294.631 328.03 292.895C333.25 298.373 342.75 310.84 346.958 332.125H341.034L343.887 372.44H357.212L360.065 332.125H353.098C356.293 317.703 362.056 303.973 370.113 291.592C376.315 293.132 393.155 295.727 401.445 281.648C411.235 264.839 403.006 245.043 402.355 243.545ZM350.493 243.389L336.403 223.831C336.374 223.79 336.353 223.743 336.342 223.694C336.331 223.644 336.33 223.593 336.338 223.543C336.347 223.493 336.365 223.446 336.393 223.403C336.42 223.36 336.455 223.323 336.496 223.294C336.538 223.265 336.584 223.244 336.634 223.233C336.683 223.222 336.734 223.22 336.784 223.229C336.834 223.238 336.882 223.256 336.925 223.283C336.968 223.31 337.005 223.345 337.034 223.387L350.472 242.108V222.301L336.383 202.743C336.325 202.659 336.303 202.556 336.321 202.456C336.338 202.355 336.393 202.266 336.476 202.206C336.517 202.176 336.564 202.155 336.613 202.144C336.663 202.132 336.714 202.131 336.764 202.14C336.814 202.148 336.862 202.167 336.905 202.194C336.947 202.221 336.984 202.257 337.013 202.299L350.452 221.02V192.251C350.452 192.15 350.492 192.052 350.564 191.981C350.635 191.909 350.733 191.868 350.834 191.868C350.935 191.871 351.03 191.912 351.102 191.983C351.173 192.055 351.214 192.15 351.217 192.251V220.162L365.895 201.555C365.959 201.474 366.051 201.421 366.153 201.409C366.255 201.396 366.357 201.424 366.438 201.487C366.519 201.55 366.572 201.643 366.584 201.745C366.597 201.847 366.568 201.949 366.505 202.03L351.279 221.34V241.146L365.895 222.601C365.927 222.561 365.966 222.528 366.01 222.503C366.054 222.478 366.103 222.461 366.153 222.455C366.203 222.449 366.254 222.453 366.303 222.466C366.352 222.48 366.398 222.503 366.438 222.534C366.478 222.565 366.512 222.604 366.537 222.648C366.562 222.692 366.578 222.741 366.584 222.791C366.59 222.842 366.587 222.893 366.573 222.942C366.56 222.991 366.537 223.037 366.505 223.077L351.279 242.387V259.143L365.895 240.598C365.927 240.559 365.965 240.526 366.009 240.502C366.053 240.477 366.101 240.462 366.151 240.456C366.201 240.45 366.252 240.454 366.3 240.468C366.349 240.482 366.394 240.505 366.433 240.536C366.512 240.599 366.563 240.691 366.577 240.791C366.59 240.891 366.565 240.992 366.505 241.074L351.279 260.384V260.746H350.028L336.403 241.87C336.346 241.786 336.324 241.683 336.341 241.582C336.359 241.482 336.414 241.392 336.496 241.332C336.538 241.303 336.584 241.282 336.634 241.27C336.683 241.259 336.735 241.258 336.785 241.266C336.835 241.275 336.882 241.293 336.925 241.321C336.968 241.348 337.005 241.384 337.034 241.425L350.472 260.146V243.4L350.493 243.389ZM328.123 291.127L326.728 289.225L306.921 283.705C306.839 283.683 306.769 283.629 306.726 283.556C306.684 283.482 306.672 283.394 306.694 283.312C306.716 283.23 306.77 283.16 306.843 283.117C306.917 283.074 307.004 283.063 307.087 283.085L326.118 288.388L317.848 277.068L298.031 271.538C297.991 271.527 297.953 271.508 297.92 271.483C297.886 271.457 297.859 271.425 297.839 271.388C297.818 271.351 297.806 271.311 297.802 271.269C297.797 271.227 297.802 271.185 297.814 271.145C297.838 271.065 297.893 270.997 297.966 270.956C298.04 270.916 298.126 270.905 298.207 270.928L317.238 276.231L307.449 262.844L287.642 257.376C287.596 257.371 287.551 257.357 287.511 257.333C287.471 257.309 287.436 257.277 287.41 257.239C287.383 257.201 287.365 257.157 287.358 257.111C287.35 257.065 287.352 257.018 287.364 256.973C287.376 256.928 287.398 256.886 287.428 256.851C287.458 256.815 287.496 256.786 287.538 256.766C287.58 256.747 287.626 256.737 287.673 256.736C287.719 256.736 287.765 256.746 287.808 256.766L306.839 262.069L293.08 243.245C293.03 243.174 293.01 243.088 293.024 243.003C293.037 242.918 293.083 242.841 293.152 242.79C293.221 242.741 293.306 242.721 293.389 242.735C293.472 242.748 293.547 242.794 293.597 242.862L307.831 262.338L307.697 243.038C307.695 242.996 307.702 242.955 307.717 242.916C307.732 242.877 307.755 242.842 307.784 242.812C307.813 242.782 307.847 242.758 307.886 242.742C307.924 242.726 307.965 242.718 308.007 242.718C308.05 242.716 308.092 242.723 308.133 242.739C308.173 242.754 308.209 242.778 308.24 242.808C308.271 242.838 308.295 242.873 308.312 242.913C308.329 242.952 308.338 242.995 308.338 243.038L308.482 263.196L318.261 276.572L318.117 257.21C318.117 257.125 318.15 257.044 318.21 256.984C318.271 256.924 318.352 256.89 318.437 256.89C318.479 256.889 318.52 256.896 318.559 256.911C318.598 256.925 318.633 256.948 318.663 256.977C318.693 257.006 318.717 257.041 318.733 257.079C318.749 257.117 318.758 257.158 318.757 257.2L318.902 277.358L327.172 288.667L327.038 269.357C327.038 269.272 327.071 269.19 327.132 269.13C327.192 269.07 327.273 269.036 327.358 269.036C327.443 269.036 327.525 269.07 327.585 269.13C327.645 269.19 327.679 269.272 327.679 269.357L327.823 289.514L329.002 291.137L328.123 291.127ZM330.366 291.127C333.261 286.734 341.603 272.292 336.569 258.41C340.458 260.965 344.618 263.084 348.973 264.726V327.4C344.404 308.194 335.783 296.657 330.521 291.127H330.366ZM352.075 323.534V265.015C356.204 263.515 360.164 261.585 363.89 259.257C355.941 272.003 364.841 286.723 367.188 290.197C360.494 300.487 355.386 311.725 352.033 323.534H352.075ZM401.642 262.451L385.567 266.927L377.628 277.792L393.072 273.492C393.138 273.472 393.209 273.48 393.269 273.513C393.329 273.546 393.373 273.602 393.393 273.667C393.409 273.734 393.398 273.805 393.364 273.865C393.329 273.924 393.273 273.968 393.207 273.988L377.132 278.474L370.423 287.654L385.857 283.343C385.924 283.327 385.995 283.337 386.054 283.372C386.114 283.407 386.158 283.463 386.177 283.529C386.187 283.562 386.19 283.596 386.186 283.63C386.182 283.663 386.172 283.696 386.156 283.726C386.139 283.755 386.117 283.782 386.091 283.803C386.064 283.824 386.034 283.84 386.002 283.85L369.886 288.388L369.038 289.535C368.883 289.452 368.738 289.359 368.594 289.266L369.079 288.605L369.203 272.251C369.203 272.183 369.231 272.117 369.279 272.068C369.328 272.02 369.393 271.993 369.462 271.993C369.53 271.993 369.596 272.02 369.645 272.068C369.693 272.117 369.72 272.183 369.72 272.251L369.607 287.912L376.315 278.733L376.44 262.379C376.44 262.311 376.467 262.245 376.515 262.196C376.564 262.148 376.629 262.121 376.698 262.121C376.766 262.121 376.832 262.148 376.881 262.196C376.929 262.245 376.956 262.311 376.956 262.379L376.781 278.05L384.72 267.196L384.844 250.832C384.844 250.764 384.871 250.698 384.919 250.65C384.968 250.601 385.034 250.574 385.102 250.574C385.172 250.577 385.237 250.606 385.286 250.656C385.334 250.706 385.361 250.773 385.361 250.843L385.247 266.504L396.804 250.698C396.824 250.671 396.85 250.648 396.879 250.631C396.908 250.613 396.941 250.602 396.974 250.597C397.008 250.592 397.042 250.594 397.075 250.603C397.108 250.611 397.139 250.626 397.166 250.646C397.193 250.667 397.216 250.692 397.233 250.721C397.25 250.751 397.262 250.783 397.267 250.816C397.271 250.85 397.269 250.884 397.261 250.917C397.253 250.95 397.238 250.981 397.217 251.008L386.053 266.287L401.497 261.976C401.564 261.958 401.636 261.968 401.696 262.003C401.756 262.037 401.8 262.095 401.818 262.162C401.835 262.229 401.826 262.301 401.791 262.361C401.756 262.421 401.699 262.465 401.631 262.482L401.642 262.451Z" fill="#263238"/>
<path d="M78.9536 175.844V185.013" stroke="#263238" stroke-linecap="round" stroke-linejoin="round"/>
<path d="M83.5325 180.426H74.3633" stroke="#263238" stroke-linecap="round" stroke-linejoin="round"/>
<path d="M367.012 97.2812V106.45" stroke="#263238" stroke-linecap="round" stroke-linejoin="round"/>
<path d="M371.601 101.863H362.432" stroke="#263238" stroke-linecap="round" stroke-linejoin="round"/>
<path d="M178.873 219.262V228.431" stroke="#263238" stroke-linecap="round" stroke-linejoin="round"/>
<path d="M183.463 223.84H174.293" stroke="#263238" stroke-linecap="round" stroke-linejoin="round"/>
<path d="M261.572 26.2969V35.466" stroke="#263238" stroke-linecap="round" stroke-linejoin="round"/>
<path d="M266.161 30.8867H256.992" stroke="#263238" stroke-linecap="round" stroke-linejoin="round"/>
<path d="M261.572 272.426V281.595" stroke="#263238" stroke-linecap="round" stroke-linejoin="round"/>
<path d="M266.161 277.016H256.992" stroke="#263238" stroke-linecap="round" stroke-linejoin="round"/>
<path d="M188.952 58.8477V65.1534" stroke="#263238" stroke-linecap="round" stroke-linejoin="round"/>
<path d="M192.105 62H185.799" stroke="#263238" stroke-linecap="round" stroke-linejoin="round"/>
<path d="M54.0615 96.6914V105.871" stroke="#263238" stroke-linecap="round" stroke-linejoin="round"/>
<path d="M58.6511 101.281H49.4819" stroke="#263238" stroke-linecap="round" stroke-linejoin="round"/>
<path d="M100.31 278.523V287.693" stroke="#263238" stroke-linecap="round" stroke-linejoin="round"/>
<path d="M104.9 283.113H95.7305" stroke="#263238" stroke-linecap="round" stroke-linejoin="round"/>
<path d="M362.647 66.1071C363.691 62.0549 361.254 57.9228 357.201 56.8779C353.149 55.8329 349.017 58.2708 347.972 62.323C346.927 66.3752 349.365 70.5073 353.417 71.5522C357.469 72.5972 361.602 70.1593 362.647 66.1071Z" stroke="#263238" stroke-linecap="round" stroke-linejoin="round"/>
<path d="M270.565 223.261C270.567 224.762 270.124 226.231 269.291 227.48C268.458 228.729 267.273 229.704 265.886 230.279C264.499 230.855 262.973 231.006 261.5 230.713C260.027 230.421 258.674 229.698 257.613 228.636C256.551 227.575 255.828 226.222 255.535 224.749C255.243 223.276 255.394 221.75 255.97 220.363C256.545 218.976 257.519 217.791 258.769 216.958C260.018 216.125 261.486 215.682 262.988 215.684C264.998 215.684 266.925 216.482 268.346 217.903C269.767 219.324 270.565 221.251 270.565 223.261Z" stroke="#263238" stroke-linecap="round" stroke-linejoin="round"/>
<path d="M63.1934 246.307C67.0803 244.756 68.9741 240.348 67.4234 236.461C65.8727 232.574 61.4647 230.681 57.5778 232.231C53.691 233.782 51.7971 238.19 53.3478 242.077C54.8985 245.964 59.3066 247.858 63.1934 246.307Z" stroke="#263238" stroke-linecap="round" stroke-linejoin="round"/>
<path d="M193.035 301.827C195.821 301.827 198.08 299.569 198.08 296.783C198.08 293.997 195.821 291.738 193.035 291.738C190.249 291.738 187.991 293.997 187.991 296.783C187.991 299.569 190.249 301.827 193.035 301.827Z" stroke="#263238" stroke-linecap="round" stroke-linejoin="round"/>
<path d="M275.392 141.765C275.392 142.107 275.291 142.441 275.101 142.725C274.911 143.008 274.642 143.23 274.326 143.36C274.011 143.491 273.664 143.525 273.329 143.459C272.994 143.392 272.687 143.228 272.445 142.986C272.204 142.745 272.039 142.437 271.973 142.102C271.906 141.767 271.94 141.42 272.071 141.105C272.202 140.789 272.423 140.52 272.707 140.33C272.991 140.14 273.324 140.039 273.666 140.039C273.893 140.038 274.118 140.081 274.328 140.168C274.538 140.254 274.729 140.381 274.89 140.542C275.05 140.702 275.177 140.893 275.263 141.103C275.35 141.313 275.393 141.538 275.392 141.765Z" stroke="#263238" stroke-linecap="round" stroke-linejoin="round"/>
<path d="M159.263 116.954C159.23 117.387 159.034 117.792 158.715 118.087C158.396 118.382 157.977 118.546 157.542 118.546C157.107 118.546 156.689 118.382 156.37 118.087C156.051 117.792 155.855 117.387 155.821 116.954C155.803 116.716 155.834 116.478 155.912 116.253C155.99 116.028 156.114 115.822 156.275 115.648C156.437 115.473 156.633 115.334 156.851 115.238C157.069 115.143 157.304 115.094 157.542 115.094C157.78 115.094 158.016 115.143 158.234 115.238C158.452 115.334 158.648 115.473 158.809 115.648C158.971 115.822 159.095 116.028 159.173 116.253C159.251 116.478 159.282 116.716 159.263 116.954Z" stroke="#263238" stroke-linecap="round" stroke-linejoin="round"/>
<path d="M214.744 225.332C214.744 225.673 214.642 226.007 214.453 226.291C214.263 226.575 213.993 226.796 213.678 226.927C213.363 227.057 213.015 227.092 212.681 227.025C212.346 226.958 212.038 226.794 211.797 226.553C211.555 226.311 211.391 226.003 211.324 225.669C211.258 225.334 211.292 224.987 211.422 224.671C211.553 224.356 211.774 224.086 212.058 223.896C212.342 223.707 212.676 223.605 213.017 223.605C213.244 223.605 213.469 223.65 213.678 223.737C213.887 223.824 214.078 223.951 214.238 224.111C214.398 224.271 214.525 224.462 214.612 224.671C214.699 224.881 214.744 225.105 214.744 225.332Z" stroke="#263238" stroke-linecap="round" stroke-linejoin="round"/>
<path d="M298.476 305.961C298.476 306.302 298.374 306.636 298.185 306.92C297.995 307.204 297.725 307.425 297.41 307.556C297.094 307.686 296.747 307.72 296.413 307.654C296.078 307.587 295.77 307.423 295.529 307.181C295.287 306.94 295.123 306.632 295.056 306.298C294.99 305.963 295.024 305.616 295.154 305.3C295.285 304.985 295.506 304.715 295.79 304.525C296.074 304.336 296.408 304.234 296.749 304.234C297.207 304.234 297.646 304.416 297.97 304.74C298.294 305.064 298.476 305.503 298.476 305.961Z" stroke="#263238" stroke-linecap="round" stroke-linejoin="round"/>
<path d="M208.18 18.0469C209.37 18.0739 210.54 18.3576 211.611 18.8786C212.681 19.3995 213.627 20.1454 214.382 21.0654C215.629 22.5601 216.316 24.4425 216.326 26.3891C216.3 27.6223 215.999 28.8341 215.445 29.9359C214.89 31.0378 214.096 32.0016 213.121 32.7568C211.98 33.2963 211.018 34.154 210.352 35.2268C209.687 36.2996 209.345 37.5418 209.369 38.8041C209.265 39.5071 208.945 39.8378 208.418 39.8378C207.89 39.8378 207.384 39.4347 207.384 39.0522V38.4527C207.384 35.4652 208.996 32.9842 212.242 30.9891C212.899 30.3663 213.42 29.6158 213.776 28.7838C214.132 27.9519 214.313 27.056 214.31 26.1513C214.31 23.7944 213.059 21.913 210.578 20.5071C209.723 20.2207 208.832 20.0537 207.932 20.011C205.492 20.011 203.58 21.3135 202.195 23.9184L201.667 26.4821C201.388 26.8439 201.13 27.0196 200.902 27.0196C200.179 26.8749 199.869 26.5545 199.869 26.0789C199.869 23.4946 201.144 21.2411 203.693 19.3184C205.057 18.5205 206.601 18.083 208.18 18.0469ZM208.18 42.939H208.438C209.089 42.939 209.555 43.3525 209.834 44.1898V44.593C209.815 44.9924 209.639 45.3684 209.345 45.6393C209.051 45.9102 208.662 46.0543 208.263 46.0402C207.229 45.8231 206.733 45.3373 206.733 44.5723C206.71 44.1676 206.846 43.7701 207.113 43.4648C207.38 43.1596 207.755 42.9708 208.159 42.939H208.18Z" fill="#263238"/>
<path d="M36.6013 189.688C35.4103 189.66 34.2395 189.375 33.169 188.852C32.0985 188.329 31.1535 187.581 30.3989 186.659C29.1595 185.161 28.4765 183.28 28.4658 181.336C28.4913 180.103 28.7923 178.891 29.3467 177.789C29.9012 176.687 30.6952 175.723 31.6704 174.968C32.8127 174.43 33.7748 173.572 34.4406 172.499C35.1065 171.426 35.4476 170.183 35.4228 168.921C35.5262 168.218 35.8466 167.887 36.3738 167.887C36.901 167.887 37.4076 168.29 37.4076 168.673V169.272C37.4076 172.26 35.7846 174.741 32.549 176.736C31.8929 177.359 31.371 178.109 31.0154 178.941C30.6599 179.773 30.4782 180.669 30.4816 181.573C30.4816 183.937 31.7255 185.819 34.2133 187.218C35.0684 187.504 35.9589 187.671 36.8597 187.714C39.2993 187.714 41.2117 186.411 42.5969 183.806L43.1241 181.253C43.4032 180.881 43.6616 180.705 43.889 180.705C44.6126 180.85 44.9228 181.17 44.9228 181.656C44.9228 184.227 43.6478 186.477 41.098 188.406C39.7326 189.21 38.1848 189.651 36.6013 189.688ZM36.6013 164.786H36.3428C35.6916 164.786 35.2264 164.372 34.9473 163.535V163.132C34.9661 162.732 35.1416 162.356 35.4357 162.085C35.7298 161.815 36.1189 161.67 36.5186 161.685C37.5523 161.902 38.0485 162.387 38.0485 163.152C38.0713 163.557 37.9348 163.955 37.6682 164.26C37.4016 164.565 37.026 164.754 36.6219 164.786H36.6013Z" fill="#263238"/>
<path d="M55.8287 53.0469C56.9833 53.0817 58.0793 53.5636 58.8855 54.391C59.6916 55.2183 60.1449 56.3264 60.1497 57.4816C60.1329 58.1401 59.9702 58.7866 59.6735 59.3747C59.3768 59.9628 58.9534 60.4777 58.4337 60.8825C57.8996 61.1369 57.4494 61.5387 57.1362 62.0406C56.823 62.5424 56.6599 63.1234 56.6661 63.715C56.5937 64.2215 56.3353 64.4696 55.9114 64.4696C55.4876 64.4696 55.1775 64.1491 55.1775 63.8287V63.5289C55.2041 62.7061 55.4525 61.9057 55.8965 61.2124C56.3405 60.5192 56.9635 59.9587 57.6998 59.5904C58.0039 59.3062 58.2455 58.9619 58.4093 58.5792C58.573 58.1966 58.6553 57.784 58.6508 57.3679C58.6414 56.8169 58.475 56.28 58.171 55.8204C57.867 55.3608 57.4382 54.9975 56.9348 54.7732C56.5411 54.638 56.1307 54.558 55.715 54.5354C55.148 54.5452 54.5963 54.7208 54.1279 55.0404C53.6595 55.36 53.2949 55.8097 53.079 56.3341L52.8102 57.6366C52.7409 57.7511 52.646 57.8479 52.5331 57.9197C52.4201 57.9914 52.2921 58.036 52.159 58.0501C51.6525 57.9467 51.394 57.6987 51.394 57.3265C51.4218 56.6044 51.6245 55.8997 51.9846 55.2731C52.3447 54.6465 52.8515 54.1167 53.4615 53.7291C54.1814 53.308 54.9951 53.0734 55.8287 53.0469ZM55.8287 65.5136H55.9941C56.4283 65.5136 56.7487 65.7927 56.9348 66.351V66.6094C56.9165 66.8708 56.7995 67.1155 56.6076 67.294C56.4157 67.4725 56.1632 67.5714 55.9011 67.5708C55.2395 67.426 54.8674 67.1056 54.8674 66.537C54.8684 66.2833 54.9627 66.0387 55.1323 65.85C55.302 65.6613 55.5352 65.5415 55.7874 65.5136H55.8287Z" fill="#263238"/>
<path d="M178.811 118.526C178.178 118.512 177.555 118.36 176.986 118.082C176.416 117.804 175.914 117.405 175.514 116.914C175.137 116.467 174.856 115.949 174.686 115.39C174.516 114.832 174.462 114.244 174.527 113.664C174.592 113.083 174.774 112.522 175.063 112.015C175.352 111.507 175.741 111.064 176.206 110.711C176.74 110.455 177.189 110.051 177.501 109.547C177.812 109.043 177.973 108.461 177.964 107.869C178.046 107.362 178.295 107.114 178.729 107.114C179.163 107.114 179.452 107.435 179.452 107.765V108.065C179.427 108.888 179.179 109.689 178.735 110.382C178.291 111.076 177.667 111.636 176.93 112.004C176.627 112.289 176.386 112.633 176.222 113.015C176.059 113.398 175.976 113.81 175.979 114.226C175.992 114.776 176.16 115.311 176.464 115.77C176.767 116.229 177.194 116.593 177.695 116.821C178.089 116.953 178.5 117.029 178.915 117.048C179.482 117.038 180.034 116.863 180.502 116.543C180.97 116.224 181.335 115.774 181.551 115.249L181.83 113.947C181.896 113.832 181.989 113.735 182.101 113.663C182.212 113.591 182.339 113.547 182.471 113.534C182.977 113.647 183.236 113.885 183.236 114.257C183.211 114.98 183.009 115.685 182.649 116.313C182.288 116.94 181.78 117.469 181.168 117.854C180.45 118.27 179.641 118.501 178.811 118.526ZM178.811 106.049H178.656C178.212 106.049 177.891 105.77 177.705 105.212V104.954C177.724 104.692 177.841 104.447 178.033 104.269C178.224 104.09 178.477 103.992 178.739 103.992C179.39 104.137 179.721 104.468 179.721 105.026C179.721 105.273 179.633 105.513 179.472 105.701C179.31 105.888 179.087 106.012 178.842 106.049H178.811Z" fill="#263238"/>
<path d="M151.873 71.4909C151.873 71.4909 157.383 67.1906 153.548 61.443C149.712 55.6955 130.588 54.9822 116.943 61.2053C103.298 67.4283 104.539 75.5638 105.707 78.1894C106.875 80.8151 108.57 84.1747 108.57 84.1747V92.3102C108.57 92.3102 107.857 97.0963 99.7213 103.071C91.5859 109.046 85.3629 118.856 87.0375 126.092C88.7121 133.328 93.9841 133.515 89.6735 139.014C85.3629 144.513 70.5289 148.1 69.5778 159.585C68.6268 171.07 71.9658 188.064 96.6098 190.69C121.254 193.316 131.302 184.715 143.5 169.633C155.698 154.551 158.571 143.076 157.62 129.917C156.669 116.758 150.198 114.845 150.446 106.71C150.694 98.5745 161.921 85.4255 159.057 77.2901C156.194 69.1546 151.873 71.4909 151.873 71.4909Z" fill="#263238" stroke="#263238" stroke-linecap="round" stroke-linejoin="round"/>
<path d="M130.34 110.257C130.34 110.257 132.263 117.669 130.826 121.256C129.389 124.843 125.316 126.28 116.705 129.629C108.094 132.978 106.657 142.034 110.007 149.487C113.356 156.94 124.841 175.33 123.166 179.392C121.491 183.455 104.559 196.625 104.269 215.521C103.98 234.418 114.607 259.785 114.607 259.785H152.172C152.172 259.785 156.235 182.256 156.235 174.854C156.235 167.453 155.759 166.481 158.623 162.45C158.623 162.45 174.656 180.871 178.967 179.434C183.277 177.997 206.236 131.583 206.236 131.583C209.118 129.834 211.841 127.834 214.372 125.608C217.721 122.506 219.633 120.821 218.682 117.472C218.46 116.542 217.983 115.692 217.306 115.017C216.629 114.342 215.778 113.868 214.847 113.647C214.847 113.647 221.05 103.114 220.119 101.925C219.189 100.736 217.246 102.4 215.333 106.225C213.421 110.05 209.823 113.41 206.712 119.664C203.6 125.918 202.887 127.799 202.887 127.799C202.887 127.799 182.977 154.511 180.631 157.105C179.693 158.23 178.655 159.268 177.53 160.206C177.53 160.206 171.544 152.97 167.482 147.047C163.419 141.124 162.934 139.149 159.346 136.038C155.759 132.926 143.551 125.99 141.876 124.553C140.202 123.116 141.639 114.505 141.639 114.505L130.34 110.257Z" fill="white" stroke="#263238" stroke-linecap="round" stroke-linejoin="round"/>
<path d="M221.742 116.469C222.309 116.79 222.726 117.322 222.904 117.949C223.082 118.575 223.006 119.247 222.693 119.818C221.742 122.216 217.907 123.891 217.194 122.919C216.481 121.947 221.742 116.469 221.742 116.469Z" fill="white" stroke="#263238" stroke-linecap="round" stroke-linejoin="round"/>
<path d="M219.819 112.883C219.819 112.883 223.655 113.844 221.742 116.47C219.83 119.096 216.232 122.672 215.54 121.98C214.847 121.287 216.739 118.63 216.977 117.669C217.799 116.003 218.75 114.402 219.819 112.883Z" fill="white" stroke="#263238" stroke-linecap="round" stroke-linejoin="round"/>
<path d="M215.778 115.041C215.778 115.041 212.676 119.817 213.865 120.541C215.054 121.264 217.928 118.142 219.365 115.279C220.801 112.415 217.669 111.692 215.778 115.041Z" fill="white" stroke="#263238" stroke-linecap="round" stroke-linejoin="round"/>
<path d="M206.908 125.804C206.908 125.804 210.257 123.891 211.208 121.741C211.751 120.192 211.751 118.504 211.208 116.955C211.208 116.955 215.519 115.994 216.47 115.994C217.421 115.994 218.63 114.557 218.393 112.892C218.155 111.228 211.446 113.13 209.089 113.616C206.732 114.102 206.691 119.591 206.691 119.591L204.272 126.093" fill="white"/>
<path d="M206.908 125.804C206.908 125.804 210.257 123.891 211.208 121.741C211.751 120.192 211.751 118.504 211.208 116.955C211.208 116.955 215.519 115.994 216.47 115.994C217.421 115.994 218.63 114.557 218.393 112.892C218.155 111.228 211.446 113.13 209.089 113.616C206.732 114.102 206.691 119.591 206.691 119.591L204.272 126.093" stroke="#263238" stroke-linecap="round" stroke-linejoin="round"/>
<path d="M154.788 256.34C154.788 256.34 155.677 270.016 152.72 279.082C150.932 284.55 144.647 327.367 143.933 336.144C143.117 346.15 142.621 360.746 144.213 365.036C145.432 368.324 155.273 381.845 159.336 383.747C160.566 384.326 159.739 386.372 158.385 386.538C154.505 386.784 150.613 386.3 146.911 385.111C143.158 383.788 141.432 378.413 137.69 376.645C133.948 374.877 128.386 375.322 130.454 370.649C132.521 365.977 134.01 362.059 134.01 362.059C134.01 362.059 133.865 354.823 128.841 314.363C127.621 304.625 134.702 283.217 134.702 278.048C134.702 272.879 131.601 256.857 131.601 256.857L154.788 256.34Z" fill="white" stroke="#263238" stroke-linecap="round" stroke-linejoin="round"/>
<path d="M135.023 381.517L136.439 380.887L138.124 376.597L135.395 375.945L135.023 381.517Z" fill="#0F0742" stroke="#263238" stroke-linecap="round" stroke-linejoin="round"/>
<path d="M130.247 373.371L132.459 380.793L135.023 381.517L135.829 375.635L130.247 373.371Z" fill="#0F0742" stroke="#263238" stroke-linecap="round" stroke-linejoin="round"/>
<path d="M159.336 383.749C158.551 382.974 156.08 381.434 155.108 380.234C153.005 380.793 150.809 380.913 148.658 380.586C144.358 379.47 142.569 374.28 138.993 371.282C136.81 369.44 134.739 367.469 132.79 365.38L132.666 365.328C132.067 366.796 131.281 368.657 130.382 370.693C128.314 375.366 133.907 374.911 137.618 376.689C141.329 378.467 143.086 383.832 146.839 385.155C150.541 386.343 154.433 386.827 158.313 386.582C158.632 386.561 158.938 386.447 159.193 386.255C159.448 386.063 159.642 385.801 159.751 385.5C159.859 385.199 159.878 384.874 159.804 384.563C159.731 384.252 159.568 383.969 159.336 383.749Z" fill="#0F0742" stroke="#263238" stroke-linecap="round" stroke-linejoin="round"/>
<path d="M138.248 245.746C138.248 245.746 137.989 272.251 137.007 279.859C136.087 286.971 132.934 305.154 116.591 332.765C111.112 342.069 102.439 360.924 102.439 365.059C102.656 366.744 104.786 374.931 107.412 378.322C111.443 383.542 114.296 386.188 112.332 387.17C110.368 388.152 103.401 386.385 98.9763 383.935C95.1205 381.785 92.5569 376.254 89.6108 372.326C86.6647 368.398 88.577 365.927 91.6782 363.343C94.7794 360.759 96.206 353.295 97.2397 350.711C98.2734 348.126 106.026 306.457 108.869 297.898C111.113 291.714 113.945 285.76 117.325 280.118L112.156 246.521L138.248 245.746Z" fill="white" stroke="#263238" stroke-linecap="round" stroke-linejoin="round"/>
<path d="M90.6963 381.528L92.65 381.145L94.2006 376.855L91.606 374.777L90.6963 381.528Z" fill="#0F0742" stroke="#263238" stroke-linecap="round" stroke-linejoin="round"/>
<path d="M88.3604 368.406V380.749L90.6966 381.524L91.6063 374.774L88.3604 368.406Z" fill="#0F0742" stroke="#263238" stroke-linecap="round" stroke-linejoin="round"/>
<path d="M106.337 379.914C104.084 380.606 100.435 380.079 96.2583 376.089C92.5782 372.564 90.8829 365.751 90.6245 364.242C88.0505 366.423 86.9857 368.863 89.5907 372.336C92.5369 376.264 95.1005 381.795 98.9563 383.945C103.381 386.395 110.327 388.163 112.312 387.181C114.297 386.199 111.578 383.666 108.022 379.149C107.495 379.475 106.929 379.732 106.337 379.914Z" fill="#0F0742" stroke="#263238" stroke-linecap="round" stroke-linejoin="round"/>
<path d="M167.43 147.098C163.357 141.112 162.881 139.2 159.294 136.089C156.389 133.864 153.355 131.814 150.208 129.948C149.219 132.621 147.468 134.945 145.171 136.632C142.874 138.319 140.132 139.295 137.286 139.438C127.983 140.285 124.644 131.902 123.506 126.93C121.646 127.726 119.372 128.584 116.705 129.628C108.094 132.977 106.657 142.032 110.006 149.486C113.355 156.939 124.84 175.329 123.165 179.391C121.491 183.454 104.558 196.624 104.269 215.52C103.979 234.417 113.314 269.088 113.314 269.088L156.855 268.747C156.855 268.747 160.483 248.93 159.956 234.458C159.449 220.234 155.345 197.089 155.294 196.417C155.81 185.583 156.172 177.076 156.172 174.853C156.172 167.431 155.697 166.48 158.56 162.449C158.56 162.449 161.227 165.55 164.68 169.044L173.591 155.481C171.668 152.969 169.342 149.868 167.43 147.098Z" fill="#0F0742" stroke="#263238" stroke-linecap="round" stroke-linejoin="round"/>
<path d="M158.571 162.408C158.571 162.408 163.12 153.797 160.494 147.336" stroke="#263238" stroke-linecap="round" stroke-linejoin="round"/>
<path d="M138.91 234.148C139.096 236.216 139.23 238.283 139.282 240.351" stroke="#263238" stroke-linecap="round" stroke-linejoin="round"/>
<path d="M130.495 199.488C134.287 209.313 136.95 219.537 138.434 229.963" stroke="#263238" stroke-linecap="round" stroke-linejoin="round"/>
<path d="M149.102 229.465C147.288 236.861 144.508 243.986 140.832 250.656" stroke="#263238" stroke-linecap="round" stroke-linejoin="round"/>
<path d="M115.754 129.867C115.754 129.867 107.132 131.304 103.783 135.139C100.434 138.974 79.1495 183.983 79.8627 186.577C80.576 189.172 91.1097 188.014 95.6581 183.476C100.207 178.938 116.943 143.523 116.943 143.523" fill="#0F0742"/>
<path d="M115.754 129.867C115.754 129.867 107.132 131.304 103.783 135.139C100.434 138.974 79.1495 183.983 79.8627 186.577C80.576 189.172 91.1097 188.014 95.6581 183.476C100.207 178.938 116.943 143.523 116.943 143.523" stroke="#263238" stroke-linecap="round" stroke-linejoin="round"/>
<path d="M106.771 164.206L91.4819 158.789C85.3933 171.649 79.4803 185.17 79.8628 186.576C80.5761 189.201 91.1098 188.013 95.6582 183.474C97.736 181.386 102.357 172.848 106.771 164.206Z" fill="white" stroke="#263238" stroke-linecap="round" stroke-linejoin="round"/>
<path d="M86.7992 173.893C86.7992 173.893 123.889 167.432 125.564 166.957C127.239 166.481 135.364 157.385 136.087 157.147C136.811 156.909 143.499 155.948 146.425 156.671C149.35 157.395 151.449 158.108 150.012 158.584C147.571 159.104 145.092 159.422 142.6 159.535C141.796 159.563 140.995 159.646 140.202 159.783C140.202 159.783 147.624 161.695 148.823 162.646C150.022 163.597 150.012 164.559 148.575 164.559C147.138 164.559 139.488 163.132 139.488 163.132C139.488 163.132 149.061 167.432 148.575 168.156C148.089 168.88 146.425 168.632 144.274 168.156C142.375 167.607 140.531 166.884 138.765 165.996C138.765 165.996 144.512 171.981 142.838 172.198C141.163 172.415 140.925 171.722 139.736 170.286C138.54 169.122 137.17 168.152 135.674 167.412C135.674 167.412 133.276 171.96 129.689 172.911C127.339 173.48 124.898 173.565 122.515 173.159C122.515 173.159 101.695 184.158 95.2344 186.319C88.7736 188.479 82.4989 190.185 80.3591 187.766C78.2193 185.347 83.4603 177.243 83.4603 177.243" fill="white"/>
<path d="M86.7992 173.893C86.7992 173.893 123.889 167.432 125.564 166.957C127.239 166.481 135.364 157.385 136.087 157.147C136.811 156.909 143.499 155.948 146.425 156.671C149.35 157.395 151.449 158.108 150.012 158.584C147.571 159.104 145.092 159.422 142.6 159.535C141.796 159.563 140.995 159.646 140.202 159.783C140.202 159.783 147.624 161.695 148.823 162.646C150.022 163.597 150.012 164.559 148.575 164.559C147.138 164.559 139.488 163.132 139.488 163.132C139.488 163.132 149.061 167.432 148.575 168.156C148.089 168.88 146.425 168.632 144.274 168.156C142.375 167.607 140.531 166.884 138.765 165.996C138.765 165.996 144.512 171.981 142.838 172.198C141.163 172.415 140.925 171.722 139.736 170.286C138.54 169.122 137.17 168.152 135.674 167.412C135.674 167.412 133.276 171.96 129.689 172.911C127.339 173.48 124.898 173.565 122.515 173.159C122.515 173.159 101.695 184.158 95.2344 186.319C88.7736 188.479 82.4989 190.185 80.3591 187.766C78.2193 185.347 83.4603 177.243 83.4603 177.243" stroke="#263238" stroke-linecap="round" stroke-linejoin="round"/>
<path d="M122.215 93.508C122.215 93.508 120.292 90.1587 118.866 92.3089C117.439 94.4591 117.667 98.5113 119.817 101.158C121.967 103.804 126.019 102.594 126.019 102.594C126.019 102.594 128.407 111.691 132.718 114.792C137.028 117.894 145.639 118.142 149.94 113.366C154.24 108.59 154.488 98.2838 153.775 89.1974C153.061 80.1109 148.751 75.5625 148.751 75.5625C148.751 75.5625 138.693 83.4498 133.669 85.3726C130.414 86.5753 127.048 87.4547 123.621 87.9982L122.215 93.508Z" fill="white" stroke="#263238" stroke-linecap="round" stroke-linejoin="round"/>
<path d="M146.694 105.233C145.612 105.636 144.442 105.739 143.306 105.531C142.171 105.324 141.113 104.814 140.243 104.055" stroke="#263238" stroke-linecap="round" stroke-linejoin="round"/>
<path d="M127.952 84.1758H108.57V92.3112H127.952V84.1758Z" fill="#0F0742" stroke="#263238" stroke-linecap="round" stroke-linejoin="round"/>
<path d="M158.581 84.4141H126.029C124.317 84.4141 122.928 85.8025 122.928 87.5152V97.346C122.928 99.0587 124.317 100.447 126.029 100.447H158.581C160.294 100.447 161.683 99.0587 161.683 97.346V87.5152C161.683 85.8025 160.294 84.4141 158.581 84.4141Z" fill="#0F0742" stroke="#263238" stroke-linecap="round" stroke-linejoin="round"/>
<path d="M162.644 84.4141H132.252C130.539 84.4141 129.151 85.8025 129.151 87.5152V97.346C129.151 99.0587 130.539 100.447 132.252 100.447H162.644C164.356 100.447 165.745 99.0587 165.745 97.346V87.5152C165.745 85.8025 164.356 84.4141 162.644 84.4141Z" fill="#0F0742"/>
<mask id="mask0_838_16402" style="mask-type:luminance" maskUnits="userSpaceOnUse" x="129" y="84" width="37" height="17">
<path d="M162.644 84.4141H132.252C130.539 84.4141 129.151 85.8025 129.151 87.5152V97.346C129.151 99.0587 130.539 100.447 132.252 100.447H162.644C164.356 100.447 165.745 99.0587 165.745 97.346V87.5152C165.745 85.8025 164.356 84.4141 162.644 84.4141Z" fill="white"/>
</mask>
<g mask="url(#mask0_838_16402)">
<path opacity="0.3" d="M162.644 84.4141H132.252C130.539 84.4141 129.151 85.8025 129.151 87.5152V97.346C129.151 99.0587 130.539 100.447 132.252 100.447H162.644C164.356 100.447 165.745 99.0587 165.745 97.346V87.5152C165.745 85.8025 164.356 84.4141 162.644 84.4141Z" fill="black"/>
</g>
<path d="M162.644 84.4141H132.252C130.539 84.4141 129.151 85.8025 129.151 87.5152V97.346C129.151 99.0587 130.539 100.447 132.252 100.447H162.644C164.356 100.447 165.745 99.0587 165.745 97.346V87.5152C165.745 85.8025 164.356 84.4141 162.644 84.4141Z" stroke="#263238" stroke-linecap="round" stroke-linejoin="round"/>
<path opacity="0.6" d="M249.426 76.4727H211.023C206.924 76.4727 203.601 79.7957 203.601 83.8948V120.106C203.601 124.205 206.924 127.528 211.023 127.528H249.426C253.525 127.528 256.848 124.205 256.848 120.106V83.8948C256.848 79.7957 253.525 76.4727 249.426 76.4727Z" fill="#0F0742"/>
<path d="M195.196 105.056V98.6367" stroke="#263238" stroke-linecap="round" stroke-linejoin="round"/>
<path d="M226.291 136.494H202.618C201.644 136.494 200.679 136.302 199.778 135.929C198.878 135.556 198.059 135.009 197.37 134.32C196.681 133.631 196.134 132.813 195.761 131.912C195.388 131.012 195.196 130.047 195.196 129.072V107.922" stroke="#263238" stroke-linecap="round" stroke-linejoin="round"/>
<path d="M239.057 136.492H231.356" stroke="#263238" stroke-linecap="round" stroke-linejoin="round"/>
<path d="M265.242 90.9453V129.038C265.242 131.007 264.46 132.895 263.068 134.286C261.676 135.678 259.788 136.46 257.819 136.46H244.123" stroke="#263238" stroke-linecap="round" stroke-linejoin="round"/>
<path d="M206.722 67.5117H257.819C259.788 67.5117 261.676 68.2937 263.068 69.6856C264.46 71.0775 265.241 72.9654 265.241 74.9339V84.1547" stroke="#263238" stroke-linecap="round" stroke-linejoin="round"/>
<path d="M252.889 73.1562H207.56C203.461 73.1562 200.138 76.4793 200.138 80.5784V123.437C200.138 127.536 203.461 130.859 207.56 130.859H252.889C256.988 130.859 260.311 127.536 260.311 123.437V80.5784C260.311 76.4793 256.988 73.1562 252.889 73.1562Z" stroke="#263238" stroke-linecap="round" stroke-linejoin="round"/>
<path opacity="0.5" d="M330.066 73.1562H284.737C280.638 73.1562 277.315 76.4793 277.315 80.5784V123.437C277.315 127.536 280.638 130.859 284.737 130.859H330.066C334.165 130.859 337.488 127.536 337.488 123.437V80.5784C337.488 76.4793 334.165 73.1562 330.066 73.1562Z" fill="white" stroke="#263238" stroke-linecap="round" stroke-linejoin="round"/>
<path opacity="0.5" d="M252.889 148.266H207.56C203.461 148.266 200.138 151.589 200.138 155.688V198.546C200.138 202.645 203.461 205.968 207.56 205.968H252.889C256.988 205.968 260.311 202.645 260.311 198.546V155.688C260.311 151.589 256.988 148.266 252.889 148.266Z" fill="white" stroke="#263238" stroke-linecap="round" stroke-linejoin="round"/>
<path opacity="0.5" d="M330.066 148.266H284.737C280.638 148.266 277.315 151.589 277.315 155.688V198.546C277.315 202.645 280.638 205.968 284.737 205.968H330.066C334.165 205.968 337.488 202.645 337.488 198.546V155.688C337.488 151.589 334.165 148.266 330.066 148.266Z" fill="white" stroke="#263238" stroke-linecap="round" stroke-linejoin="round"/>
<path d="M326.604 76.4727H288.201C284.102 76.4727 280.779 79.7957 280.779 83.8948V120.106C280.779 124.205 284.102 127.528 288.201 127.528H326.604C330.703 127.528 334.026 124.205 334.026 120.106V83.8948C334.026 79.7957 330.703 76.4727 326.604 76.4727Z" fill="#0F0742"/>
<path d="M249.426 151.594H211.023C206.924 151.594 203.601 154.917 203.601 159.016V195.227C203.601 199.327 206.924 202.65 211.023 202.65H249.426C253.525 202.65 256.848 199.327 256.848 195.227V159.016C256.848 154.917 253.525 151.594 249.426 151.594Z" fill="#0F0742"/>
<path d="M326.604 151.594H288.201C284.102 151.594 280.779 154.917 280.779 159.016V195.227C280.779 199.327 284.102 202.65 288.201 202.65H326.604C330.703 202.65 334.026 199.327 334.026 195.227V159.016C334.026 154.917 330.703 151.594 326.604 151.594Z" fill="#0F0742"/>
</svg>
