<svg width="40" height="40" viewBox="0 0 40 40" fill="none" xmlns="http://www.w3.org/2000/svg">
<g id="Icons ">
<path id="upload" d="M8.75 34.2031C7.71875 34.2031 6.83594 33.8359 6.10156 33.1016C5.36719 32.3672 5 31.4844 5 30.4531V26.7031C5 26.1719 5.17969 25.7266 5.53906 25.3672C5.89844 25.0078 6.34375 24.8281 6.875 24.8281C7.40625 24.8281 7.85156 25.0078 8.21094 25.3672C8.57031 25.7266 8.75 26.1719 8.75 26.7031V30.4531H31.25V26.7031C31.25 26.1719 31.4297 25.7266 31.7891 25.3672C32.1484 25.0078 32.5938 24.8281 33.125 24.8281C33.6562 24.8281 34.1016 25.0078 34.4609 25.3672C34.8203 25.7266 35 26.1719 35 26.7031V30.4531C35 31.4844 34.6328 32.3672 33.8984 33.1016C33.1641 33.8359 32.2812 34.2031 31.25 34.2031H8.75ZM18.125 11.4219L14.6094 14.9375C14.2344 15.3125 13.7891 15.4922 13.2734 15.4766C12.7578 15.4609 12.3125 15.2656 11.9375 14.8906C11.5938 14.5156 11.4141 14.0781 11.3984 13.5781C11.3828 13.0781 11.5625 12.6406 11.9375 12.2656L18.6875 5.51562C18.875 5.32812 19.0781 5.19531 19.2969 5.11719C19.5156 5.03906 19.75 5 20 5C20.25 5 20.4844 5.03906 20.7031 5.11719C20.9219 5.19531 21.125 5.32812 21.3125 5.51562L28.0625 12.2656C28.4375 12.6406 28.6172 13.0781 28.6016 13.5781C28.5859 14.0781 28.4062 14.5156 28.0625 14.8906C27.6875 15.2656 27.2422 15.4609 26.7266 15.4766C26.2109 15.4922 25.7656 15.3125 25.3906 14.9375L21.875 11.4219V24.8281C21.875 25.3594 21.6953 25.8047 21.3359 26.1641C20.9766 26.5234 20.5312 26.7031 20 26.7031C19.4688 26.7031 19.0234 26.5234 18.6641 26.1641C18.3047 25.8047 18.125 25.3594 18.125 24.8281V11.4219Z" fill="#1F1F1F"/>
</g>
</svg>
